<svg width="91" height="90" viewBox="0 0 91 90" fill="none" xmlns="http://www.w3.org/2000/svg">
<g clip-path="url(#clip0)">
<path d="M82.1954 23.1293V8.23425H68.2933L82.1954 23.1293Z" fill="#F9A100"/>
<path d="M88.3932 0.290283H60.6622C59.9561 0.290283 59.3197 0.715665 59.0495 1.36779C58.7795 2.02009 58.9289 2.77083 59.4279 3.27005L65.9597 9.80177L43.9756 31.7858L23.6721 11.4823C22.9903 10.8009 21.8854 10.8009 21.2035 11.4823L1.28417 31.4016C0.602543 32.0833 0.602543 33.1885 1.28417 33.8703C1.62507 34.211 2.07174 34.3816 2.51842 34.3816C2.9651 34.3816 3.41177 34.211 3.75267 33.8703L22.4379 15.1853L46.7545 39.5019C47.0954 39.8426 47.542 40.0131 47.9887 40.0131C48.4354 40.0131 48.8821 39.8426 49.223 39.5019C49.9046 38.8202 49.9046 37.715 49.223 37.0332L46.4443 34.2545L68.4282 12.2704L78.1749 22.0172L60.4592 39.7331C59.7776 40.4148 59.7776 41.52 60.4592 42.2018C60.8001 42.5425 61.2468 42.7131 61.6935 42.7131C62.1401 42.7131 62.5868 42.5425 62.9277 42.2018L80.6435 24.4859L87.1588 31.0012C87.4927 31.3351 87.9392 31.5125 88.3934 31.5125C88.6182 31.5125 88.8451 31.469 89.061 31.3796C89.7132 31.1094 90.1385 30.473 90.1385 29.767V2.0358C90.1387 1.07192 89.3571 0.290283 88.3932 0.290283ZM86.6477 25.5528L64.8762 3.78131H86.6477V25.5528Z" fill="#2787F5"/>
<path d="M58.6082 44.0538C58.2837 43.7274 57.8334 43.5424 57.3743 43.5424C56.9152 43.5424 56.4649 43.7274 56.1402 44.0538C55.8138 44.3785 55.6288 44.8288 55.6288 45.2879C55.6288 45.747 55.8138 46.1973 56.1402 46.5218C56.4649 46.8465 56.9152 47.0334 57.3743 47.0334C57.8334 47.0334 58.2837 46.8466 58.6082 46.5218C58.9329 46.1973 59.1198 45.747 59.1198 45.2879C59.1198 44.8288 58.933 44.3785 58.6082 44.0538Z" fill="#63B9BA"/>
<path d="M34.3681 46.6083L24.907 37.1474L27.7241 34.3303C28.4059 33.6487 28.4059 32.5434 27.7243 31.8618C27.0425 31.1803 25.9376 31.1803 25.2556 31.8618L1.28429 55.8331C0.602665 56.5147 0.602665 57.62 1.28429 58.3018C1.62519 58.6425 2.07186 58.8131 2.51854 58.8131C2.96522 58.8131 3.4119 58.6425 3.7528 58.3018L22.4385 39.6161L31.8996 49.0769C32.2405 49.4177 32.6871 49.5882 33.1338 49.5882C33.5805 49.5882 34.0272 49.4177 34.3681 49.0769C35.0497 48.3953 35.0497 47.29 34.3681 46.6083Z" fill="#2787F5"/>
<path d="M45.5358 64.3334L45.4543 64.3333C44.4904 64.3333 43.7087 65.1149 43.7087 66.0788C43.7087 67.0426 44.4904 67.8243 45.4543 67.8243L45.5099 67.8245C45.5143 67.8245 45.5188 67.8245 45.5232 67.8245C46.481 67.8245 47.2612 67.0514 47.2684 66.0919C47.2755 65.128 46.4998 64.3406 45.5358 64.3334Z" fill="#63B9BA"/>
<circle cx="45.4543" cy="82.7095" r="10.923" fill="#F9A100"/>
<path d="M88.394 86.1696H85.3324V78.3474C85.3324 77.5458 84.7865 76.8473 84.0087 76.6537L75.8958 74.6324L72.9874 67.6147L77.2943 60.4499C77.7073 59.7629 77.5994 58.883 77.0326 58.3162L70.268 51.5516C69.7011 50.9849 68.8212 50.8772 68.1343 51.29L60.9693 55.5969L53.9518 52.6887L51.9305 44.5757C51.737 43.7979 51.0384 43.2521 50.2369 43.2521H40.6716C39.8701 43.2521 39.1715 43.7979 38.978 44.5757L36.9566 52.6887L29.9392 55.5969L22.7742 51.29C22.0871 50.8768 21.2074 50.9849 20.6405 51.5516L13.8761 58.3164C13.3093 58.8832 13.2014 59.7631 13.6144 60.4501L17.9213 67.6147L15.0131 74.6324L6.90011 76.6537C6.12231 76.8473 5.57649 77.5458 5.57649 78.3474V86.1696H2.51468C1.55081 86.1696 0.769165 86.9512 0.769165 87.9151C0.769165 88.8789 1.55081 89.6606 2.51468 89.6606H88.394C89.3579 89.6606 90.1395 88.8789 90.1395 87.9151C90.1395 86.9512 89.3579 86.1696 88.394 86.1696ZM81.841 86.1696H64.0018C64.9713 80.2402 63.0549 74.1487 58.745 69.8387C56.8552 67.9488 54.6398 66.5114 52.1609 65.5662C51.2603 65.2227 50.2517 65.6744 49.9082 66.5753C49.5647 67.476 50.0166 68.4845 50.9173 68.8281C52.9335 69.5968 54.7368 70.7673 56.2765 72.3072C59.9224 75.9532 61.4649 81.1655 60.4537 86.1694H30.4536C29.4426 81.1653 30.9851 75.9531 34.6311 72.3072C36.186 70.7523 38.0087 69.5744 40.0483 68.8061C40.9506 68.4664 41.4063 67.4594 41.0666 66.5573C40.7268 65.6552 39.72 65.1997 38.8179 65.539C36.3103 66.4835 34.071 67.93 32.1624 69.8385C27.8527 74.1484 25.9362 80.2397 26.9056 86.1694H9.06734V79.7115L16.7106 77.8073C17.2477 77.6734 17.6893 77.2931 17.9012 76.7818L21.4832 68.138C21.6951 67.6266 21.652 67.045 21.3666 66.5706L17.309 59.8205L22.1446 54.9849L28.8948 59.0425C29.3692 59.3279 29.9514 59.3712 30.4623 59.1591L39.1059 55.5772C39.6172 55.3652 39.9977 54.9236 40.1314 54.3865L42.0356 46.7433H48.8728L50.7769 54.3865C50.9106 54.9236 51.2912 55.3652 51.8024 55.5772L60.446 59.1591C60.9573 59.3712 61.5392 59.3281 62.0135 59.0425L68.7638 54.9849L73.5994 59.8205L69.5417 66.5706C69.2563 67.0452 69.2132 67.6268 69.4251 68.138L73.0071 76.7818C73.219 77.2931 73.6606 77.6734 74.1977 77.8073L81.841 79.7115V86.1696Z" fill="#63B9BA"/>
</g>
<defs>
<clipPath id="clip0">
<rect width="89.3703" height="89.3703" fill="white" transform="translate(0.769165 0.290283)"/>
</clipPath>
</defs>
</svg>
