<svg width="80" height="80" viewBox="0 0 80 80" fill="none" xmlns="http://www.w3.org/2000/svg">
<g clip-path="url(#clip0)">
<path d="M19.7797 58.1402C20.8843 58.1402 21.7797 59.0356 21.7797 60.1402V74.4949C21.7797 75.5995 20.8843 76.4949 19.7797 76.4949H5.51442C4.40985 76.4949 3.51442 75.5995 3.51442 74.4949V60.1402C3.51442 59.0356 4.40985 58.1402 5.51442 58.1402H19.7797ZM24.4461 57.4607C24.4461 56.3561 23.5507 55.4607 22.4461 55.4607H2.84796C1.74339 55.4607 0.847961 56.3561 0.847961 57.4607V77.1744C0.847961 78.279 1.74339 79.1744 2.84796 79.1744H22.4461C23.5507 79.1744 24.4461 78.279 24.4461 77.1744V57.4607Z" fill="#0087F3"/>
<path d="M22.4461 28.094H2.84796C1.74339 28.094 0.847961 28.9894 0.847961 30.094V49.8077C0.847961 50.9123 1.74339 51.8077 2.84796 51.8077H22.4461C23.5507 51.8077 24.4461 50.9123 24.4461 49.8077V30.094C24.4461 28.9894 23.5507 28.094 22.4461 28.094Z" fill="#0087F3"/>
<path d="M19.7797 3.40669C20.8843 3.40669 21.7797 4.30212 21.7797 5.40669V19.7614C21.7797 20.8659 20.8843 21.7614 19.7797 21.7614H5.51442C4.40985 21.7614 3.51442 20.8659 3.51442 19.7614V5.40669C3.51442 4.30212 4.40985 3.40669 5.51442 3.40669H19.7797ZM24.4461 2.72717C24.4461 1.6226 23.5507 0.727173 22.4461 0.727173H2.84796C1.74339 0.727173 0.847961 1.6226 0.847961 2.72717V22.4409C0.847961 23.5455 1.74339 24.4409 2.84796 24.4409H22.4461C23.5507 24.4409 24.4461 23.5455 24.4461 22.4409V2.72717Z" fill="#0087F3"/>
<path d="M50.0529 28.094H30.4547C29.3501 28.094 28.4547 28.9894 28.4547 30.094V49.8077C28.4547 50.9123 29.3501 51.8077 30.4547 51.8077H50.0529C51.1575 51.8077 52.0529 50.9123 52.0529 49.8077V30.094C52.0529 28.9894 51.1575 28.094 50.0529 28.094Z" fill="#F9A100"/>
<path d="M59.5564 14.2256H66.1463C67.006 14.2256 67.7027 13.5288 67.7027 12.6692C67.7027 11.8097 67.006 11.1128 66.1463 11.1128H59.5564C58.6967 11.1128 58 11.8097 58 12.6692C58 13.5288 58.6967 14.2256 59.5564 14.2256Z" fill="#2787F5"/>
<path d="M59.5564 7.11283H70.1463C71.006 7.11283 71.7027 6.41597 71.7027 5.55642C71.7027 4.69686 71.006 4 70.1463 4H59.5564C58.6967 4 58 4.69686 58 5.55642C58 6.41597 58.6967 7.11283 59.5564 7.11283Z" fill="#FFA000"/>
<path d="M59.5564 21.0641H76.1463C77.006 21.0641 77.7027 20.3673 77.7027 19.5077C77.7027 18.6482 77.006 17.9513 76.1463 17.9513H59.5564C58.6967 17.9513 58 18.6482 58 19.5077C58 20.3673 58.6967 21.0641 59.5564 21.0641Z" fill="#2787F5"/>
<path d="M50.0529 55.4607H30.4547C29.3501 55.4607 28.4547 56.3561 28.4547 57.4607V77.1744C28.4547 78.279 29.3501 79.1744 30.4547 79.1744H50.0529C51.1575 79.1744 52.0529 78.279 52.0529 77.1744V57.4607C52.0529 56.3561 51.1575 55.4607 50.0529 55.4607Z" fill="#0087F3"/>
<path d="M74.6288 58.1402C75.7334 58.1402 76.6288 59.0356 76.6288 60.1402V74.4949C76.6288 75.5995 75.7334 76.4949 74.6288 76.4949H60.3547C59.2501 76.4949 58.3547 75.5995 58.3547 74.4949V60.1402C58.3547 59.0356 59.2501 58.1402 60.3547 58.1402H74.6288ZM79.2953 55.4607H57.6882C56.5837 55.4607 55.6882 56.3561 55.6882 57.4607V77.1744C55.6882 78.279 56.5837 79.1744 57.6882 79.1744H77.2864C78.391 79.1744 79.2864 78.279 79.2864 77.1744V55.4696C79.2864 55.4647 79.2904 55.4607 79.2953 55.4607Z" fill="#0087F3"/>
</g>
<defs>
<clipPath id="clip0">
<rect width="78.4473" height="78.4473" fill="white" transform="translate(0.847961 0.727173)"/>
</clipPath>
</defs>
</svg>
