<svg width="108" height="108" viewBox="0 0 108 108" fill="none" xmlns="http://www.w3.org/2000/svg">
<g clip-path="url(#clip0)">
<path d="M59.7158 83.9048H66.0277V94.4247H59.7158V83.9048Z" fill="#E3F0FF"/>
<path d="M43.2001 69.4895C43.0816 68.8452 43.0164 68.1822 43.0164 67.5034C43.0164 61.4761 47.9025 56.59 53.9298 56.59C59.9571 56.59 64.8432 61.4761 64.8432 67.5034C64.8432 68.1819 64.778 68.8452 64.6595 69.4895H83.5563V63.8207H78.0389C77.4352 59.8358 75.8664 56.1683 73.5795 53.0619L77.483 49.1584L72.2748 43.9502L68.3713 47.8537C65.2649 45.5668 61.5973 43.9979 57.6123 43.3942V37.8768H50.2469V43.3942C46.2621 43.9979 42.5945 45.5668 39.4881 47.8537L35.5846 43.9502L30.3766 49.1584L34.2801 53.0619C31.9932 56.1683 30.4244 59.8358 29.8207 63.8207H24.3033V69.4895H43.2001Z" fill="#3B94EC"/>
<path d="M103.037 12.2715H24.9076C24.0481 12.2715 23.3512 12.9683 23.3512 13.8279C23.3512 14.6875 24.0481 15.3843 24.9076 15.3843H103.037C103.537 15.3843 103.943 15.7904 103.943 16.2897V67.9331H85.1127V63.8206C85.1127 62.9611 84.4161 62.2642 83.5563 62.2642H79.3413C78.6808 59.059 77.4053 55.9823 75.6007 53.2416L78.5835 50.2589C79.1913 49.651 79.1913 48.6655 78.5835 48.0579L73.3753 42.8497C72.7672 42.2418 71.7819 42.2418 71.1741 42.8497L68.1916 45.8324C65.4508 44.0276 62.3743 42.7521 59.1689 42.092V37.877C59.1689 37.0175 58.4723 36.3206 57.6125 36.3206H50.2471C49.3876 36.3206 48.6907 37.0175 48.6907 37.877V42.092C45.4853 42.7524 42.4088 44.0278 39.6678 45.8324L36.6851 42.8497C36.3933 42.5577 35.9974 42.3938 35.5846 42.3938C35.1719 42.3938 34.7759 42.5577 34.4841 42.8497L29.2762 48.0579C28.6683 48.6657 28.6683 49.6512 29.2762 50.2589L32.2587 53.2416C30.4539 55.9823 29.1784 59.059 28.5181 62.2642H24.3031C23.4435 62.2642 22.7467 62.9611 22.7467 63.8206V67.9331H3.91694V16.2897C3.91694 15.7904 4.32306 15.3843 4.82236 15.3843H18.6819C19.5415 15.3843 20.2384 14.6875 20.2384 13.8279C20.2384 12.9683 19.5415 12.2715 18.6819 12.2715H4.82236C2.60665 12.2715 0.804108 14.074 0.804108 16.2897V81.7954C0.804108 84.0111 2.60665 85.8136 4.82236 85.8136H40.2659V92.4612H37.2809C36.4214 92.4612 35.7245 93.1581 35.7245 94.0176C35.7245 94.8772 36.4214 95.574 37.2809 95.574H70.5787C71.4385 95.574 72.1351 94.8772 72.1351 94.0176C72.1351 93.1581 71.4385 92.4612 70.5787 92.4612H67.5935V85.8136H79.7317C80.5914 85.8136 81.2881 85.1168 81.2881 84.2572C81.2881 83.3977 80.5914 82.7008 79.7317 82.7008H4.82236C4.32306 82.7008 3.91694 82.2945 3.91694 81.7954V71.0457H103.943V81.7954C103.943 82.2947 103.537 82.7008 103.037 82.7008H85.9573C85.0976 82.7008 84.4009 83.3977 84.4009 84.2572C84.4009 85.1168 85.0976 85.8136 85.9573 85.8136H103.037C105.253 85.8136 107.056 84.0111 107.056 81.7954V16.2897C107.056 14.074 105.253 12.2715 103.037 12.2715ZM64.4807 92.4614H43.3787V85.8138H64.4807V92.4614ZM44.5728 67.5033C44.5728 62.3439 48.7704 58.1464 53.9298 58.1464C59.0892 58.1464 63.2868 62.3439 63.2868 67.5033C63.2868 67.6459 63.2832 67.7893 63.2764 67.9331H44.5832C44.5764 67.7893 44.5728 67.6459 44.5728 67.5033ZM66.3919 67.9331C66.3969 67.7895 66.3996 67.6461 66.3996 67.5033C66.3996 60.6275 60.8056 55.0335 53.9298 55.0335C47.054 55.0335 41.46 60.6275 41.46 67.5033C41.46 67.6461 41.4625 67.7895 41.4677 67.9331H25.8597V65.3771H29.8205C30.59 65.3771 31.2441 64.8147 31.3595 64.0539C31.9084 60.4299 33.3517 56.9479 35.5334 53.9847C35.9895 53.3653 35.9246 52.5055 35.3806 51.9614L32.5778 49.1586L35.5848 46.1516L38.3876 48.9544C38.9315 49.4983 39.7915 49.5632 40.411 49.1071C43.3744 46.9254 46.8562 45.4821 50.4802 44.9332C51.2411 44.8178 51.8035 44.1639 51.8035 43.3942V39.4334H56.0561V43.3942C56.0561 44.1637 56.6185 44.8178 57.3794 44.9332C61.0032 45.4821 64.485 46.9254 67.4486 49.1071C68.0679 49.5634 68.9279 49.4985 69.472 48.9544L72.2748 46.1516L75.2818 49.1586L72.4788 51.9614C71.9349 52.5053 71.8699 53.3653 72.326 53.9847C74.5077 56.9481 75.951 60.4299 76.5001 64.0539C76.6153 64.8149 77.2694 65.3771 78.0389 65.3771H81.9999V67.9331H66.3919Z" fill="#2787F5"/>
<path d="M33.9713 23.9258C33.9713 23.0662 33.2745 22.3694 32.4149 22.3694H12.0921C11.2325 22.3694 10.5356 23.0662 10.5356 23.9258C10.5356 24.7854 11.2325 25.4822 12.0921 25.4822H32.4149C33.2745 25.4822 33.9713 24.7854 33.9713 23.9258Z" fill="#FFA000"/>
<path d="M12.0921 29.3448C11.2325 29.3448 10.5356 30.0417 10.5356 30.9013C10.5356 31.7608 11.2325 32.4577 12.0921 32.4577H18.6819C19.5415 32.4577 20.2383 31.7608 20.2383 30.9013C20.2383 30.0417 19.5415 29.3448 18.6819 29.3448H12.0921Z" fill="#2787F5"/>
<path d="M91.1753 32.4577H97.7651C98.6249 32.4577 99.3215 31.7608 99.3215 30.9013C99.3215 30.0417 98.6249 29.3448 97.7651 29.3448H91.1753C90.3155 29.3448 89.6188 30.0417 89.6188 30.9013C89.6188 31.7608 90.3155 32.4577 91.1753 32.4577Z" fill="#FFA000"/>
<path d="M91.1753 39.4334H97.7651C98.6249 39.4334 99.3215 38.7365 99.3215 37.877C99.3215 37.0174 98.6249 36.3206 97.7651 36.3206H91.1753C90.3155 36.3206 89.6188 37.0174 89.6188 37.877C89.6188 38.7365 90.3155 39.4334 91.1753 39.4334Z" fill="#FFA000"/>
<path d="M91.1753 46.409H97.7651C98.6249 46.409 99.3215 45.7121 99.3215 44.8526C99.3215 43.993 98.6249 43.2961 97.7651 43.2961H91.1753C90.3155 43.2961 89.6188 43.993 89.6188 44.8526C89.6188 45.7121 90.3155 46.409 91.1753 46.409Z" fill="#2787F5"/>
</g>
<defs>
<clipPath id="clip0">
<rect width="106.251" height="106.251" fill="white" transform="translate(0.804108 0.797119)"/>
</clipPath>
</defs>
</svg>
