<svg width="136" height="126" viewBox="0 0 136 126" fill="none" xmlns="http://www.w3.org/2000/svg">
<path fill-rule="evenodd" clip-rule="evenodd" d="M68.3567 120.567C99.8491 120.567 125.379 94.6288 125.379 62.6328C125.379 30.6363 99.8491 4.69824 68.3567 4.69824C36.8637 4.69824 11.3333 30.6363 11.3333 62.6328C11.3333 94.6288 36.8637 120.567 68.3567 120.567Z" fill="white" stroke="#979797"/>
<path fill-rule="evenodd" clip-rule="evenodd" d="M68.0003 118.143C97.905 118.143 122.148 93.5119 122.148 63.129C122.148 32.7455 97.905 8.11523 68.0003 8.11523C38.0951 8.11523 13.8519 32.7455 13.8519 63.129C13.8519 93.5119 38.0951 118.143 68.0003 118.143Z" stroke="#4385F4" stroke-width="2" stroke-dasharray="3 3"/>
<mask id="mask0" style="mask-type:alpha" maskUnits="userSpaceOnUse" x="9" y="3" width="118" height="120">
<path d="M9.59964 63.0676C9.59964 95.8693 35.7717 122.46 68.0571 122.46C100.342 122.46 126.515 95.8693 126.515 63.0676C126.515 30.2659 100.342 3.6748 68.0571 3.6748C35.7717 3.6748 9.59964 30.2659 9.59964 63.0676Z" fill="white"/>
</mask>
<g mask="url(#mask0)">
<path fill-rule="evenodd" clip-rule="evenodd" d="M68.0563 122.46C100.342 122.46 126.514 95.8697 126.514 63.0681C126.514 30.2664 100.342 3.67529 68.0563 3.67529C35.7709 3.67529 9.59833 30.2664 9.59833 63.0681C9.59833 95.8697 35.7709 122.46 68.0563 122.46V122.46Z" stroke="#4385F4" stroke-width="12.399"/>
</g>
<path fill-rule="evenodd" clip-rule="evenodd" d="M72.3177 63.6255H65.6868L66.8172 61.1753L67.7967 58.8789H70.2084L71.1873 61.1753L72.3177 63.6255Z" fill="#FF7058"/>
<path fill-rule="evenodd" clip-rule="evenodd" d="M76.5376 63.6257H61.467C60.6383 63.6257 59.96 64.3144 59.96 65.1563V70.1328H77.9698V65.1563C78.0447 64.3144 77.3669 63.6257 76.5376 63.6257Z" fill="#FFD15C"/>
<path fill-rule="evenodd" clip-rule="evenodd" d="M71.1875 61.1755C70.5846 61.4821 69.9822 61.7881 69.3793 62.018L69.0022 62.0946L68.6261 61.9414C68.0226 61.7114 67.4197 61.4054 66.8174 61.0989L67.7969 58.8025H70.1325L71.1875 61.1755Z" fill="#F1543F"/>
<path fill-rule="evenodd" clip-rule="evenodd" d="M84.073 40.7345C84.073 44.4087 82.7923 47.778 80.607 50.4576C77.8192 53.8258 73.6743 56.0461 69.0024 56.0461C64.331 56.0461 60.186 53.9025 57.3983 50.4576C55.2884 47.8547 53.9317 44.4087 53.9317 40.7345V40.6578H83.9976V40.7345H84.073ZM50.9177 37.5956V40.7345C50.9177 48.3906 55.5896 54.9743 62.1456 57.7305C64.255 58.6491 66.5912 59.1083 69.0024 59.1083C71.414 59.1083 73.7497 58.6491 75.8596 57.7305C82.4152 54.9743 87.0876 48.3906 87.0876 40.7345V37.5956H50.9177ZM80.7575 33.3845H57.2472C56.7197 33.3845 56.3431 33.8438 56.3431 34.3036C56.3431 34.8396 56.7197 35.2988 57.2472 35.2988H80.7575C81.285 35.2988 81.6622 34.8396 81.6622 34.3797C81.6622 33.8438 81.285 33.3845 80.7575 33.3845Z" fill="#F8B64C"/>
<path fill-rule="evenodd" clip-rule="evenodd" d="M80.7575 35.2988V43.5669C80.7575 51.2231 76.0856 58.19 69.0021 60.9462C61.9191 58.1133 57.2477 51.2231 57.2477 43.4909V35.2988H80.7575Z" fill="#FFD15C"/>
<path fill-rule="evenodd" clip-rule="evenodd" d="M57.2472 36.4475H80.6827V35.2991H57.2472V36.4475Z" fill="#FFC952"/>
<path fill-rule="evenodd" clip-rule="evenodd" d="M74.8737 39.6489H66.2053C63.0707 40.4061 63.004 43.0458 63.004 43.0458V51.9642H66.3387V43.8442C66.3387 43.1536 67.005 43.0316 67.005 43.0316H74.8737V39.6489ZM67.9729 44.0127C67.9729 44.0127 67.2979 43.9449 67.2979 44.5518V47.2475H71.7519V48.0565C71.7519 48.0565 71.7652 48.4601 71.3471 48.4601H67.2979V51.9642H72.1567C72.1567 51.9642 75.0999 51.507 75.1266 48.4601V44.0127H67.9729Z" fill="white"/>
<g opacity="0.5">
<path opacity="0.5" fill-rule="evenodd" clip-rule="evenodd" d="M25.3279 43.0768C25.3318 43.0667 25.334 43.0605 25.334 43.0605C25.3323 43.0611 25.3307 43.0673 25.3279 43.0768ZM22.5749 50.3486C22.5771 50.3385 22.5782 50.3324 22.5787 50.3329C22.5771 50.3329 22.576 50.3391 22.5749 50.3486ZM21.4753 57.0887C21.4769 57.059 21.4775 57.0434 21.4758 57.0462C21.4731 57.0467 21.4731 57.0613 21.4753 57.0887ZM20.375 64.3443C20.3739 64.3258 20.3734 64.3163 20.3734 64.3185C20.3717 64.3191 20.3723 64.328 20.375 64.3443ZM20.9244 72.1613C20.9233 72.1535 20.9233 72.149 20.9238 72.1501C20.9227 72.1507 20.9227 72.1546 20.9244 72.1613ZM22.0246 79.4263C22.0246 79.4246 22.0241 79.4218 22.0252 79.4224C22.0241 79.423 22.0241 79.4241 22.0246 79.4263ZM29.2052 93.439C29.1898 93.4183 29.1816 93.4076 29.1827 93.4076C29.1799 93.4099 29.1887 93.4211 29.2052 93.439ZM34.722 100.152C34.7 100.132 34.6878 100.121 34.6884 100.121C34.6867 100.124 34.6983 100.135 34.722 100.152ZM40.7904 105.744C40.7601 105.725 40.7441 105.715 40.7452 105.715C40.7425 105.719 40.7584 105.729 40.7904 105.744Z" fill="#4385F4"/>
<path opacity="0.5" fill-rule="evenodd" clip-rule="evenodd" d="M67.1741 107.765C62.8915 107.965 58.7397 107.415 54.8567 106.277C56.2857 104.398 53.9223 102.531 51.6598 100.731C49.2892 98.9392 46.9158 97.1468 46.9147 97.141C46.8628 97.1834 49.7081 100.056 49.4344 102.559C49.34 103.202 49.3659 103.765 49.4807 104.256C48.8327 103.956 48.1941 103.641 47.5682 103.308C49.2323 101.692 47.3469 99.3801 45.5381 97.1863C43.624 94.9715 41.6927 92.798 41.6916 92.7927C41.6364 92.8224 43.8149 96.1695 43.1029 98.6353C42.8987 99.2599 42.8214 99.8281 42.8413 100.339C42.2789 99.9292 41.7297 99.5074 41.1959 99.0716C43.067 97.7342 41.7015 95.0947 40.3713 92.619C38.9484 90.1021 37.4791 87.6601 37.478 87.6555C37.4233 87.6723 38.9108 91.3298 37.7849 93.6822C37.4752 94.2766 37.2997 94.8344 37.2285 95.3503C36.7638 94.8512 36.3128 94.3423 35.8768 93.824C37.8787 92.7794 37.0977 89.9534 36.2471 87.2831C35.3033 84.5663 34.2888 82.014 34.2993 81.9756C34.2469 81.9814 35.0566 85.7969 33.5508 87.9669C33.1485 88.509 32.8808 89.036 32.7213 89.5368C32.3603 88.975 32.0126 88.4067 31.6792 87.8315C33.8114 87.0791 33.5376 84.1811 33.1595 81.4399C32.6997 78.6383 32.1323 76.0017 32.1323 75.9715C32.0838 75.968 32.2527 79.812 30.413 81.7368C29.9289 82.215 29.5796 82.6961 29.3389 83.1673C29.1711 82.7774 29.0088 82.3864 28.8532 81.9936C28.7323 81.6898 28.6164 81.3847 28.5027 81.0791C30.6487 80.673 30.8424 77.9289 30.9009 75.3231C30.8926 72.6639 30.7464 70.1493 30.7342 70.1237C30.6934 70.1139 30.3021 73.6928 28.2863 75.2424C27.7526 75.6293 27.3486 76.0389 27.0516 76.452C26.8402 75.6287 26.652 74.8031 26.4853 73.974C28.6147 73.9148 29.1904 71.3863 29.6072 68.9646C29.9659 66.5082 30.1635 64.1621 30.1409 64.1359C30.1078 64.1237 29.2743 67.3808 27.1648 68.5481C26.5929 68.8461 26.147 69.1825 25.807 69.5387C25.706 68.6009 25.632 67.662 25.584 66.7237C27.6251 66.9724 28.4939 64.7111 29.1915 62.5138C29.8346 60.2914 30.3048 58.1324 30.2739 58.1022C30.2463 58.0894 29.0822 61.0066 26.9539 61.8038C26.3694 62.0071 25.903 62.2651 25.536 62.5568C25.5586 61.7207 25.6005 60.887 25.6613 60.0573C25.6756 59.8615 25.6927 59.6663 25.7093 59.4716C27.5489 59.9911 28.6959 57.9802 29.5751 56.046C30.44 54.0857 31.0753 52.0575 31.0759 52.0505C31.0533 52.0389 29.6502 54.629 27.571 55.081C27.0146 55.1908 26.5565 55.3645 26.1839 55.5801C26.3567 54.4866 26.5615 53.3984 26.7988 52.3125C28.4166 52.9772 29.6938 51.2836 30.7028 49.5917C31.7173 47.8556 32.5253 45.9807 32.527 45.9732C32.506 45.9645 30.9307 48.2647 28.9597 48.4088C28.4801 48.4366 28.0689 48.5244 27.7206 48.6574C28.0429 47.5309 28.3989 46.4066 28.7897 45.2818C30.1608 45.9889 31.481 44.5951 32.5634 43.1304C33.6861 41.5901 34.652 39.8384 34.6553 39.8297C34.636 39.825 32.9249 41.8858 31.1085 41.7673C30.7353 41.7365 30.4009 41.7557 30.1017 41.8138C30.5488 40.7221 31.0262 39.6292 31.5357 38.5335C31.5633 38.462 31.5931 38.3905 31.6218 38.3191C32.761 39.0296 34.0763 37.8868 35.2084 36.608C36.4188 35.2264 37.5497 33.567 37.5558 33.5577C37.5337 33.5577 35.6946 35.4344 34.0664 35.1044C33.6861 35.0219 33.3417 35.0085 33.0331 35.0474C34.1094 32.724 35.3612 30.3651 36.8316 27.9563C35.247 30.3152 33.8379 32.6299 32.5905 34.9208C32.4663 34.553 32.2703 34.1649 31.9794 33.7623C31.4562 33.0529 31.4474 31.9031 31.6312 30.9246C31.805 29.9474 32.171 29.1404 32.1599 29.1386C32.1588 29.1375 30.7916 31.3267 30.158 33.5206C29.5133 35.6848 29.531 37.7404 31.008 37.9943C30.4235 39.1975 29.8837 40.3979 29.3858 41.5965C29.2053 41.2973 28.9658 40.9911 28.6512 40.6837C27.9778 40.0371 27.7945 38.8855 27.8359 37.8874C27.8674 36.8915 28.1241 36.0485 28.1136 36.0485C28.113 36.0462 27.0058 38.376 26.6459 40.6739C26.285 42.8689 26.5554 44.914 28.0573 45.0837C27.6753 46.1824 27.327 47.2834 27.0108 48.389C26.7889 48.1386 26.5124 47.8905 26.1729 47.6511C24.5562 46.574 24.8769 43.2965 24.9365 43.0484C24.8659 43.2558 24.0898 45.6298 24.0192 47.9277C23.9314 50.189 24.4707 52.2486 26.041 52.266C26.0388 52.2736 26.0371 52.2823 26.0349 52.2904C25.8219 53.2996 25.6337 54.3152 25.473 55.3361C25.2092 55.1159 24.8902 54.9061 24.5071 54.7144C22.6493 53.8336 22.5521 50.4161 22.5814 50.1587C22.5344 50.376 22.0261 52.9208 22.2546 55.3262C22.4583 57.6891 23.3044 59.7767 24.9669 59.5547C24.8891 60.5035 24.8339 61.4546 24.8041 62.408C24.4911 62.2099 24.1185 62.0327 23.6775 61.8857C21.6574 61.2553 21.0756 57.875 21.0442 57.448C21.026 57.8152 20.8361 60.4837 21.3897 62.8717C21.8909 65.3119 23.1587 67.4604 24.8571 66.9218C24.9051 67.7962 24.9746 68.6701 25.0679 69.5439C24.6975 69.3661 24.2615 69.2238 23.7493 69.1296C21.5078 68.7572 20.4315 65.1759 20.3725 64.8308C20.3885 65.137 20.5612 68.0286 21.5006 70.5177C22.3893 73.059 24.065 75.1843 25.797 74.2523C25.9604 75.0495 26.1442 75.846 26.349 76.6391C25.914 76.4869 25.4057 76.3887 24.8157 76.3625C22.3705 76.2963 20.6998 72.5326 20.6484 72.3019C20.6727 72.5018 21.2887 75.609 22.6879 78.1631C24.0341 80.7648 26.1735 82.8035 27.8558 81.4196C28.118 82.1203 28.3978 82.8163 28.6953 83.5066C28.1986 83.3991 27.6284 83.3631 26.9782 83.4235C24.3758 83.7151 22.0046 79.8869 21.9786 79.7428C21.9775 79.8364 23.1339 83.0958 25.0613 85.6284C26.9208 88.1987 29.5492 90.0417 31.0742 88.2388C31.4126 88.8222 31.7647 89.3985 32.1318 89.9673C31.6174 89.9313 31.0439 89.9754 30.4075 90.1265C27.8133 90.7952 24.7748 87.1808 24.8261 87.1494C24.7588 87.1303 26.4693 90.2985 28.8703 92.5847C31.1609 94.8756 34.1127 96.3229 35.3397 94.3144C35.7824 94.8396 36.24 95.3555 36.713 95.8616C36.1875 95.9011 35.6179 96.0289 35.0041 96.27C32.6385 97.2601 29.2235 94.4916 28.9139 94.1616C29.1507 94.4805 31.2117 97.1241 33.8815 98.9258C36.6462 100.861 39.8431 101.752 40.7384 99.6242C41.2859 100.072 41.8467 100.506 42.4224 100.927C41.893 101.049 41.3339 101.265 40.7516 101.598C38.535 102.936 34.6161 100.762 34.2193 100.466C34.5311 100.759 37.0695 103.037 40.0937 104.365C43.2459 105.819 46.6696 106.135 47.1984 103.928C47.8365 104.269 48.4861 104.595 49.1468 104.902C48.6324 105.112 48.1053 105.415 47.5759 105.833C45.5652 107.511 41.2136 106.058 40.7218 105.818C41.1142 106.069 44.0942 107.868 47.4109 108.627C50.8788 109.495 54.4301 109.166 54.599 106.965C58.5333 108.127 62.7386 108.687 67.0836 108.475L67.1741 107.765ZM111.779 43.0766C111.775 43.0666 111.773 43.0604 111.773 43.0604C111.775 43.061 111.777 43.0671 111.779 43.0766ZM113.98 50.3485C113.977 50.3384 113.976 50.3323 113.976 50.3328C113.977 50.3328 113.978 50.339 113.98 50.3485ZM115.629 57.0886C115.627 57.0589 115.627 57.0432 115.629 57.046C115.631 57.0466 115.631 57.0611 115.629 57.0886ZM116.178 64.3441C116.179 64.3257 116.18 64.3162 116.179 64.3184C116.181 64.319 116.181 64.3279 116.178 64.3441ZM116.178 72.1612C116.179 72.1534 116.179 72.1489 116.179 72.15C116.18 72.1506 116.18 72.1545 116.178 72.1612ZM114.527 79.4262C114.527 79.4245 114.527 79.4217 114.526 79.4223C114.527 79.4228 114.527 79.424 114.527 79.4262ZM107.919 93.4388C107.934 93.4181 107.942 93.4075 107.942 93.4075C107.944 93.4097 107.936 93.4209 107.919 93.4388ZM102.413 100.152C102.435 100.132 102.447 100.12 102.446 100.12C102.448 100.124 102.437 100.134 102.413 100.152ZM96.3563 105.744C96.386 105.725 96.4025 105.715 96.4014 105.715C96.4042 105.718 96.3882 105.729 96.3563 105.744Z" fill="#4385F4"/>
<path opacity="0.5" fill-rule="evenodd" clip-rule="evenodd" d="M69.3765 107.765C73.6586 107.965 77.8109 107.415 81.6939 106.277C80.2649 104.398 82.6283 102.531 84.8908 100.731C87.2614 98.9392 89.6348 97.1468 89.6359 97.141C89.6878 97.1834 86.8425 100.056 87.1162 102.559C87.2106 103.202 87.1847 103.765 87.0699 104.256C87.7179 103.956 88.3565 103.641 88.9824 103.308C87.3182 101.692 89.2032 99.3801 91.0125 97.1863C92.9266 94.9715 94.8579 92.798 94.859 92.7927C94.9142 92.8224 92.7356 96.1695 93.4477 98.6353C93.6519 99.2599 93.7292 99.8281 93.7093 100.339C94.2712 99.9292 94.8209 99.5074 95.3547 99.0716C93.4836 97.7342 94.8491 95.0947 96.1793 92.619C97.6022 90.1021 99.0715 87.6601 99.0726 87.6555C99.1273 87.6723 97.6397 91.3298 98.7657 93.6822C99.0754 94.2766 99.2509 94.8344 99.3221 95.3503C99.7868 94.8512 100.238 94.3423 100.674 93.824C98.6719 92.7794 99.4529 89.9534 100.303 87.2831C101.247 84.5663 102.262 82.014 102.251 81.9756C102.304 81.9814 101.494 85.7969 103 87.9669C103.402 88.509 103.669 89.036 103.829 89.5368C104.19 88.975 104.538 88.4067 104.871 87.8315C102.739 87.0791 103.013 84.1811 103.391 81.4399C103.851 78.6383 104.418 76.0017 104.418 75.9715C104.467 75.968 104.298 79.812 106.138 81.7368C106.622 82.215 106.972 82.6961 107.212 83.1673C107.379 82.7774 107.542 82.3864 107.697 81.9936C107.818 81.6898 107.934 81.3847 108.048 81.0791C105.902 80.673 105.708 77.9289 105.65 75.3231C105.658 72.6639 105.804 70.1493 105.816 70.1237C105.857 70.1139 106.249 73.6928 108.264 75.2424C108.798 75.6293 109.202 76.0389 109.498 76.452C109.71 75.6287 109.899 74.8031 110.065 73.974C107.936 73.9148 107.36 71.3863 106.943 68.9646C106.585 66.5082 106.387 64.1621 106.41 64.1359C106.443 64.1237 107.276 67.3808 109.386 68.5481C109.958 68.8461 110.404 69.1825 110.744 69.5387C110.844 68.6009 110.918 67.662 110.967 66.7237C108.925 66.9724 108.057 64.7111 107.359 62.5138C106.716 60.2914 106.245 58.1324 106.277 58.1022C106.304 58.0894 107.468 61.0066 109.597 61.8038C110.181 62.0071 110.648 62.2651 111.015 62.5568C110.991 61.7207 110.95 60.887 110.889 60.0573C110.875 59.8615 110.858 59.6663 110.841 59.4716C109.002 59.9911 107.855 57.9802 106.975 56.046C106.111 54.0857 105.475 52.0575 105.475 52.0505C105.497 52.0389 106.9 54.629 108.98 55.081C109.536 55.1908 109.994 55.3645 110.367 55.5801C110.194 54.4866 109.989 53.3984 109.752 52.3125C108.134 52.9772 106.857 51.2836 105.848 49.5917C104.833 47.8556 104.025 45.9807 104.024 45.9732C104.045 45.9645 105.62 48.2647 107.591 48.4088C108.071 48.4366 108.482 48.5244 108.83 48.6574C108.508 47.5309 108.152 46.4066 107.761 45.2818C106.39 45.9889 105.07 44.5951 103.987 43.1304C102.865 41.5901 101.899 39.8384 101.895 39.8297C101.915 39.825 103.626 41.8858 105.442 41.7673C105.815 41.7365 106.15 41.7557 106.449 41.8138C106.002 40.7221 105.524 39.6292 105.015 38.5335C104.987 38.462 104.958 38.3905 104.929 38.3191C103.79 39.0296 102.474 37.8868 101.342 36.608C100.132 35.2264 99.0009 33.567 98.9948 33.5577C99.0169 33.5577 100.856 35.4344 102.484 35.1044C102.864 35.0219 103.209 35.0085 103.517 35.0474C102.441 32.724 101.189 30.3651 99.7189 27.9563C101.304 30.3152 102.713 32.6299 103.96 34.9208C104.084 34.553 104.28 34.1649 104.571 33.7623C105.094 33.0529 105.103 31.9031 104.919 30.9246C104.746 29.9474 104.38 29.1404 104.391 29.1386C104.392 29.1375 105.759 31.3267 106.393 33.5206C107.037 35.6848 107.02 37.7404 105.543 37.9943C106.127 39.1975 106.667 40.3979 107.165 41.5965C107.345 41.2973 107.585 40.9911 107.899 40.6837C108.573 40.0371 108.756 38.8855 108.715 37.8874C108.683 36.8915 108.427 36.0485 108.437 36.0485C108.438 36.0462 109.545 38.376 109.905 40.6739C110.266 42.8689 109.995 44.914 108.493 45.0837C108.875 46.1824 109.224 47.2834 109.54 48.389C109.761 48.1386 110.038 47.8905 110.377 47.6511C111.994 46.574 111.674 43.2965 111.614 43.0484C111.685 43.2558 112.461 45.6298 112.531 47.9277C112.619 50.189 112.08 52.2486 110.51 52.266C110.512 52.2736 110.513 52.2823 110.516 52.2904C110.729 53.2996 110.917 54.3152 111.078 55.3361C111.341 55.1159 111.66 54.9061 112.043 54.7144C113.901 53.8336 113.998 50.4161 113.969 50.1587C114.016 50.376 114.524 52.9208 114.296 55.3262C114.092 57.6891 113.246 59.7767 111.584 59.5547C111.662 60.5035 111.717 61.4546 111.747 62.408C112.059 62.2099 112.432 62.0327 112.873 61.8857C114.893 61.2553 115.474 57.875 115.506 57.448C115.525 57.8152 115.714 60.4837 115.161 62.8717C114.66 65.3119 113.392 67.4604 111.694 66.9218C111.646 67.7962 111.576 68.6701 111.483 69.5439C111.853 69.3661 112.289 69.2238 112.801 69.1296C115.043 68.7572 116.119 65.1759 116.178 64.8308C116.162 65.137 115.989 68.0286 115.05 70.5177C114.161 73.059 112.486 75.1843 110.754 74.2523C110.59 75.0495 110.406 75.846 110.201 76.6391C110.637 76.4869 111.145 76.3887 111.735 76.3625C114.18 76.2963 115.851 72.5326 115.902 72.3019C115.878 72.5018 115.262 75.609 113.863 78.1631C112.516 80.7648 110.377 82.8035 108.695 81.4196C108.433 82.1203 108.153 82.8163 107.855 83.5066C108.352 83.3991 108.922 83.3631 109.572 83.4235C112.175 83.7151 114.546 79.8869 114.572 79.7428C114.573 79.8364 113.417 83.0958 111.489 85.6284C109.629 88.1987 107.001 90.0417 105.476 88.2388C105.138 88.8222 104.786 89.3985 104.419 89.9673C104.933 89.9313 105.507 89.9754 106.143 90.1265C108.737 90.7952 111.776 87.1808 111.724 87.1494C111.792 87.1303 110.081 90.2985 107.68 92.5847C105.39 94.8756 102.438 96.3229 101.211 94.3144C100.768 94.8396 100.311 95.3555 99.8376 95.8616C100.363 95.9011 100.933 96.0289 101.546 96.27C103.912 97.2601 107.327 94.4916 107.637 94.1616C107.4 94.4805 105.338 97.1241 102.669 98.9258C99.9044 100.861 96.7075 101.752 95.8122 99.6242C95.2647 100.072 94.7039 100.506 94.1282 100.927C94.6575 101.049 95.2167 101.265 95.799 101.598C98.0151 102.936 101.934 100.762 102.331 100.466C102.019 100.759 99.481 103.037 96.4569 104.365C93.3047 105.819 89.881 106.135 89.3522 103.928C88.7141 104.269 88.0645 104.595 87.4038 104.902C87.9182 105.112 88.4453 105.415 88.9747 105.833C90.9854 107.511 95.337 106.058 95.8288 105.818C95.4364 106.069 92.4564 107.868 89.1391 108.627C85.6718 109.495 82.1205 109.166 81.9516 106.965C78.0173 108.127 73.812 108.687 69.467 108.475L69.3765 107.765ZM25.0861 42.9136C25.0899 42.9032 25.0921 42.8968 25.0921 42.8968C25.0905 42.8974 25.0888 42.9037 25.0861 42.9136ZM22.7501 50.002C22.7523 49.9916 22.7534 49.9852 22.754 49.9858C22.7523 49.9858 22.7512 49.9922 22.7501 50.002ZM21.2252 57.2692C21.2269 57.2385 21.2274 57.2223 21.2258 57.2252C21.2231 57.2258 21.2231 57.2409 21.2252 57.2692ZM20.5591 64.6298C20.558 64.6107 20.5574 64.6009 20.5574 64.6032C20.5558 64.6037 20.5563 64.613 20.5591 64.6298ZM20.8328 72.0786C20.8317 72.0704 20.8317 72.0658 20.8323 72.067C20.8312 72.0676 20.8312 72.0716 20.8328 72.0786ZM22.1524 79.4968C22.1524 79.4951 22.1518 79.4922 22.1529 79.4928C22.1518 79.4934 22.1518 79.4945 22.1524 79.4968ZM29.0313 93.8723C29.016 93.8509 29.0078 93.8399 29.0089 93.8399C29.0062 93.8422 29.0149 93.8538 29.0313 93.8723ZM34.294 100.157C34.2721 100.137 34.2601 100.125 34.2606 100.125C34.259 100.128 34.2705 100.139 34.294 100.157ZM40.7443 105.493C40.7142 105.474 40.6983 105.463 40.6994 105.463C40.6966 105.467 40.7125 105.478 40.7443 105.493Z" fill="#4385F4"/>
<path opacity="0.5" fill-rule="evenodd" clip-rule="evenodd" d="M66.9829 107.435C62.7349 107.634 58.6166 107.086 54.765 105.951C56.1825 104.078 53.8381 102.216 51.5939 100.422C49.2424 98.6356 46.8882 96.8486 46.8871 96.8428C46.8356 96.8851 49.658 99.7495 49.3864 102.245C49.2928 102.886 49.3185 103.447 49.4324 103.937C48.7896 103.637 48.1562 103.323 47.5353 102.992C49.186 101.38 47.3158 99.0752 45.5216 96.888C43.6229 94.6799 41.7072 92.5129 41.7061 92.5077C41.6514 92.5372 43.8123 95.8743 43.1061 98.3326C42.9035 98.9553 42.8268 99.5218 42.8466 100.032C42.2887 99.6226 41.7439 99.2021 41.2145 98.7677C43.0705 97.4342 41.716 94.8027 40.3965 92.3345C38.9851 89.8252 37.5276 87.3906 37.5265 87.386C37.4723 87.4028 38.9478 91.0492 37.8309 93.3945C37.5238 93.9871 37.3497 94.5432 37.2791 95.0576C36.8181 94.56 36.3708 94.0526 35.9382 93.5359C37.924 92.4944 37.1493 89.6769 36.3056 87.0147C35.3694 84.3061 34.3631 81.7615 34.3735 81.7232C34.3215 81.729 35.1247 85.533 33.6311 87.6965C33.232 88.2369 32.9664 88.7623 32.8082 89.2616C32.4501 88.7015 32.1052 88.1349 31.7745 87.5615C33.8895 86.8114 33.618 83.9221 33.2429 81.1892C32.7869 78.396 32.224 75.7674 32.224 75.7373C32.1758 75.7338 32.3434 79.5661 30.5186 81.4852C30.0384 81.9619 29.6919 82.4415 29.4531 82.9113C29.2867 82.5226 29.1257 82.1328 28.9713 81.7412C28.8514 81.4382 28.7365 81.1341 28.6237 80.8295C30.7524 80.4246 30.9445 77.6888 31.0026 75.0908C30.9943 72.4396 30.8493 69.9326 30.8372 69.9071C30.7967 69.8973 30.4085 73.4655 28.4091 75.0103C27.8796 75.3961 27.4789 75.8045 27.1843 76.2163C26.9746 75.3955 26.7879 74.5724 26.6226 73.7458C28.7348 73.6867 29.3059 71.1658 29.7192 68.7515C30.0751 66.3025 30.2711 63.9634 30.2487 63.9374C30.2158 63.9252 29.3891 67.1725 27.2966 68.3362C26.7294 68.6334 26.287 68.9687 25.9497 69.3238C25.8495 68.3889 25.7762 67.4529 25.7285 66.5174C27.7532 66.7653 28.6149 64.5108 29.307 62.3201C29.9448 60.1045 30.4113 57.952 30.3806 57.9219C30.3532 57.9091 29.1986 60.8175 27.0874 61.6123C26.5076 61.815 26.045 62.0722 25.6809 62.363C25.7033 61.5294 25.745 60.6982 25.8052 59.8711C25.8194 59.6758 25.8364 59.4812 25.8528 59.2872C27.6776 59.805 28.8153 57.8002 29.6875 55.8719C30.5454 53.9175 31.1756 51.8954 31.1761 51.8884C31.1537 51.8768 29.7619 54.4591 27.6995 54.9098C27.1476 55.0193 26.6932 55.1925 26.3237 55.4074C26.495 54.3172 26.6981 53.2323 26.9336 52.1497C28.5383 52.8123 29.8052 51.1238 30.806 49.437C31.8123 47.7062 32.6138 45.837 32.6155 45.8295C32.5947 45.8208 31.0321 48.114 29.077 48.2577C28.6012 48.2855 28.1934 48.3729 27.8479 48.5056C28.1676 47.3824 28.5208 46.2616 28.9084 45.1402C30.2684 45.8451 31.578 44.4555 32.6516 42.9952C33.7652 41.4596 34.7233 39.7132 34.7266 39.7045C34.7075 39.6999 33.0102 41.7544 31.2084 41.6363C30.8383 41.6056 30.5065 41.6247 30.2098 41.6826C30.6533 40.5942 31.1268 39.5046 31.6322 38.4122C31.6596 38.3409 31.6891 38.2697 31.7176 38.1984C32.8476 38.9069 34.1523 37.7675 35.2752 36.4925C36.4759 35.1151 37.5977 33.4608 37.6037 33.4515C37.5818 33.4515 35.7576 35.3225 34.1425 34.9935C33.7652 34.9112 33.4236 34.8979 33.1175 34.9367C34.1852 32.6203 35.4269 30.2685 36.8854 27.8669C35.3135 30.2187 33.9158 32.5264 32.6784 34.8104C32.5553 34.4437 32.3609 34.0568 32.0724 33.6554C31.5533 32.9481 31.5446 31.8018 31.7269 30.8263C31.8994 29.852 32.2624 29.0475 32.2514 29.0457C32.2503 29.0446 30.8942 31.2272 30.2656 33.4144C29.6262 35.5721 29.6437 37.6215 31.1088 37.8746C30.529 39.0743 29.9935 40.271 29.4997 41.466C29.3207 41.1677 29.083 40.8624 28.771 40.556C28.103 39.9113 27.9213 38.7632 27.9623 37.7681C27.9935 36.7752 28.2481 35.9347 28.2377 35.9347C28.2372 35.9324 27.1389 38.2552 26.7819 40.5461C26.4238 42.7345 26.6921 44.7735 28.1819 44.9426C27.803 46.038 27.4575 47.1357 27.1438 48.238C26.9237 47.9883 26.6494 47.741 26.3127 47.5023C24.7091 46.4284 25.0272 43.1609 25.0863 42.9135C25.0162 43.1203 24.2465 45.4871 24.1764 47.7781C24.0893 50.0325 24.6242 52.0859 26.1819 52.1033C26.1797 52.1108 26.178 52.1195 26.1758 52.1276C25.9645 53.1338 25.7778 54.1463 25.6185 55.1641C25.3568 54.9445 25.0403 54.7354 24.6604 54.5443C22.8175 53.6661 22.7211 50.259 22.7501 50.0024C22.7036 50.219 22.1994 52.7561 22.426 55.1542C22.6281 57.51 23.4674 59.5913 25.1164 59.37C25.0392 60.3159 24.9845 61.2641 24.9549 62.2147C24.6445 62.0172 24.2749 61.8405 23.8375 61.694C21.8336 61.0655 21.2566 57.6954 21.2254 57.2696C21.2073 57.6357 21.019 60.2962 21.5681 62.6769C22.0652 65.1098 23.3228 67.2518 25.0075 66.7149C25.0551 67.5867 25.1241 68.4578 25.2166 69.329C24.8492 69.1518 24.4167 69.0099 23.9087 68.916C21.6853 68.5447 20.6176 64.9742 20.5591 64.6302C20.5749 64.9354 20.7463 67.8184 21.6781 70.2999C22.5596 72.8335 24.2218 74.9524 25.9399 74.0233C26.1019 74.818 26.2842 75.6122 26.4874 76.4028C26.0559 76.2511 25.5517 76.1532 24.9664 76.1271C22.541 76.0611 20.8837 72.3087 20.8328 72.0787C20.8569 72.278 21.4679 75.3758 22.8558 77.9222C24.1912 80.5161 26.3133 82.5487 27.982 81.1689C28.2421 81.8675 28.5197 82.5614 28.8148 83.2496C28.322 83.1424 27.7565 83.1065 27.1115 83.1667C24.5301 83.4575 22.178 79.6408 22.1523 79.4972C22.1512 79.5904 23.2982 82.84 25.21 85.365C27.0546 87.9276 29.6617 89.7649 31.1745 87.9675C31.5101 88.5491 31.8594 89.1237 32.2235 89.6908C31.7132 89.6549 31.1444 89.6989 30.5131 89.8495C27.9399 90.5162 24.9259 86.9127 24.9768 86.8815C24.91 86.8623 26.6067 90.021 28.9883 92.3003C31.2604 94.5843 34.1884 96.0272 35.4055 94.0248C35.8446 94.5484 36.2985 95.0628 36.7677 95.5673C36.2465 95.6067 35.6815 95.7341 35.0727 95.9745C32.7261 96.9615 29.3387 94.2014 29.0316 93.8724C29.2665 94.1904 31.3108 96.826 33.959 98.6223C36.7015 100.552 39.8726 101.44 40.7606 99.3185C41.3037 99.7645 41.86 100.198 42.431 100.618C41.906 100.739 41.3513 100.954 40.7737 101.286C38.575 102.621 34.6878 100.453 34.2941 100.158C34.6034 100.45 37.1214 102.721 40.1211 104.045C43.2479 105.494 46.644 105.81 47.1685 103.61C47.8014 103.95 48.4458 104.274 49.1012 104.58C48.5909 104.79 48.068 105.092 47.543 105.509C45.5484 107.182 41.232 105.733 40.7442 105.493C41.1334 105.744 44.0894 107.537 47.3793 108.295C50.8192 109.159 54.3418 108.832 54.5093 106.637C58.4119 107.795 62.5833 108.354 66.8931 108.143L66.9829 107.435Z" fill="#4385F4"/>
<path opacity="0.5" fill-rule="evenodd" clip-rule="evenodd" d="M111.834 42.9138C111.83 42.9033 111.828 42.897 111.828 42.897C111.83 42.8976 111.832 42.9039 111.834 42.9138ZM114.17 50.0022C114.168 49.9918 114.166 49.9854 114.166 49.986C114.168 49.986 114.169 49.9924 114.17 50.0022ZM115.695 57.2694C115.694 57.2387 115.693 57.2225 115.695 57.2254C115.697 57.226 115.697 57.241 115.695 57.2694ZM116.361 64.63C116.362 64.6109 116.363 64.601 116.362 64.6033C116.365 64.6039 116.364 64.6132 116.361 64.63ZM116.088 72.0787C116.089 72.0706 116.089 72.066 116.088 72.0672C116.089 72.0677 116.089 72.0718 116.088 72.0787ZM114.768 79.497C114.768 79.4953 114.769 79.4924 114.767 79.493C114.769 79.4935 114.769 79.4947 114.768 79.497ZM107.889 93.8725C107.904 93.851 107.912 93.84 107.911 93.84C107.914 93.8423 107.905 93.8539 107.889 93.8725ZM102.626 100.158C102.648 100.137 102.66 100.125 102.659 100.125C102.661 100.129 102.65 100.14 102.626 100.158ZM96.1761 105.494C96.2057 105.475 96.2221 105.464 96.221 105.464C96.2237 105.468 96.2079 105.478 96.1761 105.494Z" fill="#4385F4"/>
<path opacity="0.5" fill-rule="evenodd" clip-rule="evenodd" d="M69.9374 107.435C74.1849 107.634 78.3037 107.086 82.1554 105.951C80.7379 104.078 83.0823 102.216 85.3265 100.422C87.678 98.6356 90.0322 96.8486 90.0333 96.8428C90.0848 96.8851 87.2624 99.7495 87.534 102.245C87.6276 102.886 87.6019 103.447 87.488 103.937C88.1308 103.637 88.7642 103.323 89.3851 102.992C87.7344 101.38 89.6041 99.0752 91.3988 96.888C93.2975 94.6799 95.2132 92.5129 95.2143 92.5077C95.269 92.5372 93.1081 95.8743 93.8143 98.3326C94.0169 98.9553 94.0935 99.5218 94.0738 100.032C94.6312 99.6226 95.1765 99.2021 95.7059 98.7677C93.8499 97.4342 95.2044 94.8027 96.5239 92.3345C97.9353 89.8252 99.3928 87.3906 99.3939 87.386C99.4481 87.4028 97.9726 91.0492 99.0895 93.3945C99.3966 93.9871 99.5707 94.5432 99.6413 95.0576C100.102 94.56 100.55 94.0526 100.982 93.5359C98.9964 92.4944 99.7711 89.6769 100.615 87.0147C101.551 84.3061 102.557 81.7615 102.547 81.7232C102.599 81.729 101.796 85.533 103.289 87.6965C103.688 88.2369 103.953 88.7623 104.112 89.2616C104.47 88.7015 104.815 88.1349 105.146 87.5615C103.031 86.8114 103.302 83.9221 103.677 81.1892C104.134 78.396 104.696 75.7674 104.696 75.7373C104.745 75.7338 104.577 79.5661 106.402 81.4852C106.882 81.9619 107.229 82.4415 107.467 82.9113C107.634 82.5226 107.795 82.1328 107.949 81.7412C108.069 81.4382 108.184 81.1341 108.297 80.8295C106.168 80.4246 105.976 77.6888 105.918 75.0908C105.926 72.4396 106.071 69.9326 106.083 69.9071C106.124 69.8973 106.512 73.4655 108.511 75.0103C109.041 75.3961 109.442 75.8045 109.736 76.2163C109.946 75.3955 110.132 74.5724 110.298 73.7458C108.186 73.6867 107.615 71.1658 107.201 68.7515C106.845 66.3025 106.649 63.9634 106.672 63.9374C106.705 63.9252 107.531 67.1725 109.624 68.3362C110.191 68.6334 110.633 68.9687 110.971 69.3238C111.07 68.3889 111.144 67.4529 111.192 66.5174C109.167 66.7653 108.305 64.5108 107.613 62.3201C106.976 60.1045 106.509 57.952 106.54 57.9219C106.567 57.9091 107.722 60.8175 109.833 61.6123C110.413 61.815 110.875 62.0722 111.24 62.363C111.217 61.5294 111.175 60.6982 111.115 59.8711C111.101 59.6758 111.084 59.4812 111.068 59.2872C109.243 59.805 108.105 57.8002 107.233 55.8719C106.375 53.9175 105.745 51.8954 105.744 51.8884C105.767 51.8768 107.158 54.4591 109.221 54.9098C109.773 55.0193 110.227 55.1925 110.597 55.4074C110.425 54.3172 110.222 53.2323 109.987 52.1497C108.382 52.8123 107.115 51.1238 106.114 49.437C105.108 47.7062 104.307 45.837 104.305 45.8295C104.326 45.8208 105.888 48.114 107.843 48.2577C108.319 48.2855 108.727 48.3729 109.073 48.5056C108.753 47.3824 108.4 46.2616 108.012 45.1402C106.652 45.8451 105.342 44.4555 104.269 42.9952C103.155 41.4596 102.197 39.7132 102.194 39.7045C102.213 39.6999 103.91 41.7544 105.712 41.6363C106.082 41.6056 106.414 41.6247 106.711 41.6826C106.267 40.5942 105.794 39.5046 105.288 38.4122C105.26 38.3409 105.231 38.2697 105.203 38.1984C104.073 38.9069 102.768 37.7675 101.645 36.4925C100.445 35.1151 99.3227 33.4608 99.3167 33.4515C99.3386 33.4515 101.163 35.3225 102.778 34.9935C103.155 34.9112 103.497 34.8979 103.803 34.9367C102.735 32.6203 101.494 30.2685 100.035 27.8669C101.607 30.2187 103.005 32.5264 104.242 34.8104C104.365 34.4437 104.559 34.0568 104.848 33.6554C105.367 32.9481 105.375 31.8018 105.193 30.8263C105.021 29.852 104.658 29.0475 104.669 29.0457C104.67 29.0446 106.026 31.2272 106.655 33.4144C107.294 35.5721 107.277 37.6215 105.812 37.8746C106.391 39.0743 106.927 40.271 107.421 41.466C107.599 41.1677 107.837 40.8624 108.149 40.556C108.817 39.9113 108.999 38.7632 108.958 37.7681C108.927 36.7752 108.672 35.9347 108.683 35.9347C108.683 35.9324 109.782 38.2552 110.138 40.5461C110.497 42.7345 110.228 44.7735 108.739 44.9426C109.117 46.038 109.463 47.1357 109.777 48.238C109.996 47.9883 110.271 47.741 110.607 47.5023C112.211 46.4284 111.893 43.1609 111.834 42.9135C111.904 43.1203 112.674 45.4871 112.744 47.7781C112.831 50.0325 112.296 52.0859 110.739 52.1033C110.741 52.1108 110.742 52.1195 110.745 52.1276C110.956 53.1338 111.143 54.1463 111.302 55.1641C111.564 54.9445 111.88 54.7354 112.26 54.5443C114.103 53.6661 114.199 50.259 114.17 50.0024C114.217 50.219 114.721 52.7561 114.494 55.1542C114.292 57.51 113.453 59.5913 111.804 59.37C111.881 60.3159 111.936 61.2641 111.965 62.2147C112.276 62.0172 112.645 61.8405 113.083 61.694C115.087 61.0655 115.663 57.6954 115.695 57.2696C115.713 57.6357 115.901 60.2962 115.352 62.6769C114.855 65.1098 113.598 67.2518 111.913 66.7149C111.865 67.5867 111.796 68.4578 111.704 69.329C112.071 69.1518 112.504 69.0099 113.012 68.916C115.235 68.5447 116.303 64.9742 116.361 64.6302C116.345 64.9354 116.174 67.8184 115.242 70.2999C114.361 72.8335 112.699 74.9524 110.981 74.0233C110.818 74.818 110.636 75.6122 110.432 76.4028C110.864 76.2511 111.369 76.1532 111.954 76.1271C114.379 76.0611 116.037 72.3087 116.088 72.0787C116.063 72.278 115.452 75.3758 114.065 77.9222C112.729 80.5161 110.607 82.5487 108.938 81.1689C108.678 81.8675 108.401 82.5614 108.106 83.2496C108.598 83.1424 109.164 83.1065 109.809 83.1667C112.39 83.4575 114.742 79.6408 114.768 79.4972C114.769 79.5904 113.622 82.84 111.71 85.365C109.865 87.9276 107.259 89.7649 105.746 87.9675C105.41 88.5491 105.061 89.1237 104.697 89.6908C105.207 89.6549 105.776 89.6989 106.407 89.8495C108.981 90.5162 111.995 86.9127 111.943 86.8815C112.01 86.8623 110.314 90.021 107.932 92.3003C105.66 94.5843 102.732 96.0272 101.515 94.0248C101.075 94.5484 100.622 95.0628 100.153 95.5673C100.674 95.6067 101.239 95.7341 101.848 95.9745C104.194 96.9615 107.582 94.2014 107.889 93.8724C107.654 94.1904 105.609 96.826 102.961 98.6223C100.219 100.552 97.0478 101.44 96.1598 99.3185C95.6167 99.7645 95.0604 100.198 94.4894 100.618C95.0144 100.739 95.569 100.954 96.1467 101.286C98.3449 102.621 102.233 100.453 102.626 100.158C102.317 100.45 99.799 102.721 96.7993 104.045C93.6725 105.494 90.2764 105.81 89.7519 103.61C89.119 103.95 88.4746 104.274 87.8192 104.58C88.3295 104.79 88.8524 105.092 89.3774 105.509C91.3719 107.182 95.6884 105.733 96.1762 105.493C95.787 105.744 92.831 107.537 89.5406 108.295C86.1012 109.159 82.5786 108.832 82.4111 106.637C78.5085 107.795 74.3371 108.354 70.0272 108.143L69.9374 107.435Z" fill="#4385F4"/>
</g>
<path fill-rule="evenodd" clip-rule="evenodd" d="M54.4189 98.9037C54.2342 98.8029 54.1032 98.6876 54.026 98.5578C53.9488 98.4279 53.9101 98.3169 53.9101 98.2246C53.9101 98.1904 53.9219 98.1623 53.9454 98.14C53.9689 98.1178 53.9975 98.1067 54.031 98.1067H54.4793C54.5095 98.1067 54.5356 98.1144 54.5574 98.1298C54.5792 98.1452 54.5969 98.1734 54.6103 98.2144C54.6472 98.3032 54.7026 98.3792 54.7765 98.4424C54.8504 98.5057 54.9646 98.5373 55.119 98.5373C55.3205 98.5373 55.4683 98.492 55.5623 98.4014C55.6563 98.3109 55.7033 98.1529 55.7033 97.9273V97.5788C55.522 97.7975 55.2651 97.9068 54.9327 97.9068C54.5834 97.9068 54.3207 97.7992 54.1444 97.5839C53.9681 97.3687 53.8732 97.0748 53.8598 96.7024L53.8547 96.564L53.8598 96.4256C53.8732 96.06 53.9689 95.7661 54.1469 95.544C54.3249 95.3219 54.5868 95.2109 54.9327 95.2109C55.1106 95.2109 55.2668 95.245 55.4011 95.3134C55.5354 95.3817 55.6462 95.474 55.7336 95.5901V95.3903C55.7336 95.3527 55.7461 95.3219 55.7713 95.298C55.7965 95.2741 55.8259 95.2621 55.8595 95.2621H56.2725C56.3061 95.2621 56.3346 95.2741 56.3581 95.298C56.3817 95.3219 56.3934 95.3527 56.3934 95.3903L56.3984 97.8607C56.3984 98.24 56.2943 98.5338 56.0861 98.7423C55.8779 98.9507 55.564 99.0549 55.1442 99.0549C54.8454 99.0549 54.6036 99.0045 54.4189 98.9037ZM55.5472 97.179C55.6412 97.056 55.6933 96.9057 55.7033 96.728C55.7067 96.7007 55.7084 96.646 55.7084 96.564C55.7084 96.482 55.7067 96.4273 55.7033 96.4C55.6933 96.2223 55.6412 96.0719 55.5472 95.9489C55.4532 95.8259 55.3121 95.7644 55.1241 95.7644C54.7614 95.7644 54.57 95.9899 54.5499 96.441L54.5448 96.564C54.5448 97.097 54.7379 97.3635 55.1241 97.3635C55.3121 97.3635 55.4532 97.302 55.5472 97.179ZM57.3101 97.6711C57.0952 97.466 56.9794 97.1824 56.9626 96.8202L56.9576 96.5947L56.9626 96.3692C56.9794 96.0104 57.0969 95.7277 57.3152 95.5209C57.5335 95.3142 57.8374 95.2109 58.2269 95.2109C58.6131 95.2109 58.9153 95.3142 59.1336 95.5209C59.3518 95.7277 59.4694 96.0104 59.4861 96.3692C59.4895 96.4102 59.4912 96.4854 59.4912 96.5947C59.4912 96.7041 59.4895 96.7792 59.4861 96.8202C59.4694 97.1824 59.3535 97.466 59.1386 97.6711C58.9237 97.8761 58.6198 97.9786 58.2269 97.9786C57.8306 97.9786 57.5251 97.8761 57.3101 97.6711ZM58.6374 97.2918C58.7331 97.179 58.7843 97.0133 58.791 96.7946C58.7944 96.7604 58.7961 96.6938 58.7961 96.5947C58.7961 96.4956 58.7944 96.429 58.791 96.3948C58.7843 96.1762 58.7323 96.0096 58.6349 95.8951C58.5375 95.7806 58.4015 95.7234 58.2269 95.7234C58.0489 95.7234 57.9112 95.7806 57.8138 95.8951C57.7165 96.0096 57.6644 96.1762 57.6577 96.3948L57.6527 96.5947L57.6577 96.7946C57.6644 97.0133 57.7165 97.179 57.8138 97.2918C57.9112 97.4045 58.0489 97.4609 58.2269 97.4609C58.4049 97.4609 58.5417 97.4045 58.6374 97.2918ZM60.2971 97.6711C60.0822 97.466 59.9663 97.1824 59.9496 96.8202L59.9445 96.5947L59.9496 96.3692C59.9663 96.0104 60.0839 95.7277 60.3021 95.5209C60.5204 95.3142 60.8243 95.2109 61.2138 95.2109C61.6 95.2109 61.9022 95.3142 62.1205 95.5209C62.3388 95.7277 62.4563 96.0104 62.4731 96.3692C62.4765 96.4102 62.4781 96.4854 62.4781 96.5947C62.4781 96.7041 62.4765 96.7792 62.4731 96.8202C62.4563 97.1824 62.3405 97.466 62.1256 97.6711C61.9106 97.8761 61.6067 97.9786 61.2138 97.9786C60.8176 97.9786 60.512 97.8761 60.2971 97.6711ZM61.6244 97.2918C61.7201 97.179 61.7713 97.0133 61.778 96.7946C61.7814 96.7604 61.783 96.6938 61.783 96.5947C61.783 96.4956 61.7814 96.429 61.778 96.3948C61.7713 96.1762 61.7192 96.0096 61.6218 95.8951C61.5245 95.7806 61.3885 95.7234 61.2138 95.7234C61.0359 95.7234 60.8982 95.7806 60.8008 95.8951C60.7034 96.0096 60.6514 96.1762 60.6447 96.3948L60.6396 96.5947L60.6447 96.7946C60.6514 97.0133 60.7034 97.179 60.8008 97.2918C60.8982 97.4045 61.0359 97.4609 61.2138 97.4609C61.3918 97.4609 61.5287 97.4045 61.6244 97.2918ZM63.2287 97.648C63.0473 97.4276 62.9483 97.1329 62.9315 96.7639L62.9264 96.5947L62.9315 96.4256C62.9449 96.0634 63.0431 95.7704 63.2261 95.5466C63.4092 95.3228 63.6702 95.2109 64.0094 95.2109C64.3318 95.2109 64.5887 95.3236 64.7801 95.5491V94.4113C64.7801 94.3737 64.7918 94.3438 64.8153 94.3216C64.8388 94.2994 64.8674 94.2883 64.901 94.2883H65.3392C65.3761 94.2883 65.4055 94.2994 65.4273 94.3216C65.4492 94.3438 65.4601 94.3737 65.4601 94.4113V97.8043C65.4601 97.8385 65.4492 97.8675 65.4273 97.8915C65.4055 97.9154 65.3761 97.9273 65.3392 97.9273H64.9312C64.8976 97.9273 64.8691 97.9154 64.8456 97.8915C64.822 97.8675 64.8103 97.8385 64.8103 97.8043V97.6147C64.6256 97.8573 64.3586 97.9786 64.0094 97.9786C63.6702 97.9786 63.41 97.8684 63.2287 97.648ZM64.6264 97.238C64.7188 97.1133 64.77 96.9586 64.7801 96.7741C64.7834 96.7331 64.7851 96.6682 64.7851 96.5793C64.7851 96.4871 64.7834 96.4205 64.7801 96.3795C64.7734 96.2086 64.7213 96.0634 64.6239 95.9438C64.5265 95.8242 64.3855 95.7644 64.2008 95.7644C63.8415 95.7644 63.6501 95.9899 63.6266 96.441L63.6216 96.5947L63.6266 96.7485C63.6501 97.1995 63.8415 97.425 64.2008 97.425C64.3922 97.425 64.5341 97.3627 64.6264 97.238ZM66.4473 97.8915C66.4238 97.8675 66.4121 97.8385 66.4121 97.8043V95.8105H66.0041C65.9705 95.8105 65.942 95.7986 65.9184 95.7747C65.8949 95.7507 65.8832 95.7217 65.8832 95.6875V95.3851C65.8832 95.351 65.8949 95.3219 65.9184 95.298C65.942 95.2741 65.9705 95.2621 66.0041 95.2621H66.4121V95.0571C66.4121 94.7462 66.4943 94.5147 66.6589 94.3626C66.8234 94.2105 67.0719 94.1345 67.4044 94.1345H68.447C68.484 94.1345 68.5134 94.1456 68.5352 94.1678C68.557 94.19 68.5679 94.2199 68.5679 94.2575V94.5599C68.5679 94.5941 68.5562 94.6231 68.5327 94.6471C68.5092 94.671 68.4806 94.6829 68.447 94.6829H67.4296C67.2986 94.6829 67.2062 94.7154 67.1525 94.7803C67.0988 94.8453 67.0719 94.946 67.0719 95.0827V95.2621H68.447C68.484 95.2621 68.5134 95.2732 68.5352 95.2954C68.557 95.3176 68.5679 95.3475 68.5679 95.3851V97.8043C68.5679 97.8385 68.557 97.8675 68.5352 97.8915C68.5134 97.9154 68.484 97.9273 68.447 97.9273H68.029C67.9954 97.9273 67.9668 97.9154 67.9433 97.8915C67.9198 97.8675 67.9081 97.8385 67.9081 97.8043V95.8105H67.0719V97.8043C67.0719 97.8385 67.061 97.8675 67.0392 97.8915C67.0174 97.9154 66.988 97.9273 66.951 97.9273H66.533C66.4994 97.9273 66.4708 97.9154 66.4473 97.8915ZM69.2681 97.8915C69.2446 97.8675 69.2328 97.8385 69.2328 97.8043V95.3903C69.2328 95.3527 69.2446 95.3219 69.2681 95.298C69.2916 95.2741 69.3201 95.2621 69.3537 95.2621H69.7667C69.8037 95.2621 69.8339 95.2741 69.8574 95.298C69.8809 95.3219 69.8927 95.3527 69.8927 95.3903V95.6004C70.0606 95.3749 70.3023 95.2621 70.618 95.2621H70.8296C70.8665 95.2621 70.8959 95.2732 70.9177 95.2954C70.9395 95.3176 70.9504 95.3475 70.9504 95.3851V95.7593C70.9504 95.7935 70.9395 95.8225 70.9177 95.8464C70.8959 95.8703 70.8665 95.8823 70.8296 95.8823H70.4316C70.2738 95.8823 70.1496 95.9284 70.0589 96.0207C69.9682 96.1129 69.9229 96.2394 69.9229 96.4V97.8043C69.9229 97.8385 69.9111 97.8675 69.8876 97.8915C69.8641 97.9154 69.8356 97.9273 69.802 97.9273H69.3537C69.3201 97.9273 69.2916 97.9154 69.2681 97.8915ZM71.3786 97.8915C71.3551 97.8675 71.3433 97.8385 71.3433 97.8043V95.3851C71.3433 95.3475 71.3551 95.3176 71.3786 95.2954C71.4021 95.2732 71.4306 95.2621 71.4642 95.2621H71.8621C71.8991 95.2621 71.9285 95.2732 71.9503 95.2954C71.9721 95.3176 71.983 95.3475 71.983 95.3851V95.5594C72.1644 95.327 72.4078 95.2109 72.7134 95.2109C73.0861 95.2109 73.3464 95.3629 73.4941 95.667C73.5747 95.5303 73.6889 95.4202 73.8367 95.3364C73.9844 95.2527 74.1439 95.2109 74.3152 95.2109C74.5905 95.2109 74.8155 95.3065 74.9902 95.4979C75.1648 95.6892 75.2521 95.9677 75.2521 96.3333V97.8043C75.2521 97.8385 75.2412 97.8675 75.2193 97.8915C75.1975 97.9154 75.1681 97.9273 75.1312 97.9273H74.7131C74.6795 97.9273 74.651 97.9154 74.6275 97.8915C74.604 97.8675 74.5922 97.8385 74.5922 97.8043V96.3743C74.5922 96.1591 74.5477 96.0036 74.4587 95.9079C74.3698 95.8122 74.2531 95.7644 74.1087 95.7644C73.9777 95.7644 73.866 95.8131 73.7737 95.9105C73.6814 96.0079 73.6352 96.1625 73.6352 96.3743V97.8043C73.6352 97.8385 73.6243 97.8675 73.6024 97.8915C73.5806 97.9154 73.5512 97.9273 73.5143 97.9273H73.0912C73.0576 97.9273 73.0291 97.9154 73.0056 97.8915C72.982 97.8675 72.9703 97.8385 72.9703 97.8043V96.3743C72.9703 96.1625 72.925 96.0079 72.8343 95.9105C72.7436 95.8131 72.6278 95.7644 72.4867 95.7644C72.3558 95.7644 72.2441 95.8131 72.1518 95.9105C72.0594 96.0079 72.0133 96.1625 72.0133 96.3743V97.8043C72.0133 97.8385 72.0023 97.8675 71.9805 97.8915C71.9587 97.9154 71.9293 97.9273 71.8924 97.9273H71.4642C71.4306 97.9273 71.4021 97.9154 71.3786 97.8915ZM76.2494 97.8607C76.0781 97.7821 75.9514 97.6907 75.8691 97.5865C75.7868 97.4823 75.7457 97.3926 75.7457 97.3174C75.7457 97.2832 75.7566 97.2559 75.7784 97.2354C75.8003 97.2149 75.8263 97.2047 75.8565 97.2047H76.2696C76.2964 97.2047 76.3199 97.2183 76.3401 97.2457C76.3569 97.2593 76.3946 97.2918 76.4534 97.343C76.5122 97.3943 76.5793 97.4344 76.6549 97.4635C76.7304 97.4925 76.8136 97.507 76.9042 97.507C77.0385 97.507 77.1477 97.4806 77.2316 97.4276C77.3156 97.3746 77.3576 97.2986 77.3576 97.1995C77.3576 97.1312 77.3382 97.0757 77.2996 97.033C77.261 96.9902 77.1922 96.9509 77.0931 96.9151C76.994 96.8792 76.8455 96.839 76.6473 96.7946C76.3619 96.7331 76.1512 96.6392 76.0152 96.5127C75.8792 96.3863 75.8112 96.2189 75.8112 96.0104C75.8112 95.8737 75.8515 95.7448 75.9321 95.6235C76.0127 95.5022 76.1327 95.4031 76.2922 95.3262C76.4517 95.2493 76.6423 95.2109 76.8639 95.2109C77.0923 95.2109 77.2887 95.2476 77.4533 95.3211C77.6178 95.3945 77.7429 95.4825 77.8285 95.585C77.9141 95.6875 77.957 95.7781 77.957 95.8567C77.957 95.8874 77.946 95.9139 77.9242 95.9361C77.9024 95.9583 77.8764 95.9694 77.8462 95.9694H77.4684C77.4314 95.9694 77.4029 95.9558 77.3827 95.9284C77.3592 95.9113 77.3215 95.8797 77.2694 95.8336C77.2174 95.7875 77.1594 95.7507 77.0956 95.7234C77.0318 95.6961 76.9546 95.6824 76.8639 95.6824C76.7397 95.6824 76.644 95.7097 76.5768 95.7644C76.5097 95.8191 76.4761 95.8908 76.4761 95.9797C76.4761 96.0412 76.492 96.0924 76.5239 96.1334C76.5558 96.1744 76.6205 96.2129 76.7179 96.2488C76.8152 96.2846 76.9613 96.3214 77.1561 96.359C77.7605 96.4786 78.0627 96.7468 78.0627 97.1637C78.0627 97.4063 77.9595 97.6027 77.753 97.7531C77.5464 97.9034 77.2585 97.9786 76.8891 97.9786C76.6339 97.9786 76.4207 97.9393 76.2494 97.8607ZM78.5816 97.8915C78.5581 97.8675 78.5463 97.8385 78.5463 97.8043V97.2867C78.5463 97.2525 78.5581 97.2234 78.5816 97.1995C78.6051 97.1756 78.6336 97.1637 78.6672 97.1637H79.1759C79.2095 97.1637 79.2381 97.1756 79.2616 97.1995C79.2851 97.2234 79.2968 97.2525 79.2968 97.2867V97.8043C79.2968 97.8385 79.2859 97.8675 79.2641 97.8915C79.2422 97.9154 79.2129 97.9273 79.1759 97.9273H78.6672C78.6336 97.9273 78.6051 97.9154 78.5816 97.8915ZM80.1207 97.6659C79.9007 97.4575 79.784 97.1688 79.7706 96.7997L79.7656 96.5947L79.7706 96.3897C79.784 96.0207 79.9007 95.7319 80.1207 95.5235C80.3406 95.3151 80.6353 95.2109 81.0047 95.2109C81.27 95.2109 81.4941 95.2587 81.6771 95.3544C81.8601 95.45 81.9961 95.5671 82.0851 95.7055C82.1741 95.8439 82.222 95.9763 82.2287 96.1027C82.232 96.1369 82.2211 96.1659 82.1959 96.1898C82.1707 96.2137 82.1414 96.2257 82.1078 96.2257H81.6595C81.6226 96.2257 81.5957 96.218 81.5789 96.2026C81.5621 96.1873 81.5453 96.1591 81.5285 96.1181C81.4782 95.9882 81.4118 95.8943 81.3296 95.8362C81.2473 95.7781 81.1424 95.749 81.0147 95.749C80.8435 95.749 80.71 95.8037 80.6143 95.913C80.5186 96.0224 80.4674 96.1898 80.4607 96.4153L80.4556 96.605L80.4607 96.7741C80.4808 97.2183 80.6655 97.4404 81.0147 97.4404C81.1457 97.4404 81.2515 97.4122 81.3321 97.3559C81.4127 97.2995 81.4782 97.2047 81.5285 97.0714C81.542 97.0338 81.5579 97.0065 81.5764 96.9894C81.5948 96.9723 81.6226 96.9638 81.6595 96.9638H82.1078C82.1414 96.9638 82.1707 96.9757 82.1959 96.9996C82.2211 97.0236 82.232 97.0526 82.2287 97.0868C82.222 97.2064 82.1749 97.3354 82.0876 97.4737C82.0003 97.6121 81.866 97.7309 81.6847 97.83C81.5033 97.929 81.2767 97.9786 81.0047 97.9786C80.6353 97.9786 80.3406 97.8744 80.1207 97.6659ZM82.9993 97.6711C82.7844 97.466 82.6686 97.1824 82.6518 96.8202L82.6467 96.5947L82.6518 96.3692C82.6686 96.0104 82.7861 95.7277 83.0044 95.5209C83.2226 95.3142 83.5265 95.2109 83.9161 95.2109C84.3023 95.2109 84.6045 95.3142 84.8227 95.5209C85.041 95.7277 85.1585 96.0104 85.1753 96.3692C85.1787 96.4102 85.1804 96.4854 85.1804 96.5947C85.1804 96.7041 85.1787 96.7792 85.1753 96.8202C85.1585 97.1824 85.0427 97.466 84.8278 97.6711C84.6129 97.8761 84.309 97.9786 83.9161 97.9786C83.5198 97.9786 83.2143 97.8761 82.9993 97.6711ZM84.3266 97.2918C84.4223 97.179 84.4735 97.0133 84.4802 96.7946C84.4836 96.7604 84.4853 96.6938 84.4853 96.5947C84.4853 96.4956 84.4836 96.429 84.4802 96.3948C84.4735 96.1762 84.4215 96.0096 84.3241 95.8951C84.2267 95.7806 84.0907 95.7234 83.9161 95.7234C83.7381 95.7234 83.6004 95.7806 83.503 95.8951C83.4057 96.0096 83.3536 96.1762 83.3469 96.3948L83.3419 96.5947L83.3469 96.7946C83.3536 97.0133 83.4057 97.179 83.503 97.2918C83.6004 97.4045 83.7381 97.4609 83.9161 97.4609C84.0941 97.4609 84.2309 97.4045 84.3266 97.2918Z" fill="black"/>
<path fill-rule="evenodd" clip-rule="evenodd" d="M93.172 26.995L94.0629 28.8299L96.0561 29.1241L94.6141 30.5517L94.9543 32.5684L93.172 31.6169L91.3897 32.5684L91.73 30.5517L90.2885 29.1241L92.2811 28.8299L93.172 26.995ZM44.1766 26.995L43.2857 28.8299L41.293 29.1241L42.7345 30.5517L42.3942 32.5684L44.1766 31.6169L45.9589 32.5684L45.6186 30.5517L47.0606 29.1241L45.0674 28.8299L44.1766 26.995ZM85.5087 17.7964L86.9942 20.8541L90.3155 21.3447L87.9121 23.725L88.4798 27.0854L85.5087 25.4989L82.5382 27.0854L83.1058 23.725L80.7024 21.3447L84.0237 20.8541L85.5087 17.7964ZM51.8399 17.7964L50.3544 20.8541L47.0331 21.3447L49.4365 23.725L48.8688 27.0854L51.8399 25.4989L54.8104 27.0854L54.2428 23.725L56.6462 21.3447L53.3249 20.8541L51.8399 17.7964ZM68.6743 10.9185L71.1498 16.0147L76.6856 16.832L72.6794 20.7988L73.6254 26.4007L68.6743 23.7558L63.7232 26.4007L64.6692 20.7988L60.663 16.832L66.1988 16.0147L68.6743 10.9185Z" fill="#F8B64C"/>
<path fill-rule="evenodd" clip-rule="evenodd" d="M68.6743 10.9185L71.1498 16.0147L76.6856 16.832L72.6794 20.7988L73.6253 26.4007L68.6743 23.7558L63.7232 26.4007L64.6692 20.7988L60.6629 16.832L66.1987 16.0147L68.6743 10.9185Z" fill="#FFA829"/>
<path fill-rule="evenodd" clip-rule="evenodd" d="M85.5087 17.7964L86.9942 20.8541L90.3155 21.3447L87.9121 23.725L88.4797 27.0854L85.5087 25.4989L82.5381 27.0854L83.1058 23.725L80.7024 21.3447L84.0237 20.8541L85.5087 17.7964Z" fill="#F8B64C"/>
<path fill-rule="evenodd" clip-rule="evenodd" d="M93.172 26.9949L94.0629 28.8297L96.0561 29.124L94.614 30.5516L94.9543 32.5683L93.172 31.6167L91.3897 32.5683L91.73 30.5516L90.2885 29.124L92.2811 28.8297L93.172 26.9949Z" fill="#FFD15C"/>
<path fill-rule="evenodd" clip-rule="evenodd" d="M51.8399 17.7964L50.3543 20.8541L47.0331 21.3447L49.4365 23.725L48.8688 27.0854L51.8399 25.4989L54.8104 27.0854L54.2427 23.725L56.6461 21.3447L53.3249 20.8541L51.8399 17.7964Z" fill="#F8B64C"/>
<path fill-rule="evenodd" clip-rule="evenodd" d="M44.1766 26.9949L43.2857 28.8297L41.293 29.124L42.7345 30.5516L42.3942 32.5683L44.1766 31.6167L45.9589 32.5683L45.6186 30.5516L47.0606 29.124L45.0674 28.8297L44.1766 26.9949Z" fill="#FFD15C"/>
<path fill-rule="evenodd" clip-rule="evenodd" d="M0 74.2988H15.2827V98.052H0L4.90536 86.8979L0 74.2988ZM135.845 74.2988H120.562V98.052H135.845L130.939 86.8979L135.845 74.2988Z" fill="#2C72C6"/>
<path fill-rule="evenodd" clip-rule="evenodd" d="M7.70946 66.1503L15.4526 74.6113V98.0496L7.70946 90.1831V66.1503ZM128.292 66.145L120.562 74.2595V98.0127L128.292 90.2009V66.145Z" fill="#3D597A"/>
<path fill-rule="evenodd" clip-rule="evenodd" d="M7.55556 90.0548H128.147L128.134 65.9963H7.55556V90.0548Z" fill="#4385F4"/>
<path fill-rule="evenodd" clip-rule="evenodd" d="M42.1676 76.0272H41.1153V71.794H39.6449V70.9111H43.6414V71.794H42.1676V76.0272ZM46.4916 70.8225C47.9793 70.8225 48.9166 71.84 48.9166 73.4709C48.9166 75.0983 47.9793 76.1158 46.4916 76.1158C45.0003 76.1158 44.0665 75.0983 44.0665 73.4709C44.0665 71.84 45.0003 70.8225 46.4916 70.8225ZM46.4916 71.716C45.6693 71.716 45.1397 72.3967 45.1397 73.4709C45.1397 74.5417 45.6658 75.2188 46.4916 75.2188C47.3138 75.2188 47.84 74.5417 47.84 73.4709C47.84 72.3967 47.3138 71.716 46.4916 71.716ZM49.5926 70.9111H51.6901C52.7214 70.9111 53.4322 71.6096 53.4322 72.6626C53.4322 73.712 52.6971 74.414 51.6378 74.414H50.6448V76.0272H49.5926V70.9111ZM50.6448 71.7585V73.5773H51.4079C52.0107 73.5773 52.3626 73.2511 52.3626 72.6661C52.3626 72.0847 52.0141 71.7585 51.4114 71.7585H50.6448ZM60.9095 70.9111V76.0272H59.9722V72.5739H59.9444L58.5785 75.9776H57.9165L56.5507 72.5739H56.5228V76.0272H55.5855V70.9111H56.805L58.2336 74.5381H58.2614L59.69 70.9111H60.9095ZM64.014 70.8225C65.5018 70.8225 66.439 71.84 66.439 73.4709C66.439 75.0983 65.5018 76.1158 64.014 76.1158C62.5227 76.1158 61.5889 75.0983 61.5889 73.4709C61.5889 71.84 62.5227 70.8225 64.014 70.8225ZM64.014 71.716C63.1917 71.716 62.6621 72.3967 62.6621 73.4709C62.6621 74.5417 63.1882 75.2188 64.014 75.2188C64.8363 75.2188 65.3624 74.5417 65.3624 73.4709C65.3624 72.3967 64.8363 71.716 64.014 71.716ZM69.3728 76.0272H67.115V70.9111H69.3345C70.2787 70.9111 70.8711 71.404 70.8711 72.1875C70.8711 72.7477 70.4599 73.2157 69.9268 73.2972V73.3256C70.6097 73.3788 71.1115 73.8858 71.1115 74.5629C71.1115 75.4635 70.446 76.0272 69.3728 76.0272ZM68.1673 71.7089V73.0384H68.9547C69.5157 73.0384 69.8362 72.7867 69.8362 72.3541C69.8362 71.9429 69.554 71.7089 69.0627 71.7089H68.1673ZM68.1673 75.2295H69.1045C69.7108 75.2295 70.0383 74.9671 70.0383 74.4778C70.0383 73.9992 69.7003 73.7439 69.0801 73.7439H68.1673V75.2295ZM72.763 76.0272H71.7108V70.9111H72.763V76.0272ZM76.8501 75.1408V76.0272H73.5992V70.9111H74.6515V75.1408H76.8501ZM80.8047 75.1408V76.0272H77.4738V70.9111H80.8047V71.794H78.526V73.0278H80.6758V73.8503H78.526V75.1408H80.8047ZM86.39 76.0272L86.0068 74.7863H84.2402L83.857 76.0272H82.7768L84.5225 70.9111H85.7594L87.5085 76.0272H86.39ZM85.1113 71.8897L84.4667 73.985H85.7803L85.1357 71.8897H85.1113ZM88.0207 70.9111H90.1182C91.1496 70.9111 91.8603 71.6096 91.8603 72.6626C91.8603 73.712 91.1252 74.414 90.0659 74.414H89.0729V76.0272H88.0207V70.9111ZM89.0729 71.7585V73.5773H89.836C90.4388 73.5773 90.7907 73.2511 90.7907 72.6661C90.7907 72.0847 90.4422 71.7585 89.8395 71.7585H89.0729ZM92.4805 70.9111H94.5781C95.6094 70.9111 96.3202 71.6096 96.3202 72.6626C96.3202 73.712 95.585 74.414 94.5258 74.414H93.5328V76.0272H92.4805V70.9111ZM93.5328 71.7585V73.5773H94.2959C94.8986 73.5773 95.2505 73.2511 95.2505 72.6661C95.2505 72.0847 94.9021 71.7585 94.2993 71.7585H93.5328ZM24.0267 79.4535H25.9639C27.4726 79.4535 28.3611 80.3683 28.3611 81.9921C28.3611 83.6159 27.4726 84.5696 25.9639 84.5696H24.0267V79.4535ZM25.0789 80.3363V83.6832H25.8385C26.7793 83.6832 27.288 83.1018 27.288 81.9956C27.288 80.9249 26.7653 80.3363 25.8385 80.3363H25.0789ZM32.368 83.6832V84.5696H29.0371V79.4535H32.368V80.3363H30.0893V81.5702H32.2391V82.3927H30.0893V83.6832H32.368ZM35.7652 84.5696H34.4969L32.8071 79.4535H33.9847L35.1346 83.467H35.1589L36.3088 79.4535H37.4551L35.7652 84.5696ZM41.2982 83.6832V84.5696H37.9673V79.4535H41.2982V80.3363H39.0195V81.5702H41.1693V82.3927H39.0195V83.6832H41.2982ZM45.3086 83.6832V84.5696H42.0578V79.4535H43.1101V83.6832H45.3086ZM48.2006 79.3649C49.6884 79.3649 50.6257 80.3824 50.6257 82.0133C50.6257 83.6407 49.6884 84.6582 48.2006 84.6582C46.7093 84.6582 45.7755 83.6407 45.7755 82.0133C45.7755 80.3824 46.7093 79.3649 48.2006 79.3649ZM48.2006 80.2583C47.3783 80.2583 46.8487 80.9391 46.8487 82.0133C46.8487 83.084 47.3748 83.7612 48.2006 83.7612C49.0229 83.7612 49.549 83.084 49.549 82.0133C49.549 80.9391 49.0229 80.2583 48.2006 80.2583ZM51.3016 79.4535H53.3991C54.4305 79.4535 55.1413 80.152 55.1413 81.205C55.1413 82.2544 54.4061 82.9564 53.3469 82.9564H52.3539V84.5696H51.3016V79.4535ZM52.3539 80.3009V82.1197H53.1169C53.7197 82.1197 54.0716 81.7935 54.0716 81.2085C54.0716 80.6271 53.7232 80.3009 53.1204 80.3009H52.3539ZM61.0855 79.4535V84.5696H60.1482V81.1163H60.1203L58.7545 84.5199H58.0925L56.7266 81.1163H56.6987V84.5696H55.7615V79.4535H56.981L58.4095 83.0805H58.4374L59.866 79.4535H61.0855ZM65.2527 83.6832V84.5696H61.9217V79.4535H65.2527V80.3363H62.9739V81.5702H65.1237V82.3927H62.9739V83.6832H65.2527ZM67.0192 84.5696H66.0122V79.4535H66.8903L69.2387 82.7862H69.2665V79.4535H70.2735V84.5696H69.4024L67.0505 81.2192H67.0192V84.5696ZM73.3815 84.5696H72.3292V80.3363H70.8589V79.4535H74.8553V80.3363H73.3815V84.5696ZM79.1932 84.6582C77.7299 84.6582 76.8135 83.662 76.8135 82.0098C76.8135 80.3612 77.7368 79.3649 79.1932 79.3649C80.4023 79.3649 81.3221 80.1449 81.4023 81.2901H80.3779C80.2803 80.6625 79.8065 80.2513 79.1932 80.2513C78.3988 80.2513 77.8866 80.9284 77.8866 82.0062C77.8866 83.0982 78.3919 83.7719 79.1967 83.7719C79.8204 83.7719 80.2699 83.3996 80.3814 82.7933H81.4058C81.2873 83.935 80.4267 84.6582 79.1932 84.6582ZM84.3221 79.3649C85.8099 79.3649 86.7472 80.3824 86.7472 82.0133C86.7472 83.6407 85.8099 84.6582 84.3221 84.6582C82.8308 84.6582 81.897 83.6407 81.897 82.0133C81.897 80.3824 82.8308 79.3649 84.3221 79.3649ZM84.3221 80.2583C83.4998 80.2583 82.9702 80.9391 82.9702 82.0133C82.9702 83.084 83.4963 83.7612 84.3221 83.7612C85.1444 83.7612 85.6705 83.084 85.6705 82.0133C85.6705 80.9391 85.1444 80.2583 84.3221 80.2583ZM92.7471 79.4535V84.5696H91.8098V81.1163H91.7819L90.4161 84.5199H89.7541L88.3883 81.1163H88.3604V84.5696H87.4231V79.4535H88.6426L90.0712 83.0805H90.099L91.5276 79.4535H92.7471ZM93.5833 79.4535H95.6809C96.7122 79.4535 97.423 80.152 97.423 81.205C97.423 82.2544 96.6878 82.9564 95.6286 82.9564H94.6356V84.5696H93.5833V79.4535ZM94.6356 80.3009V82.1197H95.3986C96.0014 82.1197 96.3533 81.7935 96.3533 81.2085C96.3533 80.6271 96.0049 80.3009 95.4021 80.3009H94.6356ZM101.336 84.5696L100.953 83.3287H99.186L98.8028 84.5696H97.7226L99.4683 79.4535H100.705L102.454 84.5696H101.336ZM100.057 80.4321L99.4125 82.5274H100.726L100.081 80.4321H100.057ZM103.973 84.5696H102.966V79.4535H103.845L106.193 82.7862H106.221V79.4535H107.228V84.5696H106.357L104.005 81.2192H103.973V84.5696ZM110.545 84.5696H109.493V82.6586L107.743 79.4535H108.89L110.015 81.6375H110.04L111.168 79.4535H112.297L110.545 82.6586V84.5696Z" fill="white"/>
</svg>
