<svg width="39" height="44" viewBox="0 0 39 44" fill="none" xmlns="http://www.w3.org/2000/svg">
<path d="M24.1429 11.8181H19.5844L13 29.5454H17.127L18.1962 26.5292H24.4242L23.2987 23.2212H19.1905L21.8543 15.5932L26.6003 29.5454H30.7273L24.1429 11.8181Z" fill="#333333"/>
<path d="M38.0591 34.2598C37.7455 34.2598 37.4688 34.4071 37.3027 34.6466C37.3027 34.6466 36.491 35.5676 36.0667 36.0096C34.2219 37.8515 32.0818 39.2882 29.702 40.3013C27.2299 41.3512 24.6102 41.8669 21.8983 41.8669C19.1864 41.8669 16.5667 41.3328 14.0946 40.3013C11.7148 39.2882 9.55629 37.8515 7.7299 36.0096C5.88505 34.1677 4.44607 32.0311 3.43141 29.655C2.37985 27.1868 1.86329 24.5713 1.86329 21.8636C1.86329 19.156 2.3983 16.5405 3.43141 14.0723C4.42763 11.6962 5.8666 9.54117 7.71145 7.71766C9.55629 5.87574 11.6963 4.43904 14.0762 3.42598C16.5483 2.37608 19.1679 1.86034 21.8798 1.86034C24.5918 1.86034 27.2114 2.3945 29.6835 3.42598C31.4177 4.16275 33.0227 5.12055 34.4801 6.29938C34.4063 6.52041 34.351 6.77828 34.351 7.03615C34.351 8.28866 35.3657 9.30172 36.6202 9.30172C37.8746 9.30172 38.8893 8.28866 38.8893 7.03615C38.8893 5.78364 37.8746 4.77058 36.6202 4.77058C36.3065 4.77058 36.0114 4.82584 35.7531 4.95478C31.9711 1.86034 27.1561 0 21.8798 0C9.79612 0 0 9.78062 0 21.8636C0 33.9467 9.79612 43.7273 21.8983 43.7273C28.6689 43.7273 34.7015 40.6697 38.7233 35.8438C38.8893 35.6781 39 35.4386 39 35.1992C38.9816 34.6834 38.5572 34.2598 38.0591 34.2598Z" fill="#333333"/>
</svg>
