<svg width="62" height="74" viewBox="0 0 62 74" fill="none" xmlns="http://www.w3.org/2000/svg">
<path opacity="0.7" d="M23.2572 69.694L18.8292 57.616C18.7752 57.472 18.6492 57.4 18.5052 57.4H17.6052C17.4612 57.4 17.3352 57.472 17.2812 57.616L12.8532 69.694C12.7812 69.874 12.8712 70 13.0692 70H13.9332C14.0772 70 14.1852 69.946 14.2392 69.784L15.2292 67.03H20.8812L21.8712 69.784C21.9252 69.946 22.0332 70 22.1772 70H23.0412C23.2392 70 23.3292 69.874 23.2572 69.694ZM15.6612 65.788L18.0552 59.11L20.4492 65.788H15.6612ZM39.9243 57.4H39.0603C38.9163 57.4 38.7903 57.454 38.7543 57.616L35.4063 68.29L31.7703 57.616C31.7343 57.526 31.6983 57.472 31.6443 57.436C31.6083 57.418 31.5543 57.4 31.4823 57.4H30.6723C30.5823 57.4 30.5283 57.418 30.4923 57.454C30.4383 57.49 30.4023 57.544 30.3843 57.616L26.7483 68.29L23.4363 57.616C23.3823 57.454 23.2743 57.4 23.1303 57.4H22.2663C22.0683 57.4 21.9783 57.526 22.0503 57.706L25.9383 69.784C25.9743 69.928 26.1183 70 26.2623 70H27.2163C27.3603 70 27.4863 69.928 27.5403 69.784L31.0863 59.506L34.6143 69.784C34.6503 69.928 34.7943 70 34.9383 70H35.8923C36.0363 70 36.1623 69.928 36.2163 69.784L40.1403 57.706C40.1943 57.526 40.1223 57.4 39.9243 57.4ZM42.4961 60.478C42.4961 59.236 43.5041 58.534 44.8001 58.534C45.8981 58.534 46.7081 59.002 47.5181 59.812C47.6441 59.938 47.7701 59.92 47.8961 59.794L48.3461 59.326C48.4721 59.182 48.4721 59.074 48.3641 58.948C47.4821 57.904 46.1501 57.256 44.8001 57.256C42.7301 57.256 41.1641 58.606 41.1641 60.46C41.1641 64.528 47.6081 63.646 47.6081 66.688C47.6081 67.93 46.5281 68.938 44.8721 68.938C43.5581 68.938 42.6221 68.272 41.9021 67.498C41.7761 67.372 41.6501 67.354 41.5241 67.462L41.0021 67.966C40.8761 68.074 40.8581 68.182 40.9481 68.326C41.7581 69.388 43.1441 70.234 44.8901 70.234C47.1581 70.234 48.9941 68.704 48.9941 66.76C48.9941 62.494 42.4961 63.448 42.4961 60.478Z" fill="black"/>
<g clip-path="url(#clip0)">
<path d="M17.9475 13.2048C17.9475 13.948 18.0306 14.5636 18.1731 15.0049C18.3393 15.4462 18.5411 15.934 18.838 16.4566C18.9448 16.6192 18.9804 16.7818 18.9804 16.9211C18.9804 17.1186 18.8617 17.3276 18.5886 17.5251L17.2826 18.3729C17.0927 18.489 16.9146 18.5587 16.7484 18.5587C16.5466 18.5587 16.3328 18.4542 16.131 18.28C15.8461 17.978 15.5968 17.6528 15.383 17.3276C15.1812 16.9792 14.9675 16.596 14.7419 16.1314C13.1273 17.9896 11.1089 18.9187 8.66319 18.9187C6.92981 18.9187 5.54072 18.4309 4.53156 17.467C3.52239 16.4914 3 15.2023 3 13.588C3 11.8692 3.61737 10.4755 4.87586 9.4187C6.13435 8.36186 7.80837 7.83924 9.93356 7.83924C10.634 7.83924 11.3583 7.89731 12.13 8.00183C12.8898 8.10636 13.6853 8.26895 14.5045 8.44315V6.96821C14.5045 5.43521 14.172 4.35513 13.5309 3.73961C12.8661 3.11247 11.7501 2.81051 10.1591 2.81051C9.43491 2.81051 8.68694 2.89181 7.9271 3.07763C7.16726 3.26345 6.43116 3.47249 5.70694 3.76284C5.38638 3.9022 5.13705 3.9835 4.98271 4.01834C4.84024 4.06479 4.74526 4.08802 4.66215 4.08802C4.37721 4.08802 4.22287 3.89059 4.22287 3.46088V2.4621C4.22287 2.13692 4.25849 1.89303 4.36534 1.75367C4.47219 1.6143 4.66215 1.47494 4.94709 1.33557C5.67132 0.97555 6.53801 0.673594 7.54718 0.429707C8.55634 0.162592 9.63674 0.0464548 10.7765 0.0464548C13.2341 0.0464548 15.0387 0.592298 16.1904 1.68399C17.3301 2.77567 17.9 4.43643 17.9 6.65465V13.2048H17.9475ZM9.55363 16.2708C10.2304 16.2708 10.9427 16.1546 11.6788 15.9108C12.4149 15.6669 13.0798 15.2256 13.6378 14.6216C13.9702 14.2384 14.2195 13.8087 14.3383 13.3325C14.457 12.8447 14.5401 12.2641 14.5401 11.5789V10.7194C13.9465 10.5801 13.3054 10.4523 12.6405 10.371C11.9756 10.2897 11.3345 10.2549 10.6934 10.2549C9.30431 10.2549 8.29515 10.522 7.61841 11.0678C6.94168 11.6137 6.60925 12.3802 6.60925 13.3906C6.60925 14.3429 6.85857 15.0513 7.36909 15.5391C7.87961 16.0269 8.60383 16.2708 9.55363 16.2708ZM26.1514 18.4542C25.7834 18.4542 25.5341 18.3961 25.3678 18.2567C25.2016 18.1406 25.0592 17.8502 24.9286 17.467L20.0727 1.83496C19.954 1.42848 19.8827 1.17298 19.8827 1.022C19.8827 0.696822 20.0489 0.511002 20.3814 0.511002H22.4116C22.8034 0.511002 23.0764 0.569071 23.2189 0.708435C23.3851 0.824572 23.5039 1.11491 23.6345 1.49817L27.1012 14.8771L30.3306 1.49817C30.4374 1.09169 30.5561 0.836186 30.7223 0.708435C30.8886 0.592298 31.1735 0.511002 31.5534 0.511002H33.2037C33.5955 0.511002 33.8686 0.569071 34.0348 0.708435C34.201 0.824572 34.3435 1.11491 34.4266 1.49817L37.6915 15.0397L41.2652 1.49817C41.3839 1.09169 41.5382 0.836186 41.6807 0.708435C41.8469 0.592298 42.12 0.511002 42.488 0.511002H44.4114C44.7438 0.511002 44.9338 0.673594 44.9338 1.022C44.9338 1.12653 44.91 1.21944 44.8981 1.34719C44.8744 1.46333 44.8388 1.62592 44.7557 1.85819L39.7811 17.4786C39.6624 17.8851 39.508 18.1406 39.3418 18.2683C39.1756 18.3845 38.9025 18.4658 38.5582 18.4658H36.7773C36.3855 18.4658 36.1125 18.4077 35.9463 18.2683C35.78 18.129 35.6376 17.8619 35.5545 17.4554L32.3489 4.4132L29.167 17.4322C29.0602 17.8386 28.9415 18.0941 28.7753 18.2451C28.609 18.3845 28.3241 18.4425 27.9442 18.4425H26.1514V18.4542ZM52.6984 19C51.618 19 50.5495 18.8839 49.5166 18.64C48.4837 18.3961 47.6763 18.129 47.1421 17.827C46.8096 17.6412 46.584 17.4438 46.5009 17.2579C46.4178 17.0721 46.3822 16.8747 46.3822 16.6889V15.6553C46.3822 15.2255 46.5484 15.0281 46.8571 15.0281C46.9758 15.0281 47.1064 15.0513 47.2252 15.0862C47.3439 15.121 47.5338 15.2023 47.7476 15.2836C48.448 15.5856 49.2197 15.8295 50.0152 15.9921C50.8463 16.1546 51.6536 16.2359 52.4728 16.2359C53.7788 16.2359 54.788 16.0153 55.4884 15.574C56.1889 15.1326 56.5688 14.4823 56.5688 13.6577C56.5688 13.0886 56.3789 12.6241 56.0108 12.2408C55.6428 11.8576 54.9304 11.5092 53.9213 11.184L50.9294 10.2781C49.4216 9.81357 48.3056 9.12836 47.6288 8.21088C46.9521 7.31663 46.5959 6.32946 46.5959 5.28423C46.5959 4.43643 46.7859 3.68154 47.1539 3.04279C47.522 2.39242 48.0206 1.83496 48.638 1.38203C49.2554 0.917482 49.9558 0.569071 50.7869 0.325183C51.6061 0.104523 52.4728 0 53.387 0C53.8382 0 54.3131 0.0232274 54.7761 0.0812958C55.251 0.139364 55.6903 0.22066 56.1177 0.301956C56.5332 0.406479 56.925 0.499389 57.2931 0.627139C57.6611 0.743276 57.9579 0.871027 58.1598 0.987164C58.4447 1.14976 58.6584 1.31235 58.7771 1.49817C58.8959 1.66076 58.9671 1.88142 58.9671 2.16015V3.11247C58.9671 3.54218 58.8009 3.76284 58.4922 3.76284C58.326 3.76284 58.0529 3.68154 57.7086 3.51895C56.5332 2.99633 55.2035 2.72922 53.7432 2.72922C52.5678 2.72922 51.6299 2.91504 51.0006 3.29829C50.3595 3.68154 50.0271 4.27384 50.0271 5.09841C50.0271 5.66748 50.2289 6.15526 50.6445 6.53851C51.06 6.92176 51.8198 7.30501 52.9121 7.65342L55.8446 8.55929C57.3287 9.02384 58.4091 9.67421 59.0502 10.4988C59.6913 11.3233 60 12.2757 60 13.3325C60 14.2035 59.81 14.9933 59.4657 15.6785C59.0977 16.3637 58.599 16.9676 57.9579 17.4554C57.3168 17.9664 56.557 18.3264 55.6665 18.5819C54.7286 18.8606 53.7551 19 52.6984 19Z" fill="#252F3E"/>
<path fill-rule="evenodd" clip-rule="evenodd" d="M56.0417 29.3399C49.2542 34.3392 39.3986 36.9867 30.929 36.9867C19.0478 36.9867 8.35118 32.6019 0.272464 25.3215C-0.3672 24.7423 0.213236 23.9623 0.971357 24.4114C9.71343 29.4699 20.493 32.5428 31.6515 32.5428C39.1735 32.5428 47.4418 30.9827 55.0585 27.768C56.1957 27.2598 57.1552 28.5125 56.0417 29.3399Z" fill="#FF9900"/>
<path fill-rule="evenodd" clip-rule="evenodd" d="M58.8728 26.137C58.0081 25.026 53.1396 25.6051 50.9363 25.8651C50.2729 25.9479 50.1782 25.3687 50.7704 24.9433C54.644 22.2249 61.0169 23.005 61.7632 23.915C62.5095 24.8369 61.5618 31.1954 57.9252 34.2447C57.3685 34.7174 56.8354 34.4692 57.0842 33.8547C57.9015 31.81 59.7376 27.2243 58.8728 26.137Z" fill="#FF9900"/>
</g>
<defs>
<clipPath id="clip0">
<rect width="62" height="37" fill="white"/>
</clipPath>
</defs>
</svg>
