<svg width="71" height="89" viewBox="0 0 71 89" fill="none" xmlns="http://www.w3.org/2000/svg">
<path opacity="0.7" d="M12.6006 77.7842H7.29055C7.12855 77.7842 7.02056 77.8922 7.02056 78.0542V78.8102C7.02056 78.9722 7.12855 79.0802 7.29055 79.0802H11.5386C11.4666 81.4922 9.63056 83.1482 7.09255 83.1482C4.32055 83.1482 2.16055 80.9342 2.16055 77.9822C2.16055 75.1022 4.37455 72.9062 7.07456 72.9062C8.40656 72.9062 9.48656 73.4102 10.4046 74.1842C10.5306 74.2922 10.6566 74.3102 10.7826 74.1842L11.3406 73.6262C11.4666 73.5002 11.4486 73.3562 11.3226 73.2482C10.1706 72.2582 8.74855 71.5382 7.07456 71.5382C3.51055 71.5382 0.738555 74.4182 0.738555 77.9822C0.738555 81.6182 3.45655 84.5162 7.09255 84.5162C10.6746 84.5162 12.8706 81.9782 12.8706 78.6302V78.0542C12.8706 77.8922 12.7626 77.7842 12.6006 77.7842ZM18.973 75.5522C18.721 75.3722 18.343 75.2642 17.911 75.2642C16.957 75.2642 16.219 75.7682 15.733 76.5062L15.661 75.7322C15.643 75.5702 15.553 75.4622 15.391 75.4622H14.671C14.509 75.4622 14.401 75.5702 14.401 75.7322V84.0122C14.401 84.1742 14.509 84.2822 14.671 84.2822H15.481C15.643 84.2822 15.751 84.1742 15.751 84.0122V78.4682C15.751 77.3342 16.615 76.5062 17.713 76.5062C18.073 76.5062 18.253 76.5602 18.415 76.5962C18.577 76.6322 18.667 76.6142 18.739 76.4702L19.027 75.8402C19.099 75.6962 19.081 75.6242 18.973 75.5522ZM27.7602 75.4622H27.0222C26.8602 75.4622 26.7702 75.5702 26.7522 75.7322L26.6802 76.8662C25.9962 75.9122 24.9342 75.2822 23.5662 75.2822C21.0462 75.2822 19.2462 77.3162 19.2462 79.8902C19.2462 82.4642 21.0462 84.4982 23.5662 84.4982C24.9342 84.4982 25.9782 83.8682 26.6802 82.9322L26.7522 84.0122C26.7702 84.1742 26.8602 84.2822 27.0222 84.2822H27.7602C27.9222 84.2822 28.0302 84.1742 28.0302 84.0122V75.7322C28.0302 75.5702 27.9222 75.4622 27.7602 75.4622ZM23.6742 83.2742C21.8742 83.2742 20.5422 81.8162 20.5422 79.8722C20.5422 77.9462 21.8742 76.5062 23.6742 76.5062C25.4742 76.5062 26.7882 78.0362 26.7882 79.8722C26.7882 81.7262 25.4742 83.2742 23.6742 83.2742ZM34.2986 75.2822C32.9306 75.2822 31.8686 75.9122 31.1846 76.8662L31.1126 75.7322C31.0946 75.5702 31.0046 75.4622 30.8426 75.4622H30.1046C29.9426 75.4622 29.8346 75.5702 29.8346 75.7322V87.4322C29.8346 87.5942 29.9426 87.7022 30.1046 87.7022H30.9146C31.0766 87.7022 31.1846 87.5942 31.1846 87.4322V82.9322C31.8866 83.8682 32.9306 84.4982 34.2986 84.4982C36.8186 84.4982 38.6186 82.4642 38.6186 79.8902C38.6186 77.3162 36.8186 75.2822 34.2986 75.2822ZM34.1906 83.2742C32.3906 83.2742 31.0766 81.7262 31.0766 79.8722C31.0766 78.0362 32.3906 76.5062 34.1906 76.5062C35.9906 76.5062 37.3226 77.9462 37.3226 79.8722C37.3226 81.8162 35.9906 83.2742 34.1906 83.2742ZM44.4909 75.2642C43.1409 75.2642 42.1509 76.0202 41.5029 76.9742V71.4122C41.5029 71.2502 41.3949 71.1422 41.2329 71.1422H40.4229C40.2609 71.1422 40.1529 71.2502 40.1529 71.4122V84.0122C40.1529 84.1742 40.2609 84.2822 40.4229 84.2822H41.2329C41.3949 84.2822 41.5029 84.1742 41.5029 84.0122V78.5582C41.5029 78.1982 42.4569 76.4702 44.2029 76.4702C45.4629 76.4702 46.2369 77.2982 46.2369 78.8642V84.0122C46.2369 84.1742 46.3449 84.2822 46.5069 84.2822H47.3169C47.4789 84.2822 47.5869 84.1742 47.5869 84.0122V78.7742C47.5869 76.4162 46.3449 75.2642 44.4909 75.2642ZM60.6134 82.1582C61.5314 81.0422 62.0714 79.6022 62.0714 78.0362C62.0714 74.4182 59.1914 71.5382 55.6454 71.5382C52.0814 71.5382 49.2014 74.4182 49.2014 78.0362C49.2014 81.6362 52.0814 84.5162 55.6454 84.5162C57.1574 84.5162 58.5614 83.9942 59.6594 83.0942L61.0274 84.4622C61.1714 84.6062 61.2974 84.5882 61.4234 84.4622L61.9814 83.9042C62.0894 83.7962 62.1074 83.6522 61.9814 83.5262L60.6134 82.1582ZM55.6454 83.2022C52.8014 83.2022 50.5694 80.9162 50.5694 78.0362C50.5694 75.1382 52.8014 72.8522 55.6454 72.8522C58.4714 72.8522 60.7034 75.1382 60.7034 78.0362C60.7034 79.2422 60.3074 80.3402 59.6594 81.2042L57.9674 79.5302C57.8414 79.4042 57.7154 79.4042 57.5894 79.5302L57.0314 80.0882C56.9414 80.1782 56.9054 80.3402 57.0314 80.4662L58.7234 82.1582C57.8774 82.8062 56.8154 83.2022 55.6454 83.2022ZM69.99 82.9862H65.274V71.9522C65.274 71.7902 65.166 71.6822 65.004 71.6822H64.14C63.978 71.6822 63.87 71.7902 63.87 71.9522V84.0122C63.87 84.1742 63.978 84.2822 64.14 84.2822H69.99C70.152 84.2822 70.26 84.1742 70.26 84.0122V83.2562C70.26 83.0942 70.152 82.9862 69.99 82.9862Z" fill="black"/>
<path d="M37.8276 25.4005C41.4893 27.5391 44.9818 29.5392 48.4281 31.6316C49.5205 32.2932 50.4129 32.7394 51.6129 31.7701C52.136 31.3393 52.4437 31.0931 52.4283 30.4008C52.3976 27.3545 52.3668 24.3082 52.4283 21.2619C52.4591 20.1234 52.413 19.2002 51.0898 18.831C50.659 18.7079 50.3975 18.1848 49.7821 18.5387C45.8896 20.7849 41.9509 23.0312 37.8276 25.4005ZM34.5506 23.4928C34.5506 18.7387 34.5506 14.1692 34.5506 9.59979C34.5506 8.58436 33.4274 8.89207 32.9812 8.35358C32.5966 7.87663 32.1504 7.89201 31.5966 8.23049C29.0734 9.73826 26.5502 11.2153 23.9808 12.6307C22.7807 13.2923 21.6884 13.8461 22.073 15.5539C22.1653 15.9386 22.1346 16.2309 22.5192 16.4617C26.4733 18.7695 30.4119 21.0773 34.5506 23.4928ZM34.5506 27.3237C34.0275 27.6006 33.6582 27.7853 33.3044 27.9853C30.1658 29.7854 27.0425 31.5855 23.9039 33.3702C22.8269 33.9856 21.7346 34.401 22.073 36.0934C22.2115 36.7857 22.2423 37.2165 22.8731 37.5703C25.3655 38.9704 27.858 40.3551 30.2734 41.8475C31.5043 42.6014 32.5659 43.1706 33.8736 41.9859C34.2121 41.6782 34.5506 41.5552 34.5506 40.9859C34.5506 36.5088 34.5506 32.0162 34.5506 27.3237ZM33.5197 25.3852C29.3965 22.985 25.4578 20.6926 21.5345 18.3848C21.1345 18.154 20.8576 18.2002 20.5191 18.4771C20.2268 18.7233 19.9191 18.9849 19.5652 19.0926C18.8421 19.308 18.7191 19.7541 18.7344 20.4465C18.7806 23.2928 18.8267 26.1544 18.719 29.0007C18.6575 30.4931 18.7806 31.6932 20.4268 32.2778C20.796 32.4163 21.0269 32.5855 21.4269 32.3547C25.3963 30.0469 29.3811 27.7699 33.5197 25.3852ZM36.6891 23.5697C40.2739 21.508 43.6433 19.5849 46.9973 17.6617C48.182 16.9848 49.5667 16.5694 49.0743 14.6308C48.9359 14.1077 48.982 13.6923 48.4435 13.3846C45.4742 11.6922 42.5202 9.96904 39.5508 8.26126C38.5969 7.70739 36.6891 8.79976 36.6737 9.87673C36.6583 12.923 36.6737 15.9693 36.6737 19.0156V23.5697H36.6891ZM36.6891 34.4471C36.6891 36.5395 36.6891 38.6319 36.6891 40.7243C36.6891 42.0475 38.6738 43.2322 39.8123 42.5706C42.3509 41.109 44.8741 39.6166 47.4281 38.1858C48.4743 37.6011 49.5513 37.1396 48.9974 35.6164L49.0282 35.2779C49.2744 34.7087 49.0436 34.401 48.5358 34.1086C44.8434 31.9855 41.1663 29.8315 37.4892 27.6776C36.8276 27.2775 36.6737 27.4314 36.6737 28.1545C36.7045 30.2469 36.6891 32.3393 36.6891 34.4471ZM40.0431 45.6938C40.1354 48.5093 38.2123 50.6017 35.6275 50.6325C33.012 50.6633 30.9812 48.5555 31.135 45.8015C31.1812 44.9707 30.8889 44.5861 30.2273 44.2168C27.381 42.6167 24.5501 40.9705 21.7192 39.3089C21.1499 38.9704 20.7807 39.0012 20.2114 39.4012C18.1036 40.9244 15.1343 40.2936 13.8265 38.1242C12.4572 35.8472 13.2265 32.9394 15.6112 31.7701C16.3497 31.4008 16.5651 31.0162 16.5651 30.2315C16.5189 27.0314 16.5189 23.8312 16.5651 20.6311C16.5805 19.8157 16.3805 19.3849 15.5958 19.0002C13.2111 17.8309 12.4726 14.9231 13.8419 12.6461C15.1342 10.4768 18.1036 9.86134 20.2268 11.3845C20.7807 11.7845 21.1653 11.7999 21.7346 11.4768C24.5808 9.7998 27.4579 8.13819 30.335 6.52272C30.9965 6.15348 31.1658 5.73807 31.135 4.98419C30.9966 2.30714 32.9505 0.214731 35.5352 0.168575C38.1199 0.122419 40.1816 2.27637 40.0124 4.99957C39.9662 5.76884 40.197 6.15348 40.8432 6.52272C43.7202 8.15357 46.5973 9.81518 49.4436 11.4768C49.9513 11.7845 50.3051 11.8307 50.859 11.4306C52.9514 9.86134 56.0131 10.4921 57.3363 12.6922C58.721 15 57.8747 17.9233 55.3977 19.0618C54.7054 19.3849 54.5669 19.7695 54.5823 20.4465C54.613 23.7235 54.613 27.0006 54.5823 30.2777C54.5823 31.0162 54.7515 31.3854 55.4746 31.7393C57.967 32.9547 58.7209 35.9087 57.2286 38.2473C55.8593 40.4013 52.7976 40.8936 50.7205 39.232C50.1821 38.8012 49.859 38.8627 49.3513 39.1704C46.5973 40.8013 43.8433 42.4014 41.0432 43.9707C40.2585 44.4168 39.6739 44.8168 40.0431 45.6938Z" fill="#D44899"/>
</svg>
