<svg width="79" height="81" viewBox="0 0 79 81" fill="none" xmlns="http://www.w3.org/2000/svg">
<path opacity="0.7" d="M1.32805 74.5121L0.860047 75.0701C0.752047 75.1961 0.770047 75.3221 0.878047 75.4481C1.47205 76.1321 2.48005 76.6001 3.81205 76.6001C6.17005 76.6001 7.68205 75.1961 7.68205 71.9021V64.1081C7.68205 63.9461 7.57405 63.8381 7.41205 63.8381H6.54805C6.38605 63.8381 6.27805 63.9461 6.27805 64.1081V71.8481C6.27805 74.2061 5.32405 75.2861 3.79405 75.2861C2.82205 75.2861 2.21005 74.9261 1.72405 74.5121C1.58005 74.3861 1.43605 74.3861 1.32805 74.5121ZM17.8999 67.6181H17.1619C16.9999 67.6181 16.9099 67.7261 16.8919 67.8881L16.8199 69.0221C16.1359 68.0681 15.0739 67.4381 13.7059 67.4381C11.1859 67.4381 9.38586 69.4721 9.38586 72.0461C9.38586 74.6201 11.1859 76.6541 13.7059 76.6541C15.0739 76.6541 16.1179 76.0241 16.8199 75.0881L16.8919 76.1681C16.9099 76.3301 16.9999 76.4381 17.1619 76.4381H17.8999C18.0619 76.4381 18.1699 76.3301 18.1699 76.1681V67.8881C18.1699 67.7261 18.0619 67.6181 17.8999 67.6181ZM13.8139 75.4301C12.0139 75.4301 10.6819 73.9721 10.6819 72.0281C10.6819 70.1021 12.0139 68.6621 13.8139 68.6621C15.6139 68.6621 16.9279 70.1921 16.9279 72.0281C16.9279 73.8821 15.6139 75.4301 13.8139 75.4301ZM26.3282 67.8341L23.6282 74.9081L20.9282 67.8341C20.8742 67.6901 20.7482 67.6181 20.6042 67.6181H19.7762C19.5782 67.6181 19.4882 67.7261 19.5602 67.9241L22.8542 76.2221C22.9082 76.3661 23.0342 76.4381 23.1782 76.4381H24.0782C24.2222 76.4381 24.3482 76.3661 24.4022 76.2221L27.6962 67.9241C27.7682 67.7261 27.6782 67.6181 27.4802 67.6181H26.6522C26.5082 67.6181 26.3822 67.6901 26.3282 67.8341ZM36.603 67.6181H35.865C35.703 67.6181 35.613 67.7261 35.595 67.8881L35.523 69.0221C34.839 68.0681 33.777 67.4381 32.409 67.4381C29.889 67.4381 28.089 69.4721 28.089 72.0461C28.089 74.6201 29.889 76.6541 32.409 76.6541C33.777 76.6541 34.821 76.0241 35.523 75.0881L35.595 76.1681C35.613 76.3301 35.703 76.4381 35.865 76.4381H36.603C36.765 76.4381 36.873 76.3301 36.873 76.1681V67.8881C36.873 67.7261 36.765 67.6181 36.603 67.6181ZM32.517 75.4301C30.717 75.4301 29.385 73.9721 29.385 72.0281C29.385 70.1021 30.717 68.6621 32.517 68.6621C34.317 68.6621 35.631 70.1921 35.631 72.0281C35.631 73.8821 34.317 75.4301 32.517 75.4301ZM39.8473 69.8321C39.8473 68.8781 40.7473 68.5721 41.3953 68.5721C42.2413 68.5721 42.7993 68.8961 43.5013 69.5081C43.6453 69.6341 43.7893 69.6701 43.8973 69.5261L44.2033 69.1301C44.2933 69.0041 44.3293 68.8781 44.2213 68.7521C43.4833 67.8881 42.3313 67.4201 41.3953 67.4201C39.8113 67.4201 38.5513 68.4101 38.5513 69.8321C38.5513 72.7841 43.3933 72.0821 43.3933 74.1881C43.3933 75.0161 42.6733 75.4841 41.6293 75.4841C40.5133 75.4841 39.5953 74.8001 39.1453 74.3861C38.9833 74.2421 38.8933 74.2061 38.7673 74.3681L38.3713 74.8541C38.2813 74.9621 38.2813 75.0701 38.3893 75.1961C39.0193 75.9341 40.1893 76.6721 41.6653 76.6721C43.1953 76.6721 44.7073 75.7001 44.7073 74.2061C44.7073 71.0741 39.8473 71.8301 39.8473 69.8321ZM50.306 75.4481C48.47 75.4481 47.174 73.9901 47.174 72.0461C47.174 70.1021 48.47 68.6441 50.306 68.6441C51.692 68.6441 52.286 69.3101 52.808 69.7781C52.952 69.9041 53.078 69.9041 53.204 69.7781L53.654 69.3641C53.762 69.2561 53.78 69.1121 53.672 68.9861C52.844 68.0321 51.692 67.4201 50.306 67.4201C47.768 67.4201 45.878 69.4541 45.878 72.0461C45.878 74.6381 47.768 76.6721 50.306 76.6721C51.728 76.6721 52.898 76.0601 53.726 75.1061C53.834 74.9801 53.816 74.8361 53.708 74.7281L53.258 74.3141C53.132 74.1881 53.006 74.1701 52.862 74.3141C52.358 74.8181 51.728 75.4481 50.306 75.4481ZM59.8079 67.7081C59.5559 67.5281 59.1779 67.4201 58.7459 67.4201C57.7919 67.4201 57.0539 67.9241 56.5679 68.6621L56.4959 67.8881C56.4779 67.7261 56.3879 67.6181 56.2259 67.6181H55.5059C55.3439 67.6181 55.2359 67.7261 55.2359 67.8881V76.1681C55.2359 76.3301 55.3439 76.4381 55.5059 76.4381H56.3159C56.4779 76.4381 56.5859 76.3301 56.5859 76.1681V70.6241C56.5859 69.4901 57.4499 68.6621 58.5479 68.6621C58.9079 68.6621 59.0879 68.7161 59.2499 68.7521C59.4119 68.7881 59.5019 68.7701 59.5739 68.6261L59.8619 67.9961C59.9339 67.8521 59.9159 67.7801 59.8079 67.7081ZM61.5621 65.5121C62.0481 65.5121 62.4261 65.1341 62.4261 64.6481C62.4261 64.1621 62.0481 63.7841 61.5621 63.7841C61.0761 63.7841 60.6981 64.1621 60.6981 64.6481C60.6981 65.1341 61.0761 65.5121 61.5621 65.5121ZM60.8961 67.8881V76.1681C60.8961 76.3301 61.0041 76.4381 61.1661 76.4381H61.9761C62.1381 76.4381 62.2461 76.3301 62.2461 76.1681V67.8881C62.2461 67.7261 62.1381 67.6181 61.9761 67.6181H61.1661C61.0041 67.6181 60.8961 67.7261 60.8961 67.8881ZM68.489 67.4381C67.121 67.4381 66.059 68.0681 65.375 69.0221L65.303 67.8881C65.285 67.7261 65.195 67.6181 65.033 67.6181H64.295C64.133 67.6181 64.025 67.7261 64.025 67.8881V79.5881C64.025 79.7501 64.133 79.8581 64.295 79.8581H65.105C65.267 79.8581 65.375 79.7501 65.375 79.5881V75.0881C66.077 76.0241 67.121 76.6541 68.489 76.6541C71.009 76.6541 72.809 74.6201 72.809 72.0461C72.809 69.4721 71.009 67.4381 68.489 67.4381ZM68.381 75.4301C66.581 75.4301 65.267 73.8821 65.267 72.0281C65.267 70.1921 66.581 68.6621 68.381 68.6621C70.181 68.6621 71.513 70.1021 71.513 72.0281C71.513 73.9721 70.181 75.4301 68.381 75.4301ZM77.9476 67.6181H76.6876V65.1881C76.6876 65.0261 76.5796 64.9181 76.4176 64.9181H75.6076C75.4456 64.9181 75.3376 65.0261 75.3376 65.1881V67.6181H74.0776C73.9156 67.6181 73.8076 67.7261 73.8076 67.8881V68.5001C73.8076 68.6621 73.9156 68.7701 74.0776 68.7701H75.3376V76.1681C75.3376 76.3301 75.4456 76.4381 75.6076 76.4381H76.4176C76.5796 76.4381 76.6876 76.3301 76.6876 76.1681V68.7701H77.9476C78.1096 68.7701 78.2176 68.6621 78.2176 68.5001V67.8881C78.2176 67.7261 78.1096 67.6181 77.9476 67.6181Z" fill="black"/>
<path d="M36.4855 23.3269C36.4855 18.938 36.4695 14.5332 36.5015 10.1443C36.5015 9.58573 36.3419 9.39421 35.7833 9.42613C34.9534 9.47401 34.1235 9.48997 33.3096 9.42613C32.5595 9.36229 32.3839 9.61765 32.3839 10.3518C32.4158 17.0388 32.3999 23.7259 32.4158 30.4129C32.4158 31.0672 32.3041 31.2268 31.6338 31.0194C29.4314 30.365 27.213 29.7905 25.0106 29.1521C24.468 28.9925 24.3084 29.1042 24.3243 29.6788C24.3563 30.8438 24.3563 32.0248 24.3243 33.1899C24.3084 33.7165 24.4999 33.924 24.9946 34.0517C28.6015 35.0252 32.1924 36.0147 35.7833 37.0521C36.4695 37.2436 36.5015 37.0042 36.5015 36.4296C36.4695 32.0727 36.4855 27.6998 36.4855 23.3269ZM38.1293 24.077C38.1293 30.4927 38.1293 36.9244 38.1134 43.3401C38.1134 44.0104 38.273 44.17 38.9273 43.9785C40.4754 43.5157 42.0554 43.1167 43.6034 42.6858C46.157 41.9836 48.7265 41.2813 51.28 40.5791C51.8066 40.4355 52.062 40.212 52.0779 39.5896C52.0939 38.8236 52.1737 38.0575 52.2375 37.2915C52.4131 35.0571 52.6525 32.8068 52.844 30.5725C52.9717 29.2319 53.0674 27.8753 53.1951 26.5347C53.3866 24.3802 53.6101 22.2097 53.8016 20.0552C53.9293 18.6029 54.025 17.1505 54.1527 15.6982C54.3442 13.5118 54.5676 11.3253 54.7591 9.13886C54.8868 7.76634 54.9666 6.39382 55.1103 5.02131C55.222 3.98394 55.2539 3.98393 54.2165 3.98393C49.2052 3.98393 44.178 3.98393 39.1667 3.98393C38.1134 3.98393 38.1134 3.98394 38.1134 5.05323C38.1293 11.3892 38.1293 17.7251 38.1293 24.077ZM38.1134 0.313245C44.8164 0.313245 51.5034 0.329207 58.2064 0.297288C58.8607 0.297288 59.0523 0.409002 58.9884 1.11122C58.0628 11.1338 57.169 21.1564 56.2753 31.179C55.9561 34.8177 55.621 38.4405 55.3177 42.0793C55.2858 42.5581 55.1262 42.7656 54.6474 42.8932C49.301 44.3615 43.9546 45.8617 38.6241 47.3619C38.241 47.4736 37.9059 47.4577 37.5388 47.346C32.2562 45.8617 26.9577 44.3615 21.6751 42.9092C21.1803 42.7656 21.0207 42.5421 20.9728 42.0474C20.127 32.4717 19.2971 22.896 18.4034 13.3203C18.0203 9.15482 17.765 4.98939 17.2064 0.839912C17.1106 0.0898149 17.6213 0.313245 17.9565 0.313245C24.6755 0.313245 31.3944 0.313245 38.1134 0.313245Z" fill="#DBBA2C"/>
<path d="M39.853 18.4591C39.853 21.236 39.869 23.997 39.8371 26.774C39.8371 27.3166 39.9169 27.5081 40.5393 27.3804C42.8375 26.9336 45.1516 26.5665 47.4657 26.1196C47.9924 26.0239 48.136 26.1356 48.0881 26.6622C48.0083 27.6198 47.9605 28.5774 47.9445 29.535C47.9445 30.0457 47.7689 30.2691 47.2582 30.3968C45.0079 30.9553 42.7736 31.5778 40.5233 32.1523C40.0445 32.28 39.8051 32.4396 39.8211 32.9982C39.869 34.1473 39.869 35.2963 39.8211 36.4295C39.7892 37.1157 40.0286 37.1636 40.6191 37.004C43.7791 36.1581 46.955 35.3283 50.131 34.5462C50.8651 34.3707 51.2481 34.0675 51.2002 33.3014C51.2002 33.1897 51.2162 33.0939 51.2162 32.9822C51.5194 29.104 51.8067 25.2418 52.1419 21.3637C52.1897 20.7732 51.9663 20.7572 51.5194 20.8051C49.2213 21.1083 46.9071 21.3637 44.6249 21.6988C44.0025 21.7786 43.8429 21.635 43.8589 21.0285C43.8908 19.0815 43.8908 17.1344 43.8589 15.2033C43.8429 14.549 44.0025 14.3415 44.6888 14.3575C47.1146 14.4053 49.5405 14.3575 51.9663 14.3894C52.493 14.3894 52.7324 14.2777 52.7643 13.7031C52.8281 12.5061 52.9079 11.3092 53.0675 10.1282C53.1473 9.55364 52.9718 9.45789 52.461 9.45789C48.4871 9.47385 44.5132 9.47385 40.5393 9.45789C39.9807 9.45789 39.8211 9.61748 39.8211 10.1761C39.869 12.9211 39.853 15.6821 39.853 18.4591ZM38.1294 24.0768C38.1294 17.7409 38.1294 11.389 38.1294 5.05306C38.1294 3.98377 38.1294 3.98376 39.1827 3.98376C44.194 3.98376 49.2213 3.98376 54.2326 3.98376C55.2699 3.98376 55.238 3.98377 55.1263 5.02114C54.9827 6.39365 54.9029 7.76617 54.7752 9.13869C54.5837 11.3251 54.3602 13.5116 54.1687 15.6981C54.041 17.1504 53.9453 18.6027 53.8176 20.055C53.6261 22.2095 53.4027 24.38 53.2111 26.5346C53.0835 27.8752 52.9877 29.2317 52.86 30.5723C52.6526 32.8067 52.4291 35.0569 52.2536 37.2913C52.1897 38.0573 52.1099 38.8234 52.094 39.5895C52.078 40.1959 51.8227 40.4353 51.296 40.5789C48.7265 41.2652 46.173 41.9674 43.6195 42.6696C42.0554 43.1005 40.4914 43.4995 38.9433 43.9624C38.289 44.1539 38.1294 43.9943 38.1294 43.3399C38.1454 36.9082 38.1294 30.4925 38.1294 24.0768Z" fill="#FFD73B"/>
<path d="M36.4856 23.3269C36.4856 27.6998 36.4856 32.0727 36.5015 36.4297C36.5015 36.9883 36.4696 37.2436 35.7833 37.0521C32.1924 36.0147 28.6016 35.0252 24.9947 34.0517C24.5 33.924 24.2925 33.7166 24.3244 33.1899C24.3723 32.0248 24.3563 30.8438 24.3244 29.6788C24.3084 29.1202 24.468 29.0085 25.0107 29.1521C27.2131 29.7905 29.4315 30.3651 31.6339 31.0194C32.3042 31.2109 32.4318 31.0673 32.4318 30.4129C32.4159 23.7259 32.4318 17.0389 32.3999 10.3518C32.3999 9.61769 32.5755 9.36233 33.3096 9.42617C34.1236 9.49001 34.9694 9.47405 35.7833 9.42617C36.3419 9.39425 36.5015 9.58577 36.5015 10.1444C36.4696 14.5332 36.4856 18.9221 36.4856 23.3269Z" fill="#ECEAE8"/>
<path d="M39.8529 18.4592C39.8529 15.6823 39.8689 12.9213 39.837 10.1443C39.837 9.58575 39.9966 9.42615 40.5552 9.42615C44.5291 9.44211 48.503 9.44211 52.4769 9.42615C52.9876 9.42615 53.1632 9.5219 53.0834 10.0964C52.9238 11.2774 52.844 12.4744 52.7802 13.6714C52.7482 14.2459 52.5088 14.3576 51.9822 14.3417C49.5563 14.3257 47.1305 14.3576 44.7046 14.3098C44.0184 14.2938 43.8588 14.5172 43.8747 15.1556C43.9226 17.1027 43.9067 19.0497 43.8747 20.9808C43.8588 21.6033 44.0184 21.7469 44.6408 21.6511C46.939 21.332 49.2371 21.0606 51.5353 20.7734C51.9822 20.7095 52.2056 20.7414 52.1577 21.3319C51.8226 25.2101 51.5353 29.0723 51.2321 32.9505C51.2321 33.0622 51.2002 33.158 51.2161 33.2697C51.264 34.0357 50.881 34.339 50.1468 34.5145C46.9709 35.2965 43.795 36.1264 40.635 36.9723C40.0604 37.1319 39.821 37.084 39.837 36.3977C39.8849 35.2487 39.8849 34.0996 39.837 32.9664C39.821 32.4079 40.0604 32.2323 40.5232 32.1206C42.7735 31.546 45.0079 30.9236 47.2582 30.365C47.7689 30.2374 47.9444 30.0139 47.9604 29.5032C47.9763 28.5457 48.0242 27.5881 48.104 26.6305C48.1359 26.1198 47.9923 25.9921 47.4816 26.0879C45.1834 26.5188 42.8693 26.9018 40.5552 27.3487C39.9327 27.4764 39.837 27.2848 39.8529 26.7422C39.8529 23.9972 39.8529 21.2202 39.8529 18.4592Z" fill="#FFFFFB"/>
</svg>
