<svg width="77" height="86" viewBox="0 0 77 86" fill="none" xmlns="http://www.w3.org/2000/svg">
<path opacity="0.7" d="M13.8019 69.4H12.6139C12.4699 69.4 12.3439 69.454 12.2899 69.58L7.73589 80.434L3.16389 69.58C3.10989 69.454 2.98389 69.4 2.83989 69.4H1.68789C1.52589 69.4 1.41789 69.508 1.41789 69.67V81.73C1.41789 81.892 1.52589 82 1.68789 82H2.55189C2.71389 82 2.82189 81.892 2.82189 81.73V72.028L6.97989 81.802C7.03389 81.946 7.14189 82 7.28589 82H8.16789C8.31189 82 8.41989 81.946 8.47389 81.802L12.6679 71.938V81.73C12.6679 81.892 12.7759 82 12.9379 82H13.8019C13.9639 82 14.0719 81.892 14.0719 81.73V69.67C14.0719 69.508 13.9639 69.4 13.8019 69.4ZM20.2503 82.234C22.7703 82.234 24.7143 80.218 24.7143 77.608C24.7143 74.998 22.7703 72.982 20.2503 72.982C17.7303 72.982 15.7863 74.998 15.7863 77.608C15.7863 80.218 17.7303 82.234 20.2503 82.234ZM20.2503 81.01C18.4683 81.01 17.0823 79.588 17.0823 77.608C17.0823 75.628 18.4683 74.206 20.2503 74.206C22.0323 74.206 23.4183 75.628 23.4183 77.608C23.4183 79.588 22.0323 81.01 20.2503 81.01ZM30.5896 72.982C29.2396 72.982 28.2496 73.738 27.6016 74.692L27.5296 73.45C27.5116 73.288 27.4216 73.18 27.2596 73.18H26.5216C26.3596 73.18 26.2516 73.288 26.2516 73.45V81.73C26.2516 81.892 26.3596 82 26.5216 82H27.3316C27.4936 82 27.6016 81.892 27.6016 81.73V76.276C27.6016 75.916 28.5556 74.188 30.3016 74.188C31.5616 74.188 32.3356 75.016 32.3356 76.582V81.73C32.3356 81.892 32.4436 82 32.6056 82H33.4156C33.5776 82 33.6856 81.892 33.6856 81.73V76.492C33.6856 74.134 32.4436 72.982 30.5896 72.982ZM43.7241 73.18H42.9861C42.8241 73.18 42.7341 73.288 42.7161 73.45L42.6441 74.584C41.9601 73.63 40.8981 73 39.5301 73C37.0101 73 35.2101 75.034 35.2101 77.518C35.2101 80.002 37.0101 82.036 39.5301 82.036C40.9161 82.036 41.9961 81.388 42.6801 80.416V81.856C42.6801 83.692 40.9881 84.376 39.4401 84.376C38.2341 84.376 37.4241 84.106 36.6861 83.746C36.5421 83.674 36.3981 83.71 36.3261 83.854L36.0741 84.322C36.0021 84.466 36.0201 84.61 36.1641 84.7C36.9921 85.222 38.1621 85.564 39.5301 85.564C41.5641 85.564 43.9941 84.556 43.9941 81.82V73.45C43.9941 73.288 43.8861 73.18 43.7241 73.18ZM39.6381 80.812C37.8381 80.812 36.5061 79.354 36.5061 77.5C36.5061 75.664 37.8381 74.224 39.6381 74.224C41.4381 74.224 42.7521 75.754 42.7521 77.5C42.7521 79.264 41.4381 80.812 39.6381 80.812ZM49.9924 82.234C52.5124 82.234 54.4564 80.218 54.4564 77.608C54.4564 74.998 52.5124 72.982 49.9924 72.982C47.4724 72.982 45.5284 74.998 45.5284 77.608C45.5284 80.218 47.4724 82.234 49.9924 82.234ZM49.9924 81.01C48.2104 81.01 46.8244 79.588 46.8244 77.608C46.8244 75.628 48.2104 74.206 49.9924 74.206C51.7744 74.206 53.1604 75.628 53.1604 77.608C53.1604 79.588 51.7744 81.01 49.9924 81.01ZM59.2698 69.4H56.4438C56.2817 69.4 56.1738 69.508 56.1738 69.67V81.73C56.1738 81.892 56.2817 82 56.4438 82H59.2698C63.6438 82 65.8578 79.264 65.8578 75.7C65.8578 72.136 63.6438 69.4 59.2698 69.4ZM59.2698 80.704H57.5778V70.696H59.2698C62.7258 70.696 64.4358 72.604 64.4358 75.7C64.4358 78.796 62.7258 80.704 59.2698 80.704ZM73.4864 75.178C74.7284 74.746 75.3224 73.684 75.3224 72.406C75.3224 70.948 74.3504 69.4 71.6684 69.4H67.8344C67.6724 69.4 67.5644 69.508 67.5644 69.67V81.73C67.5644 81.892 67.6724 82 67.8344 82H71.6324C74.6384 82 76.1144 80.686 76.1144 78.328C76.1144 76.798 75.1424 75.556 73.4864 75.178ZM73.9544 72.496C73.9544 73.882 73.0364 74.656 71.5424 74.656H68.9684V70.696H71.5424C73.0184 70.696 73.9544 71.254 73.9544 72.496ZM71.5784 80.704H68.9684V75.88H71.5784C73.7924 75.88 74.6744 76.852 74.6744 78.274C74.6744 80.002 73.5944 80.704 71.5784 80.704Z" fill="black"/>
<g clip-path="url(#clip0)">
<path d="M21.3232 14.8714C21.3091 16.7149 21.4358 18.5584 21.7456 20.3881C22.0131 21.9426 22.3651 23.4972 22.9283 24.9967C25.3641 31.5452 29.9963 36.2915 35.9098 39.8959C39.5987 42.1383 38.4019 42.1521 42.0204 39.9371C52.9604 33.2511 57.8743 23.6348 56.5226 10.9919C56.1706 7.69012 54.819 5.51647 51.3976 4.81485C50.9329 4.71855 50.4683 4.53971 50.0037 4.42965C44.4422 3.02641 38.7962 2.93011 33.1361 3.49415C30.0526 3.79681 27.0114 4.45716 24.1532 5.79162C22.9705 6.34191 22.3228 7.13983 22.0412 8.36422C21.5344 10.5104 21.3372 12.684 21.3232 14.8714ZM39.0215 -0.000190242C43.9212 -0.0277048 48.7506 0.39877 53.3828 2.09091L53.6363 2.1597C57.0436 3.23277 59.0007 5.3789 59.5075 8.96954C60.4931 15.917 60.1693 22.7268 56.9028 29.0551C53.1716 36.2915 47.2018 41.3404 39.7536 44.8072C39.1622 45.0824 38.6835 44.9998 38.1344 44.7384C26.4341 39.153 17.4653 29.1514 18.0285 13.9497C18.113 11.6385 18.3805 9.35475 18.9859 7.09856C19.4928 5.21381 20.591 3.93439 22.3651 3.08144C25.4626 1.55438 28.7854 0.797731 32.1928 0.357498C34.4455 0.0548388 36.7264 -0.0139475 39.0215 -0.000190242Z" fill="#81C265"/>
<path d="M39.7955 38.4239L39.7814 37.4196L39.7392 37.0344C39.7251 36.608 39.711 36.1815 39.711 35.755C39.8941 35.246 40.0771 34.737 40.2601 34.2142C43.5407 31.958 45.4697 28.8626 46.2159 25.0381C46.6524 23.1259 46.7087 21.1998 46.2863 19.2601C45.9765 17.0176 45.1881 14.9403 44.1462 12.918C42.8649 10.3866 40.5558 8.65321 39.0915 6.28696C37.8243 7.33252 36.5431 8.36431 35.642 9.75379C34.9521 10.4417 34.3325 11.1845 34.051 12.1338C33.5582 12.7529 33.2202 13.4407 33.0372 14.2111C32.4459 15.2567 32.1361 16.3848 31.9953 17.5679C30.2776 23.3735 32.6007 29.977 37.7821 34.0491C37.9933 34.228 38.2045 34.4068 38.4157 34.5856C38.5565 35.0947 38.7114 35.6174 38.8522 36.1265C38.8662 36.4704 38.8944 36.8143 38.9085 37.1583C38.8944 37.5847 38.6128 38.0525 39.1197 38.4102C39.2605 38.4514 39.4154 38.4927 39.5561 38.534C39.6829 38.644 39.7955 38.6853 39.7955 38.4239ZM21.3228 14.8715C21.3369 12.6841 21.534 10.5104 22.0409 8.36431C22.3225 7.13991 22.9842 6.34199 24.1529 5.7917C27.0111 4.45725 30.0382 3.7969 33.1498 3.48048C38.8099 2.91644 44.4559 3.01274 50.0174 4.41598C50.4821 4.53979 50.9326 4.70488 51.4113 4.80118C54.8327 5.5028 56.1844 7.67645 56.5364 10.9782C57.888 23.6349 52.9883 33.2374 42.0342 39.9235C38.4157 42.1384 39.6125 42.1246 35.9236 39.8822C30.0101 36.2778 25.3637 31.5315 22.942 24.9831C22.3929 23.4835 22.0409 21.9427 21.7593 20.3744C21.4355 18.5584 21.3087 16.715 21.3228 14.8715Z" fill="#413120"/>
<path d="M39.0915 6.30078C40.5558 8.66703 42.8649 10.4004 44.1461 12.9318C45.174 14.9679 45.9765 17.0314 46.2863 19.2739C46.0469 19.6866 45.5964 19.7279 45.2444 19.6178C43.8645 19.1363 42.7241 19.9067 41.5414 20.2919C40.8233 20.5258 40.1334 20.7046 39.3731 20.6634C39.359 19.9755 39.3449 19.2876 39.3308 18.5998C39.528 14.5001 39.0352 10.4004 39.0915 6.30078Z" fill="#539747"/>
<path d="M39.3731 20.6771C40.1194 20.7046 40.8093 20.5395 41.5414 20.3056C42.7241 19.9204 43.8646 19.15 45.2444 19.6315C45.5823 19.7553 46.0469 19.7003 46.2863 19.2876C46.7228 21.2136 46.6524 23.1396 46.2159 25.0656C43.9491 25.6572 41.5837 25.8223 39.3731 26.6202C39.3591 25.8498 39.3591 25.0656 39.345 24.2952C39.3591 23.0708 39.3731 21.874 39.3731 20.6771Z" fill="#509445"/>
<path d="M39.3731 26.6066C41.5836 25.8087 43.949 25.6573 46.2159 25.052C45.4696 28.8765 43.5407 31.9719 40.2601 34.2281C39.6547 34.008 39.7532 33.1688 39.1056 32.9762C39.1056 31.8756 39.0915 30.7888 39.0915 29.6882C39.1619 28.6564 39.4857 27.6521 39.3731 26.6066Z" fill="#4D9043"/>
<path d="M39.0915 29.6883C39.0915 30.7888 39.1056 31.8757 39.1056 32.9762C38.5142 33.3752 38.7395 34.0906 38.4016 34.5858C38.1904 34.407 37.9792 34.2282 37.768 34.0493C37.7539 33.7879 37.7962 33.5265 37.7117 33.2927C36.0221 28.23 34.3184 23.1811 32.6289 18.1322C32.5303 17.8433 32.3473 17.5956 31.9812 17.5819C32.122 16.3987 32.4318 15.2706 33.0231 14.2251C33.5159 14.8442 33.7975 15.5458 34.0509 16.2887C35.4448 20.3746 36.8387 24.4605 38.2326 28.5464C38.4016 29.0142 38.4016 29.592 39.0915 29.6883Z" fill="#5CA94E"/>
<path d="M31.9812 17.5818C32.3473 17.5955 32.5303 17.8432 32.6289 18.1321C34.3326 23.181 36.0362 28.2437 37.7117 33.2926C37.7962 33.5265 37.7539 33.8016 37.768 34.063C32.6007 29.9771 30.2776 23.3736 31.9812 17.5818Z" fill="#55A448"/>
<path d="M39.0915 29.6882C38.4016 29.5919 38.3875 29.0141 38.2327 28.5464C36.8388 24.4605 35.4449 20.3745 34.051 16.2886C33.7975 15.5595 33.53 14.8441 33.0231 14.2251C33.2062 13.4684 33.5441 12.7668 34.0369 12.1477C34.7127 12.2302 34.7549 12.7943 34.9239 13.2758C36.1207 16.6601 37.3175 20.0581 38.5002 23.4562C38.655 23.8964 38.7818 24.2679 39.345 24.2816C39.359 25.052 39.359 25.8362 39.3731 26.6066C39.4858 27.6521 39.1619 28.6564 39.0915 29.6882Z" fill="#69AE56"/>
<path d="M39.0915 6.30078C39.0352 10.4004 39.528 14.4864 39.3309 18.5998C38.8662 18.6548 38.5565 18.4622 38.4157 18.0495C37.4864 15.298 36.5571 12.5328 35.6279 9.78137C36.5431 8.39189 37.8243 7.34633 39.0915 6.30078Z" fill="#7BB869"/>
<path d="M35.642 9.78149C36.5713 12.5329 37.5005 15.2982 38.4298 18.0496C38.5706 18.4761 38.8804 18.6549 39.345 18.5999C39.3591 19.2878 39.3731 19.9756 39.3872 20.6772C39.3731 21.8741 39.3731 23.071 39.3591 24.2816C38.81 24.2679 38.6692 23.8964 38.5284 23.4562C37.3457 20.0582 36.1489 16.6739 34.9521 13.2896C34.7831 12.8081 34.7409 12.244 34.0651 12.1615C34.3326 11.1985 34.9521 10.4694 35.642 9.78149Z" fill="#72B35E"/>
<path d="M38.4016 34.5857C38.7395 34.0904 38.5142 33.3613 39.1056 32.9761C39.7533 33.1549 39.6547 33.9941 40.2601 34.2142C40.0771 34.7232 39.8941 35.246 39.711 35.755C39.4154 35.8788 39.1338 36.0027 38.8381 36.1265C38.6973 35.6175 38.5565 35.1084 38.4016 34.5857Z" fill="#A8A589"/>
<path d="M38.8522 36.1266C39.1338 36.0028 39.4294 35.8789 39.7251 35.7551C39.7392 36.1816 39.7533 36.6081 39.7533 37.0346L39.7955 37.4198L39.8096 38.424L39.5421 38.5203C39.4013 38.4791 39.2464 38.4378 39.1056 38.3965C39.0211 37.9838 39.2323 37.5161 38.8944 37.1446C38.8803 36.8144 38.8663 36.4705 38.8522 36.1266Z" fill="#CCC9B1"/>
<path d="M38.9084 37.1584C39.2464 37.5299 39.0352 37.9976 39.1196 38.4104C38.6128 38.0527 38.8803 37.5849 38.9084 37.1584Z" fill="#A8A589"/>
</g>
<defs>
<clipPath id="clip0">
<rect width="42" height="45" fill="white" transform="translate(18)"/>
</clipPath>
</defs>
</svg>
