<svg width="77" height="40" viewBox="0 0 77 40" fill="none" xmlns="http://www.w3.org/2000/svg">
<g clip-path="url(#clip0)">
<path d="M8.77054 34.4867C9.15187 33.6483 9.50495 32.8242 9.87216 32.0142C10.7619 30.0107 11.6658 27.9929 12.5415 25.9893C12.9087 25.1652 13.4877 24.6252 14.3916 24.4547C14.9283 24.3552 15.4508 24.4121 15.9734 24.54C16.1853 24.5968 16.3971 24.6536 16.609 24.7247C17.2586 24.9663 17.5411 25.4778 17.5835 26.1456L17.5976 26.5435C17.5976 29.7123 17.5976 32.8668 17.5976 36.0355C17.5976 36.405 17.6682 36.405 17.2445 36.405C16.6231 36.405 16.0017 36.405 15.3802 36.405C15.013 36.405 15.0695 36.405 15.0695 36.0639C15.0695 32.9947 15.0695 29.9396 15.0695 26.8703V26.4725L14.8718 26.7567C13.7984 29.1439 12.7392 31.5311 11.6658 33.9041C11.4681 34.3446 11.2704 34.7851 11.0726 35.2114C10.7196 35.9929 10.1405 36.4334 9.27898 36.5044C8.81291 36.5471 8.36097 36.5329 7.92315 36.4334C7.40059 36.3197 6.99101 36.0071 6.72267 35.5524C6.60969 35.3535 6.4967 35.1403 6.41196 34.9272C5.21148 32.2416 4.01101 29.5417 2.79641 26.8561L2.6128 26.4725L2.54219 26.913C2.54219 29.9254 2.54219 32.9236 2.54219 35.9361V36.135C2.54219 36.4334 2.54219 36.4334 2.2456 36.4334C1.59593 36.4334 0.960382 36.4334 0.310712 36.4334C0 36.4334 0 36.4192 0 36.1208V34.0462C0 31.5595 0 29.0586 0 26.5719C0 26.3162 0.0141233 26.0746 0.056493 25.833C0.141233 25.4068 0.353081 25.0515 0.762656 24.8668C1.5818 24.4831 2.45745 24.3126 3.36134 24.4973C4.16636 24.6679 4.70304 25.1652 5.02788 25.9041C5.59281 27.2256 6.17186 28.5471 6.73679 29.8686C7.35822 31.3037 7.96552 32.7389 8.58694 34.1741L8.77054 34.4867Z" fill="#03638B"/>
<path d="M51.4793 32.8953L51.4934 32.8385H51.7194C52.5103 32.8385 53.3012 32.8385 54.0921 32.8385C54.2898 32.8385 54.431 32.8953 54.5581 33.0232C55.0383 33.4637 55.5326 33.9042 56.0128 34.3447C56.1964 34.5152 56.2247 34.5152 56.4224 34.3447C56.719 34.0889 56.8461 33.7621 56.8461 33.3642C56.8461 31.4886 56.8461 29.6129 56.8461 27.7372C56.8461 27.112 56.5778 26.7426 55.9987 26.5152C55.6598 26.3873 55.3067 26.3589 54.9536 26.3589H51.3239L50.8155 26.3873C50.5189 26.4157 50.2223 26.4868 49.9681 26.6431C49.5726 26.8705 49.3608 27.2115 49.3608 27.6804C49.3608 29.5419 49.3608 31.4175 49.3608 33.279C49.3608 33.9468 49.6997 34.4015 50.3212 34.6147L50.8014 34.7284C51.6064 34.7994 52.3973 34.7426 53.2023 34.7568L53.4283 34.6857C52.7927 34.0889 52.1289 33.4921 51.4793 32.8953ZM57.7782 35.9362C58.5691 36.6467 59.36 37.3713 60.151 38.096L59.9673 38.1671C59.1623 38.1671 58.3432 38.1671 57.5381 38.1671C57.3545 38.1671 57.2274 38.1102 57.1003 37.9966C56.5495 37.485 55.9987 36.9877 55.4479 36.4903L55.0242 36.3483C53.4706 36.5046 51.9171 36.4761 50.3635 36.4619C49.5444 36.4477 48.7535 36.2488 48.0332 35.8651C47.1152 35.3962 46.6491 34.6431 46.6491 33.5916C46.6491 31.5312 46.6491 29.485 46.6491 27.4246C46.6491 26.5436 47.0446 25.8616 47.779 25.3927C48.3863 25.009 49.0783 24.8385 49.7845 24.7248C50.1234 24.668 50.4765 24.6538 50.8155 24.668C52.2843 24.668 53.7531 24.668 55.2219 24.668C55.9846 24.668 56.719 24.7959 57.4393 25.0658C57.7076 25.1653 57.9618 25.2932 58.2019 25.4637C58.8657 25.9326 59.2329 26.5721 59.2329 27.3962C59.2471 29.5134 59.2471 31.6165 59.2329 33.7337C59.2329 34.6999 58.8234 35.4388 57.9054 35.8367L57.7924 35.9078L57.7782 35.9362Z" fill="#E38E27"/>
<path d="M59.7696 21.968C59.36 21.6128 58.9363 21.2717 58.5268 20.9023C57.6653 20.135 56.9167 19.2682 56.4648 18.1741C56.3518 17.9183 56.2247 17.6767 56.027 17.4494C55.9705 17.8046 55.8999 18.1741 55.8434 18.5293C55.7869 18.8419 55.7727 19.1545 55.7021 19.4529C55.4762 20.3908 54.6005 20.7034 53.8237 20.1492C53.5413 19.9503 53.3435 19.6945 53.1458 19.4103C52.5526 18.5577 52.2561 17.5915 52.1148 16.5684C51.9312 15.2185 52.016 13.8685 52.4255 12.5613C52.4961 12.3339 52.5244 12.1066 52.5809 11.8792C52.6233 11.6803 52.6515 11.4813 52.7645 11.3108C52.8916 11.1119 52.8351 10.9698 52.6939 10.8277C51.9453 10.0888 51.5499 9.13675 51.1827 8.1705C50.9002 7.4316 50.6178 6.6927 50.4341 5.91118C50.3353 5.52752 50.1234 5.2007 49.8833 4.87388C49.5585 4.41917 49.2196 3.97867 48.8806 3.53817C48.5981 3.16873 48.3298 2.78507 48.1462 2.34457C47.9343 1.8046 47.9202 1.27885 48.2168 0.767304C48.471 0.298388 48.8665 0.0426151 49.389 -0.0142233C49.9257 -0.0710617 50.4483 0.042615 50.9567 0.22734C51.8465 0.55416 52.6939 0.966239 53.4142 1.60567C53.6119 1.79039 53.8237 1.87565 54.1062 1.88986C54.7559 1.90407 55.4055 1.96091 56.0552 2.13143C56.8037 2.33036 57.5099 2.60034 58.1737 3.01242C59.8544 4.04972 61.4362 5.22912 62.7779 6.6927C63.7524 7.75842 64.5857 8.92361 65.3342 10.1741C65.546 10.5293 65.7014 10.913 65.8568 11.2966C66.3511 12.5897 66.9442 13.8401 67.5515 15.0906C67.7775 15.5595 67.9894 16.0142 68.2295 16.4689C68.3283 16.6678 68.4413 16.8668 68.5543 17.0515C68.6532 17.222 68.7944 17.3357 68.978 17.4067C70.6304 18.0035 72.1275 18.8703 73.4692 19.9929C73.7517 20.2202 74.0059 20.4618 74.3025 20.6607C74.8109 21.0444 75.164 21.5559 75.5594 22.0391C75.6865 22.2096 75.6583 22.2806 75.4464 22.3517C74.8533 22.5506 74.3025 22.7069 73.7234 22.7353C73.2008 22.778 72.6924 22.8916 72.184 23.0337C71.9862 23.0906 71.7744 23.1332 71.5625 23.1758L71.4637 23.3606L71.732 23.7016C71.9721 23.9431 72.2405 24.1279 72.5229 24.2984C73.0737 24.6394 73.6387 24.952 74.133 25.3641C74.6414 25.7904 75.1216 26.2593 75.5453 26.7851L75.9973 27.2682C76.2656 27.4955 76.3927 27.7939 76.5057 28.135L76.2091 27.9645C75.3758 27.2114 74.4719 26.5719 73.4268 26.1456C72.5512 25.7762 71.7603 25.2504 71.0259 24.6536C70.4468 24.1847 70.0372 23.5737 69.7406 22.8916L69.7971 22.6501L70.0796 22.4796C71.3224 21.9822 72.5935 21.7549 73.9353 21.8117L74.2318 21.7833L74.0906 21.4991L73.6528 21.1439C73.0596 20.7886 72.4947 20.3908 71.9439 19.9787C71.1247 19.3392 70.1785 18.9982 69.2181 18.6714C68.8791 18.5577 68.5402 18.444 68.2153 18.3304C67.9187 18.2309 67.7069 18.032 67.5374 17.7762C67.1843 17.2362 66.9019 16.682 66.6476 16.0995C66.2663 15.2469 65.8709 14.3943 65.4754 13.5417C65.193 12.9449 64.9387 12.3481 64.6986 11.7229C64.3738 10.8419 63.8654 10.0604 63.3428 9.30727C61.7328 6.96269 59.7131 5.11544 57.1992 3.80816C56.5636 3.48134 55.914 3.18293 55.2078 3.06926C54.8406 3.01242 54.4593 2.99821 54.078 2.96979C53.8379 2.95558 53.5978 2.89874 53.3435 2.91295C53.1599 2.91295 53.0046 2.79928 52.8775 2.67139C52.1713 2.01775 51.3098 1.63409 50.4341 1.26464C50.1941 1.16517 49.9398 1.07992 49.6715 1.03729C49.0783 0.937819 48.7535 1.33569 48.9371 1.91828C49.0642 2.33036 49.3043 2.6856 49.5726 3.01242C49.7986 3.29661 50.0105 3.59501 50.2505 3.89341C50.872 4.67494 51.2815 5.55594 51.564 6.50798C51.7194 7.04794 51.903 7.58791 52.0866 8.12787C52.2561 8.63942 52.5103 9.10834 52.7927 9.56304C52.934 9.80461 53.1176 10.0177 53.3294 10.2025C53.7107 10.5577 53.8379 10.9698 53.6684 11.4671C53.5554 11.7797 53.4707 12.1066 53.3435 12.4192C52.8634 13.627 52.821 14.8774 52.934 16.1421C53.0046 16.9804 53.2447 17.762 53.5978 18.5151C53.739 18.8135 53.8943 19.0835 54.2051 19.254C54.4593 19.3961 54.5299 19.3535 54.5581 19.0693C54.6146 18.5151 54.6711 17.9609 54.77 17.4067C54.883 16.7105 55.1231 16.071 55.6033 15.5453L55.9987 15.0622L56.1964 15.3463C56.4224 16.1137 56.7614 16.8241 57.1144 17.5346C57.7359 18.7709 58.442 19.9645 59.2471 21.087C59.4165 21.3286 59.6425 21.5417 59.7837 21.8117L59.7696 21.968Z" fill="#11638B"/>
<path d="M31.7773 32.9237V37.0161C31.7773 37.2718 31.7773 37.5276 31.7208 37.7834C31.5937 38.3233 31.283 38.7638 30.8452 39.0907C30.2379 39.5311 29.5458 39.7585 28.8114 39.8864C28.3171 39.9716 27.8228 40.0001 27.3144 40.0001C24.9134 40.0001 22.5125 40.0001 20.1115 40.0001C19.7161 40.0001 19.7443 40.0143 19.7443 39.6448C19.7443 39.247 19.7443 38.8633 19.7443 38.4654L19.942 38.2665H20.168H27.5403C27.9217 38.2665 28.2889 38.2097 28.642 38.0534C29.0233 37.8828 29.2351 37.5986 29.2069 37.1581C29.1928 36.945 29.1928 36.7319 29.2069 36.5187L29.0092 36.3198C28.7267 36.3198 28.4584 36.3198 28.1759 36.3198C26.7494 36.3198 25.323 36.3198 23.9107 36.3198C23.0633 36.3198 22.2441 36.2061 21.4673 35.9077C21.0719 35.7514 20.7047 35.5525 20.3798 35.2683C19.9138 34.8562 19.6878 34.3589 19.6878 33.7336C19.7161 31.9716 19.7443 30.1954 19.7019 28.4335C19.7019 28.2629 19.7443 28.1919 19.9138 28.2061C20.6199 28.2203 21.312 28.2203 22.0181 28.2061L22.23 28.4192C22.2159 28.9734 22.23 29.5418 22.23 30.096C22.23 31.2896 22.2441 32.4974 22.2159 33.691C22.2017 34.3162 22.5548 34.572 22.9644 34.6999C23.2186 34.7851 23.487 34.7994 23.7553 34.7994C25.4783 34.7994 27.2014 34.7994 28.9244 34.7994C29.2069 34.7994 29.2069 34.7994 29.2069 34.501V28.6608V28.4192L29.4329 28.1919C30.1108 28.2061 30.7887 28.1919 31.4666 28.1919C31.7491 28.1919 31.7632 28.1919 31.7632 28.4903C31.7914 29.9681 31.7914 31.4459 31.7773 32.9237Z" fill="#03638B"/>
<path d="M40.9575 24.6394H44.7284H44.9685L45.1097 24.7815V26.1883L44.9685 26.3303H44.7001C42.4969 26.3303 40.2937 26.3303 38.0904 26.3303C37.7232 26.3303 37.356 26.3588 37.003 26.444C36.5369 26.5577 36.325 26.8135 36.2968 27.2966C36.2827 27.6945 36.2827 28.1065 36.2968 28.5044C36.325 29.1723 36.7205 29.5843 37.4408 29.6696C37.6526 29.698 37.8786 29.698 38.1046 29.698C39.0649 29.698 40.0253 29.698 40.9716 29.698C41.8049 29.698 42.6099 29.8259 43.3725 30.1527C43.7256 30.309 44.0787 30.4938 44.3753 30.7495C44.799 31.1048 45.025 31.5595 45.0108 32.1279C44.9967 32.6536 44.9967 33.1794 45.0108 33.7051C45.025 34.4582 44.7142 35.0408 44.1069 35.4813C43.4996 35.9218 42.7935 36.1776 42.0591 36.3197C41.6777 36.3907 41.2823 36.405 40.901 36.405H34.0936H33.9947C33.7405 36.405 33.7405 36.405 33.7405 36.1492C33.7405 35.7371 33.7405 35.325 33.7405 34.9129L33.9382 34.7282H34.1783H40.5761C40.9292 34.7282 41.2682 34.6998 41.593 34.6003C41.8331 34.5293 42.045 34.4014 42.2144 34.2167C42.3698 34.0604 42.4545 33.8756 42.4404 33.6483C42.4263 33.2504 42.4404 32.8383 42.4404 32.4405C42.4404 31.9289 42.2144 31.6021 41.7201 31.4458C41.3247 31.3179 40.9151 31.2753 40.5055 31.2753C39.6722 31.2753 38.839 31.2753 38.0057 31.2753C37.1442 31.2611 36.2968 31.1474 35.4918 30.8348C35.0398 30.6643 34.6302 30.4227 34.2913 30.0675C33.9382 29.7122 33.7546 29.2859 33.7687 28.7744C33.7828 28.2913 33.7687 27.8081 33.7687 27.3392C33.7828 26.3872 34.1924 25.6909 35.0257 25.2504C35.7601 24.8525 36.5369 24.682 37.3702 24.6678C38.5565 24.6394 39.757 24.6536 40.9575 24.6394Z" fill="#E38E27"/>
<path d="M63.3711 29.2292C63.3711 30.5507 63.3711 31.8722 63.3711 33.1937V33.5915C63.3993 34.032 63.6112 34.3588 64.0207 34.5152C64.4021 34.6715 64.8116 34.7141 65.2353 34.7141C66.5064 34.7141 67.7917 34.7141 69.0627 34.7141C69.9808 34.7141 70.8846 34.7141 71.8027 34.7141C72.0569 34.7141 72.0569 34.7141 72.0569 34.9699C72.0569 35.3819 72.0569 35.794 72.0569 36.2061L71.8591 36.405H71.8309C69.5006 36.405 67.1561 36.405 64.8258 36.3766C64.049 36.3624 63.2722 36.2203 62.5519 35.9219C62.213 35.7798 61.8881 35.6093 61.6198 35.3535C61.1396 34.9272 60.8854 34.3731 60.8289 33.7336L60.8148 33.2647C60.8148 30.508 60.8148 27.7656 60.8148 25.0089C60.8148 24.5826 60.7583 24.6395 61.182 24.6395C61.7893 24.6395 62.3824 24.6395 62.9897 24.6395C63.3993 24.6395 63.3569 24.6111 63.3569 24.9947C63.3711 26.4015 63.3711 27.8082 63.3711 29.2292Z" fill="#E38E25"/>
<path d="M75.1357 36.1491C75.9549 36.1491 76.5763 35.4955 76.5763 34.6713C76.5763 33.8471 75.9407 33.1935 75.1357 33.1935C74.3166 33.1935 73.6669 33.8614 73.681 34.6997C73.6951 35.5239 74.3166 36.1491 75.1357 36.1491ZM77 34.6713C77 35.737 76.1667 36.5612 75.1075 36.547C74.0624 36.5328 73.2573 35.7228 73.2573 34.6571C73.2573 33.6056 74.1047 32.7672 75.1498 32.7814C76.195 32.7956 77 33.6198 77 34.6713Z" fill="#E6932D"/>
<path d="M54.77 6.69272C54.544 6.03908 54.1486 5.4849 53.6967 4.97336C54.3887 4.68916 54.7559 4.8881 55.0807 5.39964C55.3773 5.86856 55.2502 6.3659 54.77 6.69272Z" fill="#1C658C"/>
<path d="M59.7697 21.9681L59.7838 21.8118L59.9391 21.9254C60.1933 22.2238 60.4899 22.4654 60.8148 22.7354C60.4758 22.707 60.1792 22.4796 59.7697 21.9681Z" fill="#447398"/>
<path d="M75.0934 34.5152L75.4747 34.4583L75.5453 34.0036L74.8109 33.9184L74.7403 34.3447L74.8956 34.5152H75.0934ZM75.4606 34.8136C75.6583 35.112 75.8278 35.3962 76.0114 35.6804C75.6442 35.7514 75.6442 35.7514 75.5029 35.5099C75.39 35.3251 75.2628 35.1262 75.1499 34.9415L74.938 34.7994L74.7262 34.9841C74.7262 35.1546 74.7262 35.3393 74.7262 35.5241L74.5567 35.7372L74.3872 35.5241C74.3872 35.0836 74.3872 34.6289 74.3872 34.1884V33.7479L74.5426 33.5774C74.8533 33.5916 75.164 33.5489 75.4747 33.6058C75.8278 33.6626 75.9831 33.8047 76.0114 34.1031C76.0538 34.4583 75.9408 34.6289 75.5877 34.771L75.4606 34.8136Z" fill="#E6932D"/>
</g>
<defs>
<clipPath id="clip0">
<rect width="77" height="40" fill="white"/>
</clipPath>
</defs>
</svg>
