<svg width="56" height="81" viewBox="0 0 56 81" fill="none" xmlns="http://www.w3.org/2000/svg">
<path d="M27.6768 29.6196C30.4004 29.6196 32.6234 27.4113 32.6234 24.6731C32.6234 21.9495 30.4151 19.7266 27.6768 19.7266C24.9533 19.7266 22.7303 21.9348 22.7303 24.6731C22.7451 27.3966 24.9533 29.6196 27.6768 29.6196Z" fill="#4CC7EC"/>
<path d="M27.6769 15.8106C21.8176 15.737 15.9731 16.5909 10.3788 18.3427C4.84345 20.2713 2.35548 22.9212 2.35548 24.6731C2.35548 26.5133 5.02011 29.384 10.8794 31.4009C16.3264 33.035 21.9943 33.7858 27.6769 33.6533C33.2417 33.7564 38.7918 33.0056 44.1358 31.4156C50.2158 29.3988 52.9835 26.5133 52.9835 24.6878C52.8805 24.0548 52.6596 23.4659 52.3063 22.9212C51.9677 22.3912 51.5114 21.9348 50.9814 21.5815C49.1117 20.1388 46.9918 19.0199 44.7246 18.3133C39.2187 16.5614 33.4625 15.7223 27.6769 15.8106ZM27.6769 36.0088C21.7293 36.156 15.8111 35.3463 10.1138 33.6386C7.47864 32.7995 5.03483 31.4892 2.88546 29.7668C2.06104 29.1779 1.38384 28.4124 0.883304 27.5438C0.382765 26.6605 0.0736087 25.6889 0 24.6878C0 21.4196 3.5921 18.2102 9.61329 16.1198C15.4578 14.2648 21.5526 13.3668 27.6916 13.4551C33.7422 13.3668 39.7634 14.2501 45.5343 16.0756C48.0665 16.8853 50.4367 18.1366 52.5272 19.7707C53.3368 20.3302 54.014 21.0663 54.4999 21.9201C54.9857 22.774 55.2948 23.7162 55.3832 24.7025C55.3832 28.1032 51.3641 31.5481 44.9013 33.6828C39.307 35.3169 33.5067 36.0971 27.6769 36.0088Z" fill="#4CC7EC"/>
<path d="M19.9627 20.2566C16.9594 25.2914 14.7954 30.7826 13.5146 36.5094C12.4252 42.2803 13.4704 45.7399 15.0015 46.6232C16.5767 47.536 20.4191 46.6674 25.0858 42.6042C29.2227 38.7029 32.697 34.1686 35.4205 29.178C38.2912 24.4081 40.4112 19.2113 41.7067 13.8085C43.0022 7.53701 41.8833 3.69464 40.2934 2.76717C39.7045 2.54635 39.0568 2.4433 38.4237 2.47274C37.7907 2.48746 37.1724 2.6494 36.5982 2.94383C34.4047 3.84186 32.3878 5.12265 30.6507 6.72732C26.3961 10.6433 22.7893 15.2218 19.9774 20.2713L19.9627 20.2566ZM16.4589 49.332C15.5314 49.3615 14.6187 49.1259 13.8237 48.6843C10.9971 47.0502 10.0108 42.3392 11.2032 36.0825C12.5135 30.0907 14.7806 24.364 17.9311 19.0936C20.8754 13.8085 24.6442 9.03863 29.1049 4.94599C31.0629 3.14994 33.33 1.72193 35.7885 0.735574C36.6866 0.323365 37.6582 0.102539 38.6298 0.102539C39.6015 0.102539 40.5878 0.323365 41.4711 0.735574C44.4155 2.42857 45.3871 7.62534 44.018 14.2943C42.6636 19.9622 40.4553 25.3798 37.4668 30.3704C34.6255 35.5819 30.9598 40.3223 26.6316 44.4002C24.6 46.2552 22.2298 47.7273 19.6682 48.7284C18.6377 49.0965 17.5483 49.3026 16.4589 49.332Z" fill="#4CC7EC"/>
<path d="M19.9627 29.1779C22.8334 34.2863 26.4991 38.909 30.8273 42.8838C35.2733 46.7115 38.8065 47.5359 40.3228 46.6379C41.8981 45.7104 43.0758 41.9711 41.8686 35.891C40.5584 30.3704 38.3648 25.0853 35.4058 20.2565C32.7117 15.3836 29.2668 10.9524 25.233 7.12474C20.4338 2.87016 16.5472 1.91325 14.972 2.84072C14.4715 3.2382 14.074 3.73874 13.7795 4.31289C13.4851 4.87232 13.3232 5.49063 13.279 6.13838C12.9698 8.49386 13.0729 10.8788 13.5882 13.1901C14.8395 18.8138 16.9889 24.2314 19.9627 29.1779ZM38.9095 49.3467C36.2302 49.3467 32.8295 47.7273 29.2815 44.6799C24.7472 40.5578 20.9049 35.7291 17.9163 30.3704C14.8101 25.1736 12.5576 19.5204 11.2474 13.617C10.6733 11.026 10.5702 8.34664 10.9382 5.71145C11.0119 4.73982 11.321 3.79763 11.8068 2.94377C12.2926 2.08991 12.9698 1.36854 13.7648 0.794395C16.7092 -0.913326 21.6851 0.838561 26.7788 5.35813C31.0187 9.36244 34.6108 13.9851 37.4374 19.0641C40.5437 24.1431 42.8108 29.6637 44.1799 35.4494C44.7688 38.1434 44.8718 40.9258 44.4449 43.6494C44.3419 44.6504 44.0327 45.6221 43.5174 46.5054C43.0022 47.374 42.3103 48.1248 41.4858 48.7136C40.7056 49.1553 39.8076 49.3761 38.9095 49.3467Z" fill="#4CC7EC"/>
<path opacity="0.7" d="M16.1374 76.676L13.0414 72.104C15.0214 71.69 16.0834 70.196 16.0834 68.306C16.0834 66.074 14.6074 64.4 11.8714 64.4H8.48739C8.32539 64.4 8.21739 64.508 8.21739 64.67V76.73C8.21739 76.892 8.32539 77 8.48739 77H9.35139C9.51339 77 9.62139 76.892 9.62139 76.73V72.212H11.6194L14.6794 76.82C14.7514 76.946 14.8594 77 15.0034 77H15.9574C16.1734 77 16.2634 76.874 16.1374 76.676ZM9.62139 65.696H11.7994C13.4194 65.696 14.7154 66.416 14.7154 68.306C14.7154 70.196 13.4194 70.916 11.7994 70.916H9.62139V65.696ZM21.1401 67.982C18.6021 67.982 16.8201 70.016 16.8201 72.608C16.8201 75.2 18.6561 77.234 21.2841 77.234C22.5981 77.234 23.7501 76.748 24.5781 75.884C24.7221 75.74 24.7041 75.614 24.5601 75.47L24.2181 75.146C24.0741 75.02 23.9661 75.074 23.8401 75.182C23.2641 75.668 22.5261 76.064 21.4281 76.064C19.5561 76.064 18.3501 74.84 18.1521 73.166H24.7581C25.2081 73.166 25.2801 72.878 25.2801 72.266C25.2801 70.016 23.6781 67.982 21.1401 67.982ZM21.1401 69.17C22.8141 69.17 24.0201 70.466 24.0921 72.122H18.1341C18.3141 70.412 19.4841 69.17 21.1401 69.17ZM34.9669 68.18H34.2289C34.0669 68.18 33.9769 68.288 33.9589 68.45L33.8869 69.584C33.2029 68.63 32.1409 68 30.7729 68C28.2529 68 26.4529 70.034 26.4529 72.608C26.4529 75.182 28.2529 77.216 30.7729 77.216C32.1409 77.216 33.1849 76.586 33.8869 75.65L33.9589 76.73C33.9769 76.892 34.0669 77 34.2289 77H34.9669C35.1289 77 35.2369 76.892 35.2369 76.73V68.45C35.2369 68.288 35.1289 68.18 34.9669 68.18ZM30.8809 75.992C29.0809 75.992 27.7489 74.534 27.7489 72.59C27.7489 70.664 29.0809 69.224 30.8809 69.224C32.6809 69.224 33.9949 70.754 33.9949 72.59C33.9949 74.444 32.6809 75.992 30.8809 75.992ZM41.1993 76.01C39.3633 76.01 38.0673 74.552 38.0673 72.608C38.0673 70.664 39.3633 69.206 41.1993 69.206C42.5853 69.206 43.1793 69.872 43.7013 70.34C43.8453 70.466 43.9713 70.466 44.0973 70.34L44.5473 69.926C44.6553 69.818 44.6733 69.674 44.5653 69.548C43.7373 68.594 42.5853 67.982 41.1993 67.982C38.6613 67.982 36.7713 70.016 36.7713 72.608C36.7713 75.2 38.6613 77.234 41.1993 77.234C42.6213 77.234 43.7913 76.622 44.6193 75.668C44.7273 75.542 44.7093 75.398 44.6013 75.29L44.1513 74.876C44.0253 74.75 43.8993 74.732 43.7553 74.876C43.2513 75.38 42.6213 76.01 41.1993 76.01ZM49.8213 68.18H48.5613V65.75C48.5613 65.588 48.4533 65.48 48.2913 65.48H47.4813C47.3193 65.48 47.2113 65.588 47.2113 65.75V68.18H45.9513C45.7893 68.18 45.6813 68.288 45.6813 68.45V69.062C45.6813 69.224 45.7893 69.332 45.9513 69.332H47.2113V76.73C47.2113 76.892 47.3193 77 47.4813 77H48.2913C48.4533 77 48.5613 76.892 48.5613 76.73V69.332H49.8213C49.9833 69.332 50.0913 69.224 50.0913 69.062V68.45C50.0913 68.288 49.9833 68.18 49.8213 68.18Z" fill="black"/>
</svg>
