<svg width="91" height="29" viewBox="0 0 91 29" fill="none" xmlns="http://www.w3.org/2000/svg">
<g clip-path="url(#clip0)">
<path d="M49.8026 8.98028C49.8026 9.69857 49.2104 10.3458 48.4366 10.3458C47.8444 10.3458 47.3312 10.5037 46.8969 10.8352C46.4074 11.143 46.0205 11.5772 45.7125 12.0666C45.0966 12.8875 44.7887 13.8662 44.6545 14.2293V19.1153C44.6545 19.8573 44.0149 20.4808 43.2411 20.4808C42.4989 20.4808 41.8751 19.8651 41.8751 19.1153V8.98817C41.8751 8.2462 42.491 7.6542 43.2411 7.6542C44.0149 7.6542 44.6545 8.2462 44.6545 8.98817V9.16971C44.8124 8.98817 45.0177 8.78295 45.1914 8.65665C46.0362 8.08833 47.1417 7.63052 48.4287 7.6542C49.2104 7.64631 49.8026 8.23831 49.8026 8.98028Z" fill="#636466"/>
<path d="M49.0524 14.0477C49.0761 10.551 51.8001 7.62256 55.3296 7.62256C58.6695 7.62256 61.3226 10.1168 61.5279 13.582V13.7083C61.5279 13.7635 61.5279 13.8898 61.5042 13.9372C61.4252 14.5529 60.8883 14.9633 60.1698 14.9633H51.9896C52.116 15.5553 52.4002 16.2263 52.8661 16.6604C53.403 17.2761 54.4374 17.7418 55.3375 17.8207C56.2613 17.8996 57.3667 17.6628 58.0142 17.1813C58.5511 16.613 59.6092 16.692 59.9408 17.1024C60.2724 17.4655 60.533 18.2311 59.9408 18.7758C58.6775 19.9361 57.1614 20.4729 55.3375 20.4729C51.8001 20.4492 49.0761 17.5444 49.0524 14.0477ZM51.8554 12.7848H59.1354C58.8748 11.7586 57.5641 10.2431 55.3296 10.0616C53.1424 10.1642 52.0607 11.735 51.8554 12.7848Z" fill="#636466"/>
<path d="M74.6193 19.0835C74.6193 19.8255 74.0034 20.4727 73.2296 20.4727C72.5348 20.4727 71.9979 19.9833 71.8636 19.3677C70.8845 20.0386 69.6528 20.4727 68.3658 20.4727C64.8916 20.4727 62.1201 17.5443 62.1201 14.0713C62.1201 10.5508 64.8995 7.62244 68.3658 7.62244C69.6291 7.62244 70.8608 8.03288 71.8084 8.70381V3.87312C71.8084 3.13115 72.4242 2.48389 73.2217 2.48389C73.9955 2.48389 74.6114 3.12325 74.6114 3.87312V14.0555V14.0792L74.6193 19.0835ZM68.3737 10.4246C67.4498 10.4246 66.5971 10.8113 65.9575 11.4823C65.3179 12.1216 64.931 13.053 64.931 14.0792C64.931 15.0579 65.3179 15.9814 65.9575 16.6208C66.5971 17.2917 67.4498 17.6785 68.3737 17.6785C69.3212 17.6785 70.1502 17.2917 70.7898 16.6208C71.4294 15.9814 71.8163 15.05 71.8163 14.0792C71.8163 13.053 71.4294 12.1295 70.7898 11.4823C70.1502 10.8034 69.3212 10.4246 68.3737 10.4246Z" fill="#636466"/>
<path d="M79.5147 4.40985C79.5147 5.1834 78.9225 5.82276 78.125 5.82276C77.3512 5.82276 76.7354 5.1834 76.7354 4.40985V3.87312C76.7354 3.09957 77.3512 2.48389 78.125 2.48389C78.9225 2.48389 79.5147 3.09957 79.5147 3.87312V4.40985ZM79.5147 9.05901V19.0835C79.5147 19.857 78.9225 20.4727 78.125 20.4727C77.3512 20.4727 76.7354 19.857 76.7354 19.0835V9.05901C76.7354 8.23811 77.3512 7.64611 78.125 7.64611C78.9225 7.64611 79.5147 8.23811 79.5147 9.05901Z" fill="#636466"/>
<path d="M81.2834 16.7947C81.7493 16.179 82.6494 16.1001 83.21 16.5894C83.8812 17.1578 85.034 17.7498 86.0368 17.7182C86.7316 17.7182 87.3712 17.4893 87.7818 17.2288C88.145 16.921 88.2476 16.6605 88.2476 16.4553C88.2476 16.329 88.2239 16.2737 88.1686 16.1948C88.145 16.1158 88.0423 16.0132 87.837 15.8869C87.4738 15.6265 86.7079 15.3502 85.7762 15.1686H85.7525C84.955 15.0108 84.1812 14.8055 83.518 14.4977C82.8232 14.1662 82.2073 13.7005 81.7414 13.0059C81.4572 12.5402 81.3071 11.9797 81.3071 11.3877C81.3071 10.2037 81.9783 9.20131 82.8231 8.56195C83.7233 7.94627 84.805 7.61475 85.9894 7.61475C87.766 7.61475 89.0214 8.45934 89.8426 9.02765C90.4584 9.43811 90.6401 10.2906 90.2532 10.9299C89.8426 11.5456 88.9898 11.7272 88.3503 11.293C87.5291 10.7563 86.8106 10.3379 85.9815 10.3379C85.3419 10.3379 84.7734 10.5432 84.4418 10.8036C84.1102 11.0326 84.0312 11.2694 84.0312 11.3956C84.0312 11.4983 84.0312 11.5219 84.0865 11.6009C84.1102 11.6561 84.1891 11.7587 84.3707 11.8613C84.7024 12.0903 85.3735 12.3271 86.25 12.477L86.2736 12.5007H86.2973C87.1422 12.6586 87.9397 12.8875 88.6898 13.2427C89.3846 13.5505 90.0795 14.0399 90.5137 14.7582C90.8217 15.2713 91.0033 15.8633 91.0033 16.4553C91.0033 17.7182 90.3084 18.768 89.3846 19.4389C88.4608 20.0783 87.3001 20.465 86.0447 20.465C84.0391 20.4414 82.4994 19.5178 81.4651 18.6891C80.8966 18.2312 80.8176 17.363 81.2834 16.7947Z" fill="#636466"/>
<path d="M32.5185 22.3594C30.7103 23.2987 21.3537 27.1427 19.364 28.1846C17.3742 29.2265 16.2688 29.2108 14.6896 28.4609C13.1183 27.711 3.16161 23.6854 1.36134 22.833C0.461215 22.4067 -0.00463867 22.0436 -0.00463867 21.7042V18.2864C-0.00463867 18.2864 12.9604 15.4685 15.0528 14.7186C17.1452 13.9688 17.8716 13.9372 19.6561 14.5924C21.4406 15.2475 32.0842 17.1656 33.845 17.8128C33.845 17.8128 33.845 20.8675 33.845 21.1833C33.845 21.5148 33.4423 21.8858 32.5185 22.3594Z" fill="#A41E11"/>
<path d="M32.5185 18.9416C30.7103 19.8809 21.3537 23.7249 19.3639 24.7669C17.3742 25.8088 16.2687 25.793 14.6896 25.0431C13.1183 24.2933 3.16158 20.2677 1.36132 19.4152C-0.431041 18.5548 -0.470517 17.9707 1.29026 17.2761C3.05104 16.5894 12.9525 12.7059 15.0449 11.9481C17.1373 11.1983 17.8637 11.1667 19.6482 11.8218C21.4326 12.477 30.734 16.1789 32.4869 16.8183C34.2634 17.4656 34.3266 18.0023 32.5185 18.9416Z" fill="#D82C20"/>
<path d="M32.5185 16.7866C30.7103 17.7259 21.3537 21.5699 19.364 22.6119C17.3742 23.6538 16.2688 23.638 14.6896 22.8881C13.1183 22.1383 3.16161 18.1127 1.36134 17.2602C0.461215 16.834 -0.00463867 16.4709 -0.00463867 16.1315V12.7137C-0.00463867 12.7137 12.9604 9.89575 15.0528 9.14589C17.1452 8.39602 17.8716 8.36445 19.6561 9.01959C21.4406 9.67474 32.0842 11.5928 33.845 12.2401C33.845 12.2401 33.845 15.2948 33.845 15.6105C33.845 15.9341 33.4423 16.3051 32.5185 16.7866Z" fill="#A41E11"/>
<path d="M32.5185 13.361C30.7103 14.3003 21.3537 18.1444 19.3639 19.1863C17.3742 20.2282 16.2687 20.2124 14.6896 19.4626C13.1183 18.7127 3.16158 14.6871 1.36132 13.8346C-0.431041 12.9743 -0.470517 12.3902 1.29026 11.6955C3.05104 11.0088 12.9525 7.12532 15.0449 6.36756C17.1373 5.6177 17.8637 5.58613 19.6482 6.24128C21.4326 6.89642 30.734 10.5905 32.4869 11.2377C34.2634 11.8929 34.3266 12.4217 32.5185 13.361Z" fill="#D82C20"/>
<path d="M32.5185 11.001C30.7103 11.9403 21.3537 15.7922 19.364 16.8262C17.3742 17.8681 16.2688 17.8523 14.6896 17.1025C13.1183 16.3526 3.16161 12.327 1.36134 11.4746C0.461215 11.0483 -0.00463867 10.6852 -0.00463867 10.3458V6.92801C-0.00463867 6.92801 12.9604 4.1101 15.0528 3.36024C17.1452 2.61037 17.8716 2.57881 19.6561 3.23395C21.4406 3.8891 32.0842 5.80716 33.845 6.45441C33.845 6.45441 33.845 9.50912 33.845 9.82486C33.845 10.1485 33.4423 10.5195 32.5185 11.001Z" fill="#A41E11"/>
<path d="M32.5187 7.5832C30.7105 8.52251 21.3539 12.3744 19.3642 13.4085C17.3744 14.4504 16.269 14.4346 14.6898 13.6847C13.1185 12.9349 3.16183 8.90928 1.36157 8.05681C-0.430796 7.19644 -0.470273 6.61233 1.29051 5.91772C3.05129 5.231 12.9527 1.34749 15.0451 0.589737C17.1375 -0.160127 17.864 -0.191703 19.6484 0.463441C21.4329 1.11858 30.7342 4.81265 32.4871 5.4599C34.2637 6.10715 34.3269 6.63601 32.5187 7.5832Z" fill="#D82C20"/>
<path d="M21.3616 4.28375L18.4244 4.59159L17.769 6.17025L16.7109 4.41004L13.3236 4.10221L15.8503 3.19448L15.0923 1.79736L17.4531 2.72088L19.6877 1.98681L19.0876 3.43128L21.3616 4.28375Z" fill="white"/>
<path d="M17.5953 11.9481L12.1234 9.67487L19.964 8.4751L17.5953 11.9481Z" fill="white"/>
<path d="M10.0073 8.41196C12.3229 8.41196 14.2 7.68397 14.2 6.78594C14.2 5.88792 12.3229 5.15991 10.0073 5.15991C7.69171 5.15991 5.81458 5.88792 5.81458 6.78594C5.81458 7.68397 7.69171 8.41196 10.0073 8.41196Z" fill="white"/>
<path d="M24.8279 4.71777L29.4706 6.54903L24.8279 8.38027V4.71777Z" fill="#7A0C00"/>
<path d="M19.6876 6.74636L24.8278 4.71777V8.38027L24.3225 8.5776L19.6876 6.74636Z" fill="#AD2115"/>
</g>
<defs>
<clipPath id="clip0">
<rect width="91" height="29" fill="white"/>
</clipPath>
</defs>
</svg>
