<svg width="51" height="80" viewBox="0 0 51 80" fill="none" xmlns="http://www.w3.org/2000/svg">
<path d="M13.7769 34.6222C13.8372 36.5549 15.4667 38.095 17.413 38.095H17.5488C19.5555 38.0346 21.1246 36.3586 21.0492 34.3655C20.9888 32.4328 19.3594 30.8927 17.413 30.8927H17.2773C17.1415 30.8927 16.9604 30.8927 16.8246 30.9531C14.1692 26.5744 13.0527 21.8182 13.445 16.6694C13.7015 12.804 14.999 9.46713 17.2773 6.6889C19.1632 4.30324 22.7993 3.15571 25.2586 3.08021C32.1386 2.95942 35.0657 11.4451 35.2618 14.8575C36.1067 15.0538 37.54 15.5068 38.5057 15.8238C37.7362 5.40547 31.2485 0 25.0173 0C19.1783 0 13.7769 4.18245 11.6495 10.358C8.66218 18.6021 10.6085 26.514 14.2446 32.7499C13.9127 33.2029 13.7165 33.9125 13.7769 34.6222ZM46.7586 25.5477C41.825 19.8251 34.5527 16.6694 26.2394 16.6694H25.1983C24.6099 15.5068 23.3727 14.7367 22.0148 14.7367H21.879C19.8723 14.7971 18.3032 16.4731 18.3787 18.4662C18.439 20.3989 20.0685 21.939 22.0148 21.939H22.1506C23.5839 21.8786 24.806 20.9726 25.3341 19.7496H26.4958C31.4295 19.7496 36.1067 21.1689 40.3313 23.9321C43.5751 26.061 45.9137 28.8242 47.2113 32.1762C48.3127 34.8789 48.2523 37.5212 47.0755 39.771C45.2499 43.1834 42.2022 45.0406 38.1737 45.0406C35.5787 45.0406 33.1043 44.2705 31.8067 43.6968C31.0976 44.346 29.8001 45.3728 28.8797 46.0069C31.6709 47.2903 34.5225 48 37.2534 48C43.4846 48 48.1014 44.5876 49.8516 41.1752C51.7678 37.4608 51.632 31.0135 46.7586 25.5477ZM35.3372 33.5351C37.2232 33.3388 38.6415 31.7383 38.5811 29.8056C38.5207 27.8729 36.8913 26.3328 34.945 26.3328H34.8092C32.8025 26.3932 31.2334 28.0692 31.3088 30.0623C31.3692 31.0286 31.7615 31.8591 32.3499 32.4479C30.1471 36.7663 26.7674 39.9069 21.6979 42.5492C18.2579 44.346 14.6822 44.9953 11.1215 44.5423C8.19445 44.1497 5.93129 42.8663 4.49796 40.7373C2.41586 37.5816 2.21972 34.1692 3.98498 30.7568C5.22218 28.3108 7.16848 26.514 8.40567 25.608C8.14918 24.7625 7.7569 23.3583 7.56076 22.3315C-1.85397 29.0959 -0.873264 38.2309 1.97831 42.5341C4.12077 45.7502 8.46604 47.7433 13.279 47.7433C14.5766 47.7433 15.8741 47.6225 17.1716 47.2903C25.4699 45.6898 31.7615 40.7977 35.3372 33.5351Z" fill="#6C499C"/>
<path opacity="0.7" d="M10.8041 75.676L7.70808 71.104C9.68808 70.69 10.7501 69.196 10.7501 67.306C10.7501 65.074 9.27408 63.4 6.53808 63.4H3.15408C2.99208 63.4 2.88408 63.508 2.88408 63.67V75.73C2.88408 75.892 2.99208 76 3.15408 76H4.01808C4.18008 76 4.28808 75.892 4.28808 75.73V71.212H6.28608L9.34608 75.82C9.41808 75.946 9.52608 76 9.67008 76H10.6241C10.8401 76 10.9301 75.874 10.8041 75.676ZM4.28808 64.696H6.46608C8.08608 64.696 9.38208 65.416 9.38208 67.306C9.38208 69.196 8.08608 69.916 6.46608 69.916H4.28808V64.696ZM15.8068 66.982C13.2688 66.982 11.4868 69.016 11.4868 71.608C11.4868 74.2 13.3228 76.234 15.9508 76.234C17.2648 76.234 18.4168 75.748 19.2448 74.884C19.3888 74.74 19.3708 74.614 19.2268 74.47L18.8848 74.146C18.7408 74.02 18.6328 74.074 18.5068 74.182C17.9308 74.668 17.1928 75.064 16.0948 75.064C14.2228 75.064 13.0168 73.84 12.8188 72.166H19.4248C19.8748 72.166 19.9468 71.878 19.9468 71.266C19.9468 69.016 18.3448 66.982 15.8068 66.982ZM15.8068 68.17C17.4808 68.17 18.6868 69.466 18.7588 71.122H12.8008C12.9808 69.412 14.1508 68.17 15.8068 68.17ZM29.6336 62.86H28.8236C28.6616 62.86 28.5536 62.968 28.5536 63.13V68.584C27.8696 67.63 26.8076 67 25.4396 67C22.9196 67 21.1196 69.034 21.1196 71.608C21.1196 74.182 22.9196 76.216 25.4396 76.216C26.8076 76.216 27.8516 75.586 28.5536 74.65L28.6256 75.73C28.6436 75.892 28.7336 76 28.8956 76H29.6336C29.7956 76 29.9036 75.892 29.9036 75.73V63.13C29.9036 62.968 29.7956 62.86 29.6336 62.86ZM25.5476 74.992C23.7476 74.992 22.4156 73.534 22.4156 71.59C22.4156 69.664 23.7476 68.224 25.5476 68.224C27.3476 68.224 28.6616 69.754 28.6616 71.59C28.6616 73.444 27.3476 74.992 25.5476 74.992ZM38.782 67.18H37.972C37.81 67.18 37.702 67.288 37.702 67.45V72.868C37.702 73.426 36.766 75.046 35.074 75.046C33.76 75.046 32.968 74.182 32.968 72.598V67.45C32.968 67.288 32.86 67.18 32.698 67.18H31.888C31.726 67.18 31.618 67.288 31.618 67.45V72.688C31.618 75.046 32.86 76.234 34.876 76.234C36.154 76.234 37.09 75.55 37.702 74.65L37.774 75.73C37.792 75.892 37.882 76 38.044 76H38.782C38.944 76 39.052 75.892 39.052 75.73V67.45C39.052 67.288 38.944 67.18 38.782 67.18ZM47.5806 75.676L44.7546 71.5L47.4546 67.504C47.5806 67.324 47.4906 67.18 47.2746 67.18H46.3566C46.2126 67.18 46.1046 67.234 46.0326 67.36L44.0706 70.42L42.1086 67.36C42.0186 67.234 41.9286 67.18 41.7846 67.18H40.8666C40.6506 67.18 40.5786 67.324 40.6866 67.504L43.3686 71.5L40.5606 75.676C40.4346 75.856 40.5246 76 40.7406 76H41.6586C41.8026 76 41.8926 75.946 41.9826 75.82L44.0706 72.562L46.1586 75.82C46.2306 75.946 46.3386 76 46.4826 76H47.4006C47.6166 76 47.7066 75.856 47.5806 75.676Z" fill="black"/>
</svg>
