<svg width="70" height="89" viewBox="0 0 70 89" fill="none" xmlns="http://www.w3.org/2000/svg">
<path opacity="0.7" d="M2.5332 74.7601C2.5332 73.5181 3.5412 72.8161 4.8372 72.8161C5.9352 72.8161 6.7452 73.2841 7.5552 74.0941C7.6812 74.2201 7.8072 74.2021 7.9332 74.0761L8.3832 73.6081C8.5092 73.4641 8.5092 73.3561 8.4012 73.2301C7.5192 72.1861 6.1872 71.5381 4.8372 71.5381C2.7672 71.5381 1.2012 72.8881 1.2012 74.7421C1.2012 78.8101 7.6452 77.9281 7.6452 80.9701C7.6452 82.2121 6.5652 83.2201 4.9092 83.2201C3.5952 83.2201 2.6592 82.5541 1.9392 81.7801C1.8132 81.6541 1.6872 81.6361 1.5612 81.7441L1.0392 82.2481C0.913203 82.3561 0.895203 82.4641 0.985203 82.6081C1.7952 83.6701 3.1812 84.5161 4.9272 84.5161C7.1952 84.5161 9.0312 82.9861 9.0312 81.0421C9.0312 76.7761 2.5332 77.7301 2.5332 74.7601ZM14.7639 84.5161C17.2839 84.5161 19.2279 82.5001 19.2279 79.8901C19.2279 77.2801 17.2839 75.2641 14.7639 75.2641C12.2439 75.2641 10.2999 77.2801 10.2999 79.8901C10.2999 82.5001 12.2439 84.5161 14.7639 84.5161ZM14.7639 83.2921C12.9819 83.2921 11.5959 81.8701 11.5959 79.8901C11.5959 77.9101 12.9819 76.4881 14.7639 76.4881C16.5459 76.4881 17.9319 77.9101 17.9319 79.8901C17.9319 81.8701 16.5459 83.2921 14.7639 83.2921ZM24.8353 83.2921C22.9993 83.2921 21.7033 81.8341 21.7033 79.8901C21.7033 77.9461 22.9993 76.4881 24.8353 76.4881C26.2213 76.4881 26.8153 77.1541 27.3373 77.6221C27.4813 77.7481 27.6073 77.7481 27.7333 77.6221L28.1833 77.2081C28.2913 77.1001 28.3093 76.9561 28.2013 76.8301C27.3733 75.8761 26.2213 75.2641 24.8353 75.2641C22.2973 75.2641 20.4073 77.2981 20.4073 79.8901C20.4073 82.4821 22.2973 84.5161 24.8353 84.5161C26.2573 84.5161 27.4273 83.9041 28.2553 82.9501C28.3633 82.8241 28.3453 82.6801 28.2373 82.5721L27.7873 82.1581C27.6613 82.0321 27.5353 82.0141 27.3913 82.1581C26.8873 82.6621 26.2573 83.2921 24.8353 83.2921ZM37.3612 83.9581L33.5992 79.1881L36.8572 75.7861C37.0192 75.6061 36.9472 75.4621 36.7132 75.4621H35.7952C35.6692 75.4621 35.5432 75.4981 35.4532 75.6061L31.1152 80.1781V71.4121C31.1152 71.2501 31.0072 71.1421 30.8452 71.1421H30.0352C29.8732 71.1421 29.7652 71.2501 29.7652 71.4121V84.0121C29.7652 84.1741 29.8732 84.2821 30.0352 84.2821H30.8452C31.0072 84.2821 31.1152 84.1741 31.1152 84.0121V81.7621L32.7712 80.0341L35.9752 84.1201C36.0652 84.2461 36.1552 84.2821 36.2992 84.2821H37.1992C37.4152 84.2821 37.5052 84.1381 37.3612 83.9581ZM41.7605 75.2641C39.2225 75.2641 37.4405 77.2981 37.4405 79.8901C37.4405 82.4821 39.2765 84.5161 41.9045 84.5161C43.2185 84.5161 44.3705 84.0301 45.1985 83.1661C45.3425 83.0221 45.3245 82.8961 45.1805 82.7521L44.8385 82.4281C44.6945 82.3021 44.5865 82.3561 44.4605 82.4641C43.8845 82.9501 43.1465 83.3461 42.0485 83.3461C40.1765 83.3461 38.9705 82.1221 38.7725 80.4481H45.3785C45.8285 80.4481 45.9005 80.1601 45.9005 79.5481C45.9005 77.2981 44.2985 75.2641 41.7605 75.2641ZM41.7605 76.4521C43.4345 76.4521 44.6405 77.7481 44.7125 79.4041H38.7545C38.9345 77.6941 40.1045 76.4521 41.7605 76.4521ZM51.0355 75.4621H49.7755V73.0321C49.7755 72.8701 49.6675 72.7621 49.5055 72.7621H48.6955C48.5335 72.7621 48.4255 72.8701 48.4255 73.0321V75.4621H47.1655C47.0035 75.4621 46.8955 75.5701 46.8955 75.7321V76.3441C46.8955 76.5061 47.0035 76.6141 47.1655 76.6141H48.4255V84.0121C48.4255 84.1741 48.5335 84.2821 48.6955 84.2821H49.5055C49.6675 84.2821 49.7755 84.1741 49.7755 84.0121V76.6141H51.0355C51.1975 76.6141 51.3055 76.5061 51.3055 76.3441V75.7321C51.3055 75.5701 51.1975 75.4621 51.0355 75.4621ZM52.9198 71.9521V84.0121C52.9198 84.1741 53.0278 84.2821 53.1898 84.2821H54.0538C54.2158 84.2821 54.3238 84.1741 54.3238 84.0121V71.9521C54.3238 71.7901 54.2158 71.6821 54.0538 71.6821H53.1898C53.0278 71.6821 52.9198 71.7901 52.9198 71.9521ZM62.5722 84.5161C66.1182 84.5161 68.9982 81.6361 68.9982 78.0361C68.9982 74.4181 66.1182 71.5381 62.5722 71.5381C59.0082 71.5381 56.1282 74.4181 56.1282 78.0361C56.1282 81.6361 59.0082 84.5161 62.5722 84.5161ZM62.5722 83.2021C59.7282 83.2021 57.4962 80.9161 57.4962 78.0361C57.4962 75.1381 59.7282 72.8521 62.5722 72.8521C65.3982 72.8521 67.6302 75.1381 67.6302 78.0361C67.6302 80.9161 65.3982 83.2021 62.5722 83.2021Z" fill="black"/>
<path d="M33.0365 26.7371C30.0399 31.3524 26.9461 35.903 23.9495 40.5183C29.6835 36.0811 35.1259 31.32 40.7465 26.7857C38.1711 26.7533 35.5957 26.7371 33.0365 26.7371ZM45.0713 10.462C39.3536 14.8992 33.8949 19.6279 28.3067 24.1946C30.8659 24.227 33.4413 24.227 36.0006 24.2108C38.981 19.6117 42.0748 15.0611 45.0713 10.462ZM34.2351 3.59571C44.7474 3.57952 55.0329 11.709 56.0857 22.5752C58.0943 34.6074 48.1165 46.8502 35.9196 47.2065C24.3383 48.3563 13.1295 38.5264 12.7894 26.8667C11.9309 17.4417 18.1508 8.06529 27.0271 4.95602C29.3272 4.06534 31.773 3.59571 34.2351 3.59571ZM34.3808 0.000615063C32.2427 0.000615063 30.1209 0.275915 28.0476 0.810321C18.1022 3.28802 10.2139 12.292 9.19343 22.5266C7.94621 32.1945 12.8218 42.2835 21.1798 47.2712C29.392 52.421 40.5035 52.2104 48.5376 46.8016C55.7617 42.1053 60.2485 33.5548 59.9893 24.9234C59.8598 16.3891 55.0815 8.08148 47.7439 3.69288C43.7755 1.21518 39.0781 -0.0317732 34.3808 0.000615063Z" fill="black"/>
</svg>
