<svg width="74" height="31" viewBox="0 0 74 31" fill="none" xmlns="http://www.w3.org/2000/svg">
<path d="M63.8431 14.0544C63.8431 11.7189 65.2635 10.7415 66.5612 10.7415C67.818 10.7415 69.1566 11.7189 69.1566 14.0544H63.8431ZM74 16.0196C74 10.7209 71.4557 6.54364 66.5816 6.54364C61.6871 6.54364 58.7341 10.7209 58.7341 15.9784C58.7341 22.2134 62.2287 25.3515 67.2458 25.3515C69.6879 25.3515 71.5476 24.7959 72.9373 24.0037V19.8676C71.5374 20.5775 69.9332 21.0096 67.8997 21.0096C65.9072 21.0096 64.1395 20.2997 63.9147 17.8613H73.9693C73.9591 17.5938 74 16.5134 74 16.0196ZM49.5581 20.8039C48.3422 20.8039 47.6269 20.3717 47.1364 19.8264L47.116 12.151C47.6473 11.5543 48.383 11.1324 49.5581 11.1324C51.4281 11.1324 52.7258 13.2416 52.7258 15.9578C52.7258 18.7358 51.4485 20.8039 49.5581 20.8039ZM50.7945 6.54364C48.7816 6.54364 47.4838 7.5005 46.7686 8.15898L46.5029 6.87288H41.9763V31L47.116 29.8991L47.1364 24.0448C47.8824 24.5798 48.9655 25.3515 50.7741 25.3515C54.4526 25.3515 57.8042 22.3677 57.8042 15.8138C57.7838 9.81547 54.3913 6.54364 50.7945 6.54364ZM34.9053 5.31928L40.0655 4.19781V0L34.9053 1.1009V5.31928ZM34.9053 6.89346H40.0655V25.0017H34.9053V6.89346ZM29.3772 8.42649L29.0503 6.89346H24.6156V25.0017H29.7553V12.7272C30.9713 11.1324 33.0251 11.4205 33.6587 11.6469V6.89346C32.9945 6.64653 30.583 6.18354 29.3772 8.42649ZM19.0978 2.39728L14.0806 3.4776L14.0602 20.0528C14.0602 23.1188 16.3389 25.3721 19.3839 25.3721C21.0699 25.3721 22.3063 25.0634 22.9807 24.693V20.4849C22.3267 20.7524 19.0773 21.7093 19.0773 18.6432V11.297H22.9807V6.89346H19.0773L19.0978 2.39728ZM5.20105 12.151C5.20105 11.3485 5.85501 11.0295 6.94836 11.0295C8.51174 11.0295 10.4838 11.5028 12.0472 12.3568V7.49021C10.3408 6.81115 8.65479 6.54364 6.94836 6.54364C2.77934 6.54364 0 8.73515 0 12.3979C0 18.1082 7.8169 17.2028 7.8169 19.6618C7.8169 20.6084 6.98923 20.9273 5.84479 20.9273C4.13836 20.9273 1.96189 20.2277 0.235018 19.2708V24.1991C2.14582 25.0222 4.07705 25.3721 5.84479 25.3721C10.116 25.3721 13.0588 23.2423 13.0588 19.5383C13.0282 13.3754 5.20105 14.466 5.20105 12.151Z" fill="#5E5DA8"/>
</svg>
