<svg width="132" height="80" viewBox="0 0 132 80" fill="none" xmlns="http://www.w3.org/2000/svg">
<path opacity="0.7" d="M2.45508 66.4781C2.45508 65.2361 3.46308 64.5341 4.75908 64.5341C5.85708 64.5341 6.66708 65.0021 7.47708 65.8121C7.60308 65.9381 7.72908 65.9201 7.85508 65.7941L8.30508 65.3261C8.43108 65.1821 8.43108 65.0741 8.32308 64.9481C7.44108 63.9041 6.10908 63.2561 4.75908 63.2561C2.68908 63.2561 1.12308 64.6061 1.12308 66.4601C1.12308 70.5281 7.56708 69.6461 7.56708 72.6881C7.56708 73.9301 6.48708 74.9381 4.83108 74.9381C3.51708 74.9381 2.58108 74.2721 1.86108 73.4981C1.73508 73.3721 1.60908 73.3541 1.48308 73.4621L0.961078 73.9661C0.835078 74.0741 0.817078 74.1821 0.907078 74.3261C1.71708 75.3881 3.10308 76.2341 4.84908 76.2341C7.11708 76.2341 8.95308 74.7041 8.95308 72.7601C8.95308 68.4941 2.45508 69.4481 2.45508 66.4781ZM13.9202 67.1801H12.6602V64.7501C12.6602 64.5881 12.5522 64.4801 12.3902 64.4801H11.5802C11.4182 64.4801 11.3102 64.5881 11.3102 64.7501V67.1801H10.0502C9.88823 67.1801 9.78023 67.2881 9.78023 67.4501V68.0621C9.78023 68.2241 9.88823 68.3321 10.0502 68.3321H11.3102V75.7301C11.3102 75.8921 11.4182 76.0001 11.5802 76.0001H12.3902C12.5522 76.0001 12.6602 75.8921 12.6602 75.7301V68.3321H13.9202C14.0822 68.3321 14.1902 68.2241 14.1902 68.0621V67.4501C14.1902 67.2881 14.0822 67.1801 13.9202 67.1801ZM23.1486 67.1801H22.3026C22.1586 67.1801 22.0326 67.2521 21.9786 67.3961L19.2786 74.4701L16.5786 67.3961C16.5246 67.2521 16.3986 67.1801 16.2546 67.1801H15.4266C15.2286 67.1801 15.1386 67.2881 15.2106 67.4861L18.5946 76.0361L17.3526 79.1141C17.2806 79.3121 17.3706 79.4201 17.5686 79.4201H18.3966C18.5406 79.4201 18.6666 79.3481 18.7206 79.2041L23.3646 67.4861C23.4366 67.2881 23.3466 67.1801 23.1486 67.1801ZM24.7477 63.1301V75.7301C24.7477 75.8921 24.8557 76.0001 25.0177 76.0001H25.8277C25.9897 76.0001 26.0977 75.8921 26.0977 75.7301V63.1301C26.0977 62.9681 25.9897 62.8601 25.8277 62.8601H25.0177C24.8557 62.8601 24.7477 62.9681 24.7477 63.1301ZM31.9441 66.9821C29.4061 66.9821 27.6241 69.0161 27.6241 71.6081C27.6241 74.2001 29.4601 76.2341 32.0881 76.2341C33.4021 76.2341 34.5541 75.7481 35.3821 74.8841C35.5261 74.7401 35.5081 74.6141 35.3641 74.4701L35.0221 74.1461C34.8781 74.0201 34.7701 74.0741 34.6441 74.1821C34.0681 74.6681 33.3301 75.0641 32.2321 75.0641C30.3601 75.0641 29.1541 73.8401 28.9561 72.1661H35.5621C36.0121 72.1661 36.0841 71.8781 36.0841 71.2661C36.0841 69.0161 34.4821 66.9821 31.9441 66.9821ZM31.9441 68.1701C33.6181 68.1701 34.8241 69.4661 34.8961 71.1221H28.9381C29.1181 69.4121 30.2881 68.1701 31.9441 68.1701ZM42.6548 70.3301H37.7948C37.6328 70.3301 37.5248 70.4381 37.5248 70.6001V71.2301C37.5248 71.3921 37.6328 71.5001 37.7948 71.5001H42.6548C42.8168 71.5001 42.9248 71.3921 42.9248 71.2301V70.6001C42.9248 70.4381 42.8168 70.3301 42.6548 70.3301ZM48.7865 75.0101C46.9505 75.0101 45.6545 73.5521 45.6545 71.6081C45.6545 69.6641 46.9505 68.2061 48.7865 68.2061C50.1725 68.2061 50.7665 68.8721 51.2885 69.3401C51.4325 69.4661 51.5585 69.4661 51.6845 69.3401L52.1345 68.9261C52.2425 68.8181 52.2605 68.6741 52.1525 68.5481C51.3245 67.5941 50.1725 66.9821 48.7865 66.9821C46.2485 66.9821 44.3585 69.0161 44.3585 71.6081C44.3585 74.2001 46.2485 76.2341 48.7865 76.2341C50.2085 76.2341 51.3785 75.6221 52.2065 74.6681C52.3145 74.5421 52.2965 74.3981 52.1885 74.2901L51.7385 73.8761C51.6125 73.7501 51.4865 73.7321 51.3425 73.8761C50.8385 74.3801 50.2085 75.0101 48.7865 75.0101ZM57.6467 76.2341C60.1667 76.2341 62.1107 74.2181 62.1107 71.6081C62.1107 68.9981 60.1667 66.9821 57.6467 66.9821C55.1267 66.9821 53.1827 68.9981 53.1827 71.6081C53.1827 74.2181 55.1267 76.2341 57.6467 76.2341ZM57.6467 75.0101C55.8647 75.0101 54.4787 73.5881 54.4787 71.6081C54.4787 69.6281 55.8647 68.2061 57.6467 68.2061C59.4287 68.2061 60.8147 69.6281 60.8147 71.6081C60.8147 73.5881 59.4287 75.0101 57.6467 75.0101ZM74.052 66.9821C72.468 66.9821 71.406 67.7741 70.794 68.7821C70.326 67.5761 69.318 66.9821 67.986 66.9821C66.636 66.9821 65.646 67.7381 64.998 68.6921L64.926 67.4501C64.908 67.2881 64.818 67.1801 64.656 67.1801H63.918C63.756 67.1801 63.648 67.2881 63.648 67.4501V75.7301C63.648 75.8921 63.756 76.0001 63.918 76.0001H64.728C64.89 76.0001 64.998 75.8921 64.998 75.7301V70.2761C64.998 69.9161 65.952 68.1881 67.698 68.1881C68.958 68.1881 69.732 69.0161 69.732 70.5821V75.7301C69.732 75.8921 69.84 76.0001 70.002 76.0001H70.812C70.974 76.0001 71.082 75.8921 71.082 75.7301V70.5461C71.082 69.7181 71.856 68.1881 73.782 68.1881C75.042 68.1881 75.816 69.0161 75.816 70.5821V75.7301C75.816 75.8921 75.924 76.0001 76.086 76.0001H76.896C77.058 76.0001 77.166 75.8921 77.166 75.7301V70.4921C77.166 68.1341 75.924 66.9821 74.052 66.9821ZM83.4226 67.0001C82.0546 67.0001 80.9926 67.6301 80.3086 68.5841L80.2366 67.4501C80.2186 67.2881 80.1286 67.1801 79.9666 67.1801H79.2286C79.0666 67.1801 78.9586 67.2881 78.9586 67.4501V79.1501C78.9586 79.3121 79.0666 79.4201 79.2286 79.4201H80.0386C80.2006 79.4201 80.3086 79.3121 80.3086 79.1501V74.6501C81.0106 75.5861 82.0546 76.2161 83.4226 76.2161C85.9426 76.2161 87.7426 74.1821 87.7426 71.6081C87.7426 69.0341 85.9426 67.0001 83.4226 67.0001ZM83.3146 74.9921C81.5146 74.9921 80.2006 73.4441 80.2006 71.5901C80.2006 69.7541 81.5146 68.2241 83.3146 68.2241C85.1146 68.2241 86.4466 69.6641 86.4466 71.5901C86.4466 73.5341 85.1146 74.9921 83.3146 74.9921ZM93.3831 76.2341C95.9031 76.2341 97.8471 74.2181 97.8471 71.6081C97.8471 68.9981 95.9031 66.9821 93.3831 66.9821C90.8631 66.9821 88.9191 68.9981 88.9191 71.6081C88.9191 74.2181 90.8631 76.2341 93.3831 76.2341ZM93.3831 75.0101C91.6011 75.0101 90.2151 73.5881 90.2151 71.6081C90.2151 69.6281 91.6011 68.2061 93.3831 68.2061C95.1651 68.2061 96.5511 69.6281 96.5511 71.6081C96.5511 73.5881 95.1651 75.0101 93.3831 75.0101ZM103.722 66.9821C102.372 66.9821 101.382 67.7381 100.734 68.6921L100.662 67.4501C100.644 67.2881 100.554 67.1801 100.392 67.1801H99.6544C99.4924 67.1801 99.3844 67.2881 99.3844 67.4501V75.7301C99.3844 75.8921 99.4924 76.0001 99.6544 76.0001H100.464C100.626 76.0001 100.734 75.8921 100.734 75.7301V70.2761C100.734 69.9161 101.688 68.1881 103.434 68.1881C104.694 68.1881 105.468 69.0161 105.468 70.5821V75.7301C105.468 75.8921 105.576 76.0001 105.738 76.0001H106.548C106.71 76.0001 106.818 75.8921 106.818 75.7301V70.4921C106.818 68.1341 105.576 66.9821 103.722 66.9821ZM112.663 66.9821C110.125 66.9821 108.343 69.0161 108.343 71.6081C108.343 74.2001 110.179 76.2341 112.807 76.2341C114.121 76.2341 115.273 75.7481 116.101 74.8841C116.245 74.7401 116.227 74.6141 116.083 74.4701L115.741 74.1461C115.597 74.0201 115.489 74.0741 115.363 74.1821C114.787 74.6681 114.049 75.0641 112.951 75.0641C111.079 75.0641 109.873 73.8401 109.675 72.1661H116.281C116.731 72.1661 116.803 71.8781 116.803 71.2661C116.803 69.0161 115.201 66.9821 112.663 66.9821ZM112.663 68.1701C114.337 68.1701 115.543 69.4661 115.615 71.1221H109.657C109.837 69.4121 111.007 68.1701 112.663 68.1701ZM122.672 66.9821C121.322 66.9821 120.332 67.7381 119.684 68.6921L119.612 67.4501C119.594 67.2881 119.504 67.1801 119.342 67.1801H118.604C118.442 67.1801 118.334 67.2881 118.334 67.4501V75.7301C118.334 75.8921 118.442 76.0001 118.604 76.0001H119.414C119.576 76.0001 119.684 75.8921 119.684 75.7301V70.2761C119.684 69.9161 120.638 68.1881 122.384 68.1881C123.644 68.1881 124.418 69.0161 124.418 70.5821V75.7301C124.418 75.8921 124.526 76.0001 124.688 76.0001H125.498C125.66 76.0001 125.768 75.8921 125.768 75.7301V70.4921C125.768 68.1341 124.526 66.9821 122.672 66.9821ZM130.991 67.1801H129.731V64.7501C129.731 64.5881 129.623 64.4801 129.461 64.4801H128.651C128.489 64.4801 128.381 64.5881 128.381 64.7501V67.1801H127.121C126.959 67.1801 126.851 67.2881 126.851 67.4501V68.0621C126.851 68.2241 126.959 68.3321 127.121 68.3321H128.381V75.7301C128.381 75.8921 128.489 76.0001 128.651 76.0001H129.461C129.623 76.0001 129.731 75.8921 129.731 75.7301V68.3321H130.991C131.153 68.3321 131.261 68.2241 131.261 68.0621V67.4501C131.261 67.2881 131.153 67.1801 130.991 67.1801Z" fill="black"/>
<path d="M13.9789 29.1338C19.311 32.4983 24.407 35.6858 29.4636 38.9519C30.0736 39.3454 31.5099 39.4438 30.4868 40.9588C29.6211 42.2378 28.9521 42.0607 27.8109 41.3327C22.8723 38.1649 17.8747 35.1152 12.9165 31.9868C10.516 30.4914 10.575 27.7171 13.0148 26.1824C17.9928 23.0934 22.9707 20.0043 27.9486 16.9152C28.8143 16.384 29.4833 15.6757 30.3884 17.0923C31.2541 18.4696 30.5262 18.8041 29.5817 19.3944C24.4857 22.5818 19.37 25.7693 13.9789 29.1338Z" fill="#545353"/>
<path d="M117.079 28.6225C111.806 25.2973 106.71 22.0902 101.634 18.9028C100.768 18.3715 99.804 18.0961 100.729 16.6204C101.673 15.125 102.381 15.9908 103.188 16.4827C108.245 19.6111 113.282 22.7395 118.319 25.8876C120.483 27.2452 120.581 30.0392 118.476 31.3574C113.4 34.5646 108.245 37.693 103.228 40.9788C101.85 41.8839 101.358 41.2936 100.65 40.2902C99.7057 38.9719 101.024 38.7948 101.594 38.421C106.002 35.6074 110.449 32.8724 114.876 30.0982C115.544 29.6653 116.233 29.1734 117.079 28.6225Z" fill="#545353"/>
<path d="M76.8621 25.9661C76.9015 27.1073 76.9212 28.2681 76.9605 29.4093C75.0716 30.944 73.2025 32.4984 71.3136 34.0331C71.1365 34.2102 70.9594 34.3676 70.7823 34.5446L70.8217 34.525C69.4641 34.4856 68.5984 35.0562 68.4213 36.4729C68.2639 36.6106 68.1261 36.7483 67.9687 36.886C67.1227 36.827 66.5128 37.2599 65.8438 37.7124C63.0302 39.6013 60.4526 41.8246 57.2652 43.1429C56.5175 43.4577 55.6715 44.4415 54.9435 43.5954C54.2351 42.7494 55.278 41.9624 55.7502 41.3721C58.6425 37.7911 62.3415 35.0562 65.647 31.9081C66.2176 31.3572 67.0046 31.0817 67.8507 31.3769C68.5393 31.613 69.228 31.731 69.8379 31.1604C70.1527 31.003 70.4676 30.8456 70.7627 30.6882C71.7268 30.6882 72.5335 30.4324 72.6515 29.2912C73.8911 27.9927 75.3078 26.8908 76.8621 25.9661Z" fill="#FDD15E"/>
<path d="M69.838 31.1801C69.2281 31.7507 68.5394 31.6327 67.8508 31.3966C67.0047 31.1014 66.2177 31.3769 65.6471 31.9278C62.3416 35.0759 58.6426 37.8108 55.7503 41.3918C55.2584 41.9821 54.2156 42.7691 54.9436 43.6151C55.6716 44.4612 56.5176 43.4774 57.2653 43.1626C60.433 41.864 63.0303 39.6407 65.8439 37.7321C66.5128 37.2796 67.1228 36.8271 67.9688 36.9058C67.1621 37.8502 66.3358 38.7946 65.5291 39.7587H65.5487C61.5152 42.1001 57.9146 44.9924 54.6287 48.2783C51.7561 48.2783 48.8834 48.2586 46.0108 48.2586C50.792 43.8316 55.5338 39.3652 60.3544 35.0169C62.44 33.128 64.3485 30.9834 67.0244 29.8422H67.2211L67.4179 29.8225V29.8029C67.8311 30.8457 68.8345 30.7473 69.6806 30.9834C69.7199 31.0227 69.779 31.1014 69.838 31.1801Z" fill="#FDD15E"/>
<path d="M67.0047 29.8027C64.3288 30.9439 62.4202 33.0885 60.3346 34.9774C55.4944 39.3454 50.7723 43.8117 45.9911 48.2191C43.1185 48.1207 45.204 45.9957 44.6531 44.9333C46.2075 43.7134 47.9193 42.6509 49.2966 41.2736C51.638 38.9519 54.8648 37.6139 56.5766 34.6036C57.5014 34.5052 58.249 34.1707 58.4851 33.1672C58.6425 32.9902 58.7802 32.8327 58.9377 32.6753C59.6263 32.6753 60.1575 32.4392 60.3543 31.7309C61.7906 31.6916 62.4793 30.5504 63.3647 29.724C64.1714 28.9763 64.9191 28.1499 66.1586 28.3467C66.4538 28.8386 66.7292 29.3305 67.0047 29.8027Z" fill="#FFC635"/>
<path d="M76.8622 25.9663C75.3079 26.891 73.8912 27.9732 72.6516 29.3111C72.1007 29.1931 71.7269 29.5472 71.3137 29.7833C70.0151 29.7833 68.7165 29.7833 67.4179 29.7833V29.803C66.7489 27.678 67.6343 26.163 69.2281 24.8447C70.5857 23.7429 71.7859 22.464 73.2222 21.4999C74.4815 20.6538 75.6226 18.7256 77.2557 19.5717C78.7314 20.339 77.6689 22.3263 77.9444 23.7429C77.787 24.589 76.8032 25.0218 76.8622 25.9663Z" fill="#E28FBA"/>
<path d="M67.9294 21.362C67.7326 21.8343 67.5358 22.3065 67.3391 22.7787C66.3356 23.8018 64.7419 24.0773 64.0336 25.4546C63.1285 26.1039 62.2038 26.7532 61.2987 27.3828C59.9018 27.3631 58.5835 27.186 58.0523 25.612C57.5604 24.156 58.4261 23.2706 59.3312 22.3261C61.2003 20.3783 63.2466 18.6862 65.4896 17.2302C66.1389 16.7973 66.8275 16.2464 67.6539 16.6792C68.5983 17.1711 68.1458 17.9975 68.0474 18.7649C67.9491 19.6306 67.9687 20.4963 67.9294 21.362Z" fill="#E28FBA"/>
<path d="M70.2905 48.2389C69.0116 48.2389 67.7524 48.2389 66.4735 48.2389C66.9064 46.173 68.0475 44.5792 69.5232 43.1036C70.3889 42.2378 71.5301 41.5689 71.7269 40.1916C72.5336 40.1325 73.419 40.4277 74.0486 39.6406V39.6997C74.3831 39.5423 74.7373 39.3849 75.0717 39.2078L75.0127 39.2275C75.3866 39.0701 75.7604 38.893 76.1342 38.7356C76.2522 38.5978 76.3703 38.4404 76.4884 38.3027C76.6458 38.1453 76.7835 37.9682 76.9409 37.8108L76.9606 37.7911C79.0069 38.224 79.3807 38.893 78.2789 40.4867C77.7083 41.3327 77.0589 42.0804 76.9999 43.1626C76.8819 43.3003 76.7441 43.438 76.6261 43.5758C74.2847 44.835 72.1007 46.2713 70.2905 48.2389Z" fill="#FDD15E"/>
<path d="M74.0485 39.6603C73.4189 40.4474 72.5335 40.1522 71.7268 40.2112C71.0185 39.5816 70.4479 39.9161 69.8576 40.4277C68.4607 41.6869 66.9653 42.8478 65.647 44.1857C64.4075 45.445 62.6367 46.3107 62.1645 48.2389C60.2559 48.2389 58.3474 48.2389 56.4388 48.2389C58.6228 45.8975 61.2593 44.0677 63.7188 42.0608C64.5058 41.4311 65.4109 40.8999 65.5093 39.739C66.6701 39.8768 67.3194 39.0897 68.0278 38.4011C68.6967 37.7321 69.4051 37.1812 70.4479 37.496C71.3726 38.6569 72.317 39.7981 74.0485 39.6603Z" fill="#FFC635"/>
<path d="M76.4883 38.3223C76.3702 38.46 76.2522 38.6174 76.1144 38.7552C75.7996 38.7748 75.5045 38.7748 75.2093 38.7945C74.8945 38.7748 74.5797 38.7945 74.2649 38.7552C73.1041 38.5584 71.8842 38.4403 71.4119 37.0631C70.9791 35.7448 71.8841 34.9971 72.6908 34.2691C73.6746 33.364 74.8158 32.636 75.7012 31.6523C76.685 30.5307 77.4524 30.4717 78.3378 31.6719C79.3019 32.3409 80.443 32.0458 81.4859 32.2425C81.6039 33.3444 80.5218 33.9937 80.4234 34.9971C79.0658 35.6858 77.964 36.6892 76.9802 37.7911L76.9605 37.8107C76.6654 37.8698 76.4489 38.0075 76.4883 38.3223Z" fill="#E28FBA"/>
<path d="M44.6334 43.517C44.6334 41.4707 44.6334 39.4048 44.6334 37.3585C45.4795 37.2798 45.9123 36.5321 46.542 36.119C48.9817 34.5843 50.4181 31.8887 53.1333 30.6885C52.8972 32.479 51.4608 33.4234 50.3787 34.6433C49.8868 35.1942 48.7456 35.7058 49.2768 36.4534C49.9458 37.3979 50.9099 36.6108 51.756 36.1977C52.9956 35.6074 53.9793 34.4268 55.5337 34.5252C52.2085 37.8898 48.3128 40.5656 44.6334 43.517Z" fill="#FFD259"/>
<path d="M53.1531 30.708C50.4575 31.8886 49.0015 34.6038 46.5617 36.1385C45.9321 36.5517 45.4993 37.2797 44.6532 37.3781C44.6532 36.2762 44.6532 35.1547 44.6532 34.0529C47.093 32.774 48.8835 30.59 51.2052 29.1537C53.0941 27.9928 54.0582 25.4546 56.7144 25.494C57.1669 26.1236 57.5998 26.7532 58.0524 27.3828L57.8556 27.4615C56.9308 27.3435 56.0454 27.3828 55.5338 28.3469C54.5697 28.9372 53.763 29.7439 53.1531 30.708Z" fill="#FFC635"/>
<path d="M82.7451 21.5981C82.7845 19.7879 83.4338 18.0958 83.8076 16.3643C84.9882 15.8725 84.4175 14.8296 84.5552 14.0229V14.0426C85.1652 13.5114 85.0078 12.7834 85.0471 12.1144V12.1341C85.9522 11.288 85.3423 9.14339 87.4279 9.28112C87.6444 9.41885 87.8608 9.55657 88.0576 9.6943C88.2346 11.4258 86.7589 12.9801 87.5263 14.7706C86.7393 17.3678 85.9522 19.965 85.1849 22.5622C84.3388 22.3261 83.3747 22.3851 82.7451 21.5981Z" fill="#E28FBA"/>
<path d="M58.0524 27.3629C57.5998 26.7333 57.1669 26.1036 56.7144 25.474C56.6554 24.7854 56.616 24.0967 56.557 23.4278C59.1542 20.7519 61.9481 18.3121 65.1552 16.3642C66.2964 15.6756 67.536 14.7705 68.8543 15.8133C70.2316 16.9151 69.3265 18.2727 68.9723 19.5123C68.7756 20.201 68.4804 20.8503 67.9295 21.3421C67.9689 20.4764 67.9492 19.6107 68.0476 18.7646C68.1459 17.9973 68.5985 17.1709 67.654 16.679C66.8277 16.2462 66.1391 16.8168 65.4898 17.2299C63.2467 18.7056 61.1808 20.378 59.3116 22.3259C58.4065 23.2704 57.5408 24.1558 58.0327 25.6118C58.5639 27.1858 59.8822 27.3629 61.2791 27.3826C60.5905 28.2286 59.6658 27.7564 58.8394 27.8154C58.5836 27.658 58.3082 27.5203 58.0524 27.3629Z" fill="#C25894"/>
<path d="M62.1842 48.2389C62.6761 46.3107 64.4273 45.4646 65.6668 44.1857C66.9851 42.8478 68.4804 41.6672 69.8774 40.4277C70.448 39.9161 71.0383 39.5816 71.7466 40.2112C71.5498 41.5885 70.4087 42.2575 69.5429 43.1232C68.0869 44.5792 66.926 46.1926 66.4932 48.2586C65.0372 48.2389 63.6205 48.2389 62.1842 48.2389Z" fill="#FDD15E"/>
<path d="M78.3182 31.6919C77.4525 30.4916 76.6851 30.5507 75.6817 31.6722C74.7963 32.656 73.6551 33.4036 72.6713 34.289C71.8646 35.0367 70.9595 35.7647 71.3924 37.083C71.8449 38.4603 73.0845 38.5783 74.2453 38.7751C74.5601 38.8341 74.875 38.8144 75.1898 38.8144C75.1308 38.9718 75.052 39.1096 74.993 39.267L75.052 39.2473C74.6585 39.2866 74.2454 39.3063 74.0289 39.7392V39.6802C72.2975 39.8376 71.353 38.6964 70.4283 37.5158C70.3889 36.7485 70.1135 35.9615 70.566 35.2335C70.6447 35.017 70.7234 34.7809 70.7824 34.5645L70.7431 34.5842C70.9201 34.4071 71.0972 34.2497 71.2743 34.0726C73.1631 32.5379 75.0324 30.9835 76.9212 29.4488C79.3217 28.8782 79.9906 26.6549 81.1908 24.9431C81.0728 25.7892 80.8563 26.6549 80.876 27.5009C80.8957 28.6421 79.4791 29.5472 80.3448 30.8065C79.6955 31.0622 79.0068 31.377 78.3182 31.6919Z" fill="#C25894"/>
<path d="M77.9444 23.7429C77.6689 22.3262 78.7314 20.339 77.2557 19.5717C75.6227 18.7256 74.4815 20.6735 73.2223 21.4999C71.7859 22.464 70.5661 23.7429 69.2281 24.8447C67.6344 26.1433 66.749 27.678 67.4179 29.803L67.2212 29.8227H67.0244C66.749 29.3308 66.4735 28.8389 66.198 28.347C66.021 27.619 66.0013 26.9107 66.3751 26.2417C66.4932 26.163 66.5325 26.0646 66.5129 25.9269C67.0441 25.6317 67.3392 25.1399 67.5557 24.6086C69.7987 22.8772 72.0024 21.0867 74.3241 19.4733C75.544 18.6272 76.9606 17.1909 78.5543 18.4501C80.1481 19.7094 78.8691 21.3031 78.5346 22.7394C78.4363 23.0936 78.1412 23.4084 77.9444 23.7429Z" fill="#C25894"/>
<path d="M85.9327 0.800826C86.9165 0.78115 87.9199 0.761475 88.9037 0.761475C88.4315 2.74871 87.9199 4.73595 87.4871 6.72319C87.2903 7.56924 86.9558 8.19886 86.031 8.31692C84.6144 7.64794 84.3783 6.60514 84.8505 5.16882C85.2834 3.75217 85.5785 2.25682 85.9327 0.800826Z" fill="#E28FBA"/>
<path d="M80.3645 30.7671C79.4987 29.5079 80.9153 28.6028 80.876 27.4616C80.8563 26.6156 81.0925 25.7695 81.2105 24.9038C81.1318 24.4512 81.3876 24.2151 81.7417 24.0184C83.0403 23.5658 84.3193 23.1723 84.9686 24.9628C84.8112 26.891 83.4338 28.1896 82.5484 29.744C81.6434 29.6653 80.9744 30.1375 80.3645 30.7671Z" fill="#E28FBA"/>
<path d="M85.9327 0.80099C85.5785 2.25699 85.3031 3.75233 84.8308 5.16898C84.3783 6.6053 84.5948 7.64811 86.0114 8.31708C86.3852 8.74994 86.9165 8.76962 87.428 8.7893C87.428 8.9467 87.428 9.1041 87.4084 9.28119C85.3031 9.14346 85.9327 11.2684 85.0276 12.1342C85.6179 9.96983 85.067 8.41546 83.1388 7.01849C81.0925 5.56249 83.0207 3.81136 83.2962 2.19796C83.611 0.545207 84.6931 0.584558 85.9327 0.80099Z" fill="#D26FA9"/>
<path d="M87.428 8.78913C86.9164 8.76945 86.3852 8.74978 86.0114 8.31692C86.9558 8.19886 87.2902 7.56924 87.4673 6.72319C87.9002 4.73595 88.4118 2.74871 88.884 0.761475C89.6907 0.761475 90.4974 0.761475 91.3237 0.761475C90.7335 2.86677 90.1039 4.95238 89.5529 7.05768C89.2578 8.17919 88.6676 8.86783 87.428 8.78913Z" fill="#E28FBA"/>
<path d="M44.6334 43.5167C48.3128 40.5653 52.2085 37.8894 55.5534 34.5446C55.8485 34.5052 56.124 34.4659 56.4191 34.4265C56.4781 34.4855 56.5372 34.5642 56.5765 34.6233C54.8648 37.6336 51.6379 38.9519 49.2965 41.2933C47.8996 42.6706 46.2074 43.7528 44.6531 44.953C44.6531 44.4808 44.6334 44.0085 44.6334 43.5167Z" fill="#ED9B25"/>
<path d="M87.428 8.78921C88.6676 8.84823 89.2382 8.17926 89.5333 7.05775C90.0842 4.95246 90.7139 2.86684 91.3041 0.761548C92.3076 0.702521 92.1699 1.43052 92.1699 2.04046C92.1699 3.51614 92.1501 5.01148 92.1305 6.48716C91.855 8.94661 89.671 8.96629 88.038 9.67461C87.8215 9.53688 87.6051 9.39915 87.4083 9.26142C87.428 9.12369 87.428 8.96629 87.428 8.78921Z" fill="#C25894"/>
<path d="M65.5291 39.7391C65.4308 40.9 64.506 41.4116 63.7387 42.0609C61.2792 44.0678 58.6623 45.9173 56.4586 48.2587C55.8487 48.2587 55.2191 48.2587 54.6092 48.2784C57.895 44.9729 61.4956 42.0805 65.5291 39.7391Z" fill="#ED9B25"/>
<path d="M56.5569 23.4083C56.6159 24.097 56.6552 24.7856 56.7142 25.4546C54.058 25.4152 53.0743 27.9534 51.2051 29.1143C48.903 30.5506 47.1125 32.7346 44.6531 34.0135C44.3776 32.951 45.3024 32.6952 45.8533 32.223C49.3949 29.2913 52.9759 26.3597 56.5569 23.4083Z" fill="#ED9B25"/>
<path d="M76.9606 37.8109C77.9641 36.6894 79.0659 35.6859 80.4039 35.017C81.2696 38.5783 79.5971 41.0771 77 43.202C77.059 42.1395 77.7083 41.3722 78.2789 40.5261C79.3808 38.9127 79.0069 38.2241 76.9606 37.8109Z" fill="#FDD15E"/>
<path d="M88.0576 9.67463C89.6907 8.96631 91.8746 8.94664 92.1501 6.48718C92.1501 8.15961 93.0355 10.383 89.8284 9.89107C89.12 9.79269 89.002 10.4617 88.8249 10.9732C88.4117 12.2325 87.9591 13.4917 87.5066 14.7509C86.7589 12.9801 88.2347 11.4258 88.0576 9.67463Z" fill="#C25894"/>
<path d="M70.2906 48.239C72.0811 46.2714 74.2848 44.8548 76.6065 43.6152C75.0915 45.937 73.6945 48.4554 70.2906 48.239Z" fill="#FDD15E"/>
<path d="M80.3644 30.7671C80.9743 30.1572 81.6236 29.6653 82.5681 29.7834C82.6074 30.7868 82.1155 31.5542 81.4662 32.2625C80.4234 32.0657 79.2822 32.3805 78.3181 31.6919C79.0068 31.3771 79.6954 31.0623 80.3644 30.7671Z" fill="#C25894"/>
<path d="M67.5359 24.589C67.3195 25.1202 67.0243 25.6121 66.4931 25.9073C66.0602 23.7429 64.8403 25.6908 64.0336 25.435C64.742 24.0577 66.3357 23.7823 67.3391 22.7592C67.4178 23.3888 67.4769 23.9987 67.5359 24.589Z" fill="#FFC635"/>
<path d="M84.9882 24.9824C84.3389 23.1919 83.06 23.5854 81.7614 24.0379C81.5646 23.0148 82.6665 22.5032 82.7649 21.5981C83.3945 22.3852 84.3389 22.3458 85.1849 22.5623C85.1062 23.369 85.0472 24.1757 84.9882 24.9824Z" fill="#C25894"/>
<path d="M84.5751 14.0229C84.4177 14.8296 85.0079 15.8921 83.8274 16.3643C84.0635 15.5773 84.3193 14.7903 84.5751 14.0229Z" fill="#D26FA9"/>
<path d="M85.0473 12.1144C85.008 12.7834 85.185 13.5113 84.5554 14.0426C84.5751 13.3539 84.4964 12.6456 85.0473 12.1144Z" fill="#D26FA9"/>
<path d="M70.5856 35.2136C70.1331 35.9416 70.3889 36.7286 70.4479 37.496C69.4051 37.1812 68.6967 37.7321 68.0278 38.4011C67.3391 39.0897 66.6701 39.8964 65.5093 39.739C66.316 38.7946 67.1424 37.8502 67.9491 36.886C68.1065 36.7483 68.2442 36.6106 68.4016 36.4729C69.1296 36.0597 69.8576 35.6268 70.5856 35.2136Z" fill="#ED9B25"/>
<path d="M70.5857 35.2136C69.8577 35.6465 69.1297 36.0596 68.4017 36.4925C68.5788 35.0759 69.4445 34.5053 70.8021 34.5446C70.7431 34.7611 70.6644 34.9775 70.5857 35.2136Z" fill="#FDD15E"/>
<path d="M71.3137 29.7833C71.7466 29.5472 72.1204 29.193 72.6516 29.311C72.5336 30.4522 71.7466 30.708 70.7628 30.708L70.7234 30.649C70.9201 30.3539 71.1169 30.0784 71.3137 29.7833Z" fill="#FDD15E"/>
<path d="M70.7627 30.7079C70.4479 30.8653 70.1331 31.0227 69.838 31.1801C69.779 31.1014 69.7199 31.0424 69.6805 30.9637C70.0347 30.8653 70.3889 30.767 70.743 30.6686L70.7627 30.7079Z" fill="#FFCF49"/>
<path d="M71.3138 34.0529C71.1367 34.2299 70.9596 34.3873 70.7825 34.5644C70.9596 34.3873 71.1367 34.2103 71.3138 34.0529Z" fill="#FFCF49"/>
<path d="M70.7234 30.6488C70.3693 30.7472 70.0152 30.8456 69.661 30.944C68.8149 30.7275 67.8115 30.8259 67.3983 29.7634C68.6969 29.7634 69.9955 29.7634 71.2941 29.7634C71.117 30.0782 70.9202 30.3537 70.7234 30.6488Z" fill="#C25894"/>
<path d="M66.3555 26.2417C66.0013 26.9107 66.0013 27.619 66.1784 28.347C64.9191 28.1502 64.1715 28.9766 63.3845 29.7243C62.4991 30.5703 61.7908 31.6918 60.3741 31.7312C60.3151 31.6722 60.256 31.5935 60.2167 31.5344C60.8856 30.7868 61.5547 30.0588 62.2236 29.3111C63.6009 28.288 64.9782 27.2648 66.3555 26.2417Z" fill="#ED9B25"/>
<path d="M58.4851 33.187C58.249 34.1905 57.5014 34.525 56.5766 34.6234C56.5176 34.5643 56.4782 34.4856 56.4192 34.4266C56.7734 33.9937 57.1078 33.5412 57.462 33.1083C57.7375 33.0493 58.0129 33.01 58.2884 32.9509C58.3671 33.0493 58.4261 33.1083 58.4851 33.187Z" fill="#ED9B25"/>
<path d="M60.3544 31.7312C60.1576 32.4592 59.6067 32.6756 58.9377 32.6756C58.9377 32.6756 58.7803 32.5379 58.8 32.5379C58.8393 32.4002 58.859 32.2624 58.8787 32.1247C59.3116 31.9279 59.7641 31.7312 60.2166 31.5344C60.256 31.5935 60.315 31.6722 60.3544 31.7312Z" fill="#ED9B25"/>
<path d="M58.9378 32.6755C58.7804 32.833 58.6426 33.01 58.4852 33.1871C58.4262 33.1084 58.3475 33.0494 58.2885 32.9707C58.4459 32.833 58.623 32.6952 58.7804 32.5575L58.9378 32.6755Z" fill="#ED9B25"/>
<path d="M66.3554 26.2416C64.9781 27.2647 63.6008 28.2879 62.2039 29.311C62.0268 28.5437 61.5546 28.2879 60.8069 28.5633C59.9412 28.8781 59.2919 28.6617 58.8394 27.8353C59.6657 27.7763 60.5905 28.2485 61.2791 27.4025C62.1842 26.7532 63.109 26.1039 64.0141 25.4743C64.8208 25.73 66.0406 23.7822 66.4735 25.9465C66.5129 26.0645 66.4538 26.1629 66.3554 26.2416Z" fill="#FFD259"/>
<path d="M75.0128 39.2669C75.0718 39.1095 75.1505 38.9718 75.2095 38.8144C75.5243 38.7947 75.8195 38.7947 76.1343 38.775C75.7604 38.9324 75.3867 39.0898 75.0128 39.2669Z" fill="#FFC635"/>
<path d="M74.0485 39.7194C74.265 39.3062 74.6782 39.2866 75.0717 39.2275C74.7175 39.4046 74.383 39.562 74.0485 39.7194Z" fill="#FFC635"/>
<path d="M76.4884 38.3225C76.449 37.988 76.6458 37.8699 76.9409 37.8306C76.7835 37.988 76.6458 38.1651 76.4884 38.3225Z" fill="#FFD259"/>
<path d="M58.859 27.8157C59.2919 28.6421 59.9608 28.8388 60.8266 28.5437C61.5546 28.2879 62.0465 28.524 62.2236 29.311C61.5546 30.0587 60.8856 30.7867 60.2166 31.5344C59.7641 31.7311 59.3312 31.9279 58.8787 32.1247C58.1704 32.1247 57.5801 32.2624 57.4621 33.1084C56.4192 33.0494 55.6519 33.3642 55.5535 34.5448C53.9991 34.4464 53.0154 35.6269 51.7758 36.2172C50.9298 36.6304 49.9657 37.3977 49.2967 36.473C48.7654 35.7253 49.9263 35.2137 50.3985 34.6628C51.461 33.4429 52.917 32.4985 53.1531 30.708C53.763 29.7439 54.5697 28.9569 55.5338 28.3273C56.3602 28.1895 57.4621 28.7208 57.8556 27.4419L58.0524 27.3632C58.3081 27.5206 58.5836 27.6583 58.859 27.8157Z" fill="#FFD259"/>
<path d="M57.8556 27.4221C57.4621 28.7207 56.3603 28.1698 55.5339 28.3076C56.0454 27.3434 56.9309 27.3238 57.8556 27.4221Z" fill="#FFD259"/>
<path d="M55.5535 34.5448C55.6519 33.3643 56.4389 33.0691 57.4621 33.1085C57.1079 33.5413 56.7734 33.9939 56.4193 34.4267C56.1241 34.4661 55.8487 34.5054 55.5535 34.5448Z" fill="#FFD259"/>
<path d="M57.462 33.1084C57.5604 32.2624 58.1704 32.1246 58.8787 32.1246C58.859 32.2624 58.8393 32.4001 58.8 32.5378C58.6426 32.6756 58.4655 32.8133 58.3081 32.951C58.0129 33.01 57.7375 33.0691 57.462 33.1084Z" fill="#FFD259"/>
</svg>
