<svg width="78" height="90" viewBox="0 0 78 90" fill="none" xmlns="http://www.w3.org/2000/svg">
<path opacity="0.7" d="M8.16488 73.4H1.03688C0.874875 73.4 0.766875 73.508 0.766875 73.67V74.426C0.766875 74.588 0.874875 74.696 1.03688 74.696H3.89888V85.73C3.89888 85.892 4.00688 86 4.16888 86H5.03288C5.19488 86 5.30288 85.892 5.30288 85.73V74.696H8.16488C8.32688 74.696 8.43488 74.588 8.43488 74.426V73.67C8.43488 73.508 8.32688 73.4 8.16488 73.4ZM16.5041 77.18H15.6581C15.5141 77.18 15.3881 77.252 15.3341 77.396L12.6341 84.47L9.93408 77.396C9.88008 77.252 9.75408 77.18 9.61008 77.18H8.78208C8.58408 77.18 8.49408 77.288 8.56608 77.486L11.9501 86.036L10.7081 89.114C10.6361 89.312 10.7261 89.42 10.9241 89.42H11.7521C11.8961 89.42 12.0221 89.348 12.0761 89.204L16.7201 77.486C16.7921 77.288 16.7021 77.18 16.5041 77.18ZM22.5671 77C21.1991 77 20.1371 77.63 19.4531 78.584L19.3811 77.45C19.3631 77.288 19.2731 77.18 19.1111 77.18H18.3731C18.2111 77.18 18.1031 77.288 18.1031 77.45V89.15C18.1031 89.312 18.2111 89.42 18.3731 89.42H19.1831C19.3451 89.42 19.4531 89.312 19.4531 89.15V84.65C20.1551 85.586 21.1991 86.216 22.5671 86.216C25.0871 86.216 26.8871 84.182 26.8871 81.608C26.8871 79.034 25.0871 77 22.5671 77ZM22.4591 84.992C20.6591 84.992 19.3451 83.444 19.3451 81.59C19.3451 79.754 20.6591 78.224 22.4591 78.224C24.2591 78.224 25.5911 79.664 25.5911 81.59C25.5911 83.534 24.2591 84.992 22.4591 84.992ZM32.3836 76.982C29.8456 76.982 28.0636 79.016 28.0636 81.608C28.0636 84.2 29.8996 86.234 32.5276 86.234C33.8416 86.234 34.9936 85.748 35.8216 84.884C35.9656 84.74 35.9476 84.614 35.8036 84.47L35.4616 84.146C35.3176 84.02 35.2096 84.074 35.0836 84.182C34.5076 84.668 33.7696 85.064 32.6716 85.064C30.7996 85.064 29.5936 83.84 29.3956 82.166H36.0016C36.4516 82.166 36.5236 81.878 36.5236 81.266C36.5236 79.016 34.9216 76.982 32.3836 76.982ZM32.3836 78.17C34.0576 78.17 35.2636 79.466 35.3356 81.122H29.3776C29.5576 79.412 30.7276 78.17 32.3836 78.17ZM39.0485 79.394C39.0485 78.44 39.9485 78.134 40.5965 78.134C41.4425 78.134 42.0005 78.458 42.7025 79.07C42.8465 79.196 42.9905 79.232 43.0985 79.088L43.4045 78.692C43.4945 78.566 43.5305 78.44 43.4225 78.314C42.6845 77.45 41.5325 76.982 40.5965 76.982C39.0125 76.982 37.7525 77.972 37.7525 79.394C37.7525 82.346 42.5945 81.644 42.5945 83.75C42.5945 84.578 41.8745 85.046 40.8305 85.046C39.7145 85.046 38.7965 84.362 38.3465 83.948C38.1845 83.804 38.0945 83.768 37.9685 83.93L37.5725 84.416C37.4825 84.524 37.4825 84.632 37.5905 84.758C38.2205 85.496 39.3905 86.234 40.8665 86.234C42.3965 86.234 43.9085 85.262 43.9085 83.768C43.9085 80.636 39.0485 81.392 39.0485 79.394ZM49.5072 85.01C47.6712 85.01 46.3752 83.552 46.3752 81.608C46.3752 79.664 47.6712 78.206 49.5072 78.206C50.8932 78.206 51.4872 78.872 52.0092 79.34C52.1532 79.466 52.2792 79.466 52.4052 79.34L52.8552 78.926C52.9632 78.818 52.9812 78.674 52.8732 78.548C52.0452 77.594 50.8932 76.982 49.5072 76.982C46.9692 76.982 45.0792 79.016 45.0792 81.608C45.0792 84.2 46.9692 86.234 49.5072 86.234C50.9292 86.234 52.0992 85.622 52.9272 84.668C53.0352 84.542 53.0172 84.398 52.9092 84.29L52.4592 83.876C52.3332 83.75 52.2072 83.732 52.0632 83.876C51.5592 84.38 50.9292 85.01 49.5072 85.01ZM59.0091 77.27C58.7571 77.09 58.3791 76.982 57.9471 76.982C56.9931 76.982 56.2551 77.486 55.7691 78.224L55.6971 77.45C55.6791 77.288 55.5891 77.18 55.4271 77.18H54.7071C54.5451 77.18 54.4371 77.288 54.4371 77.45V85.73C54.4371 85.892 54.5451 86 54.7071 86H55.5171C55.6791 86 55.7871 85.892 55.7871 85.73V80.186C55.7871 79.052 56.6511 78.224 57.7491 78.224C58.1091 78.224 58.2891 78.278 58.4511 78.314C58.6131 78.35 58.7031 78.332 58.7751 78.188L59.0631 77.558C59.1351 77.414 59.1171 77.342 59.0091 77.27ZM60.7633 75.074C61.2493 75.074 61.6273 74.696 61.6273 74.21C61.6273 73.724 61.2493 73.346 60.7633 73.346C60.2773 73.346 59.8993 73.724 59.8993 74.21C59.8993 74.696 60.2773 75.074 60.7633 75.074ZM60.0973 77.45V85.73C60.0973 85.892 60.2053 86 60.3673 86H61.1773C61.3393 86 61.4473 85.892 61.4473 85.73V77.45C61.4473 77.288 61.3393 77.18 61.1773 77.18H60.3673C60.2053 77.18 60.0973 77.288 60.0973 77.45ZM67.6902 77C66.3222 77 65.2602 77.63 64.5762 78.584L64.5042 77.45C64.4862 77.288 64.3962 77.18 64.2342 77.18H63.4962C63.3342 77.18 63.2262 77.288 63.2262 77.45V89.15C63.2262 89.312 63.3342 89.42 63.4962 89.42H64.3062C64.4682 89.42 64.5762 89.312 64.5762 89.15V84.65C65.2782 85.586 66.3222 86.216 67.6902 86.216C70.2102 86.216 72.0102 84.182 72.0102 81.608C72.0102 79.034 70.2102 77 67.6902 77ZM67.5822 84.992C65.7822 84.992 64.4682 83.444 64.4682 81.59C64.4682 79.754 65.7822 78.224 67.5822 78.224C69.3822 78.224 70.7142 79.664 70.7142 81.59C70.7142 83.534 69.3822 84.992 67.5822 84.992ZM77.1488 77.18H75.8888V74.75C75.8888 74.588 75.7808 74.48 75.6188 74.48H74.8088C74.6468 74.48 74.5388 74.588 74.5388 74.75V77.18H73.2788C73.1168 77.18 73.0088 77.288 73.0088 77.45V78.062C73.0088 78.224 73.1168 78.332 73.2788 78.332H74.5388V85.73C74.5388 85.892 74.6468 86 74.8088 86H75.6188C75.7808 86 75.8888 85.892 75.8888 85.73V78.332H77.1488C77.3108 78.332 77.4188 78.224 77.4188 78.062V77.45C77.4188 77.288 77.3108 77.18 77.1488 77.18Z" fill="black"/>
<path d="M36.7809 39.5216V30.2666C36.7809 30.1884 36.7809 30.1102 36.7809 30.0321C36.7809 29.9382 36.8122 29.8914 36.9216 29.8914C36.9998 29.8914 37.0623 29.8914 37.1248 29.8914C39.1259 29.8914 41.1427 29.8914 43.1438 29.8914C43.2063 29.8914 43.2845 29.8914 43.347 29.8914C43.4408 29.8914 43.4721 29.8444 43.4721 29.7663C43.4721 29.7037 43.4721 29.6256 43.4721 29.5631C43.4721 28.3593 43.4721 27.1399 43.4721 25.9361C43.4721 25.5452 43.5033 25.5921 43.1438 25.5921C37.1092 25.5921 31.0903 25.5921 25.0557 25.5921C24.9932 25.5921 24.9307 25.5921 24.8681 25.5921C24.7743 25.5921 24.7274 25.6234 24.7274 25.7328C24.7274 25.7797 24.7274 25.8423 24.7274 25.8892C24.7274 27.1399 24.7274 28.3749 24.7274 29.6256C24.7274 29.9383 24.7118 29.907 25.0088 29.907C27.0256 29.907 29.0579 29.907 31.0747 29.907C31.4655 29.907 31.4186 29.8601 31.4186 30.2666C31.4186 36.4574 31.4186 42.6483 31.4186 48.8392C31.4186 49.2144 31.3873 49.1675 31.7313 49.1675C33.2946 49.1675 34.858 49.1675 36.4213 49.1675C36.7965 49.1675 36.7653 49.1988 36.7653 48.8392C36.7809 45.7125 36.7809 42.6171 36.7809 39.5216ZM45.5826 43.0392C45.5826 43.0548 45.5826 43.0861 45.5826 43.1017C45.5513 43.1955 45.5669 43.2893 45.5669 43.3831C45.5669 44.7589 45.5669 46.119 45.5669 47.4791C45.5669 47.6198 45.5669 47.7605 45.5669 47.9012C45.5513 48.0419 45.5982 48.1357 45.7389 48.1826C45.9422 48.2608 46.161 48.3702 46.3643 48.4484C47.6775 48.9643 49.0532 49.2144 50.4446 49.3239C52.1018 49.4646 53.7589 49.4177 55.4005 49.1363C56.5574 48.933 57.6673 48.5735 58.6835 47.9481C59.5902 47.3853 60.325 46.6662 60.7628 45.6812C61.435 44.1961 61.6695 42.6327 61.4037 41.0068C61.2318 39.9594 60.8566 39.0214 60.1374 38.224C59.5277 37.5362 58.8399 36.9577 58.0425 36.4887C57.6361 36.2542 57.2296 36.0353 56.8231 35.8165C55.8069 35.2849 54.7282 34.8785 53.6964 34.3938C53.2587 34.1906 52.8366 33.9717 52.4457 33.6903C52.0549 33.4089 51.664 33.1275 51.367 32.7367C50.7573 31.955 50.8355 30.9232 51.5234 30.2353C51.836 29.9226 52.1956 29.7038 52.602 29.5631C53.2274 29.3285 53.884 29.2347 54.5406 29.2035C55.463 29.1722 56.3698 29.266 57.2609 29.4692C58.3552 29.735 59.4183 30.0946 60.3719 30.7512C60.4032 30.7668 60.4345 30.7981 60.4814 30.7825C60.5283 30.7043 60.497 30.6261 60.497 30.5323C60.497 30.0633 60.497 29.5787 60.497 29.1097C60.497 28.1248 60.497 27.1242 60.497 26.1393C60.497 25.8892 60.5439 25.9048 60.2625 25.811C60.0124 25.7172 59.7622 25.639 59.5121 25.5765C58.3552 25.2482 57.1514 25.0919 55.9476 25.0293C54.353 24.9512 52.774 25.0293 51.2107 25.3576C50.0538 25.6078 48.9594 26.0455 47.9902 26.749C46.8176 27.5932 46.0203 28.7345 45.6295 30.1259C45.3637 31.0639 45.3481 32.0331 45.4575 32.9868C45.5826 33.9873 45.9265 34.9097 46.5362 35.7227C46.974 36.3167 47.4899 36.8327 48.084 37.2704C49.022 37.9583 50.0538 38.4898 51.1169 38.9588C51.7578 39.2402 52.3988 39.5216 53.0242 39.803C53.5557 40.0532 54.056 40.3502 54.5406 40.6941C54.9158 40.9599 55.2285 41.2726 55.4943 41.6634C56.0571 42.5233 55.9945 43.8521 54.9002 44.54C54.4937 44.7901 54.056 44.9621 53.6026 45.0715C52.2581 45.3529 50.9293 45.306 49.6004 44.9934C48.1309 44.6494 46.7864 44.0085 45.5982 43.0704C45.6139 43.0704 45.5982 43.0548 45.5826 43.0392C45.5826 43.0079 45.5826 42.9766 45.5826 42.9454C45.5826 42.8985 45.567 42.8672 45.5044 42.8516C45.4732 42.8516 45.4419 42.8672 45.4106 42.8985C45.3794 42.9454 45.4419 42.9766 45.4575 42.9923C45.5044 43.0079 45.5357 43.0392 45.5826 43.0392ZM12.33 48.9799V4.8933C12.3613 4.76823 12.4082 4.64316 12.4238 4.5181C12.7521 2.15743 14.6125 0.343936 16.9888 0.0468988C17.1295 0.0781659 17.2702 0.0156336 17.4109 0H60.9191C61.0754 0.0156336 61.2318 0.0781659 61.3881 0.0468988C61.4819 0.0625323 61.5757 0.078164 61.6695 0.0937975C64.296 0.562804 65.9062 2.86094 65.9531 4.9402C65.9531 5.00274 65.9375 5.0809 65.9375 5.14344C65.9375 19.5888 65.9375 34.0186 65.9375 48.4484C65.9375 48.6047 65.9375 48.7611 65.9531 48.9174C65.9531 49.0737 65.9531 49.2144 65.9218 49.3708C65.7342 50.6214 65.1714 51.7002 64.2178 52.5444C63.3267 53.3573 62.2636 53.7794 61.0755 53.8732C60.9191 53.8732 60.7628 53.8732 60.6064 53.8732C46.3174 53.8732 32.0283 53.8732 17.7392 53.8732C17.5829 53.8732 17.4422 53.8732 17.3015 53.8732C17.1764 53.8576 17.0357 53.842 16.9107 53.8263C14.7689 53.5449 13.0492 51.9972 12.5176 49.8867C12.4551 49.6053 12.4395 49.277 12.33 48.9799Z" fill="#3578BC"/>
<path d="M12.33 48.9799C12.4238 49.2769 12.4551 49.5896 12.5333 49.9022C13.0648 51.9971 14.7845 53.5449 16.9263 53.8419C17.0514 53.8575 17.1921 53.8732 17.3171 53.8888C17.3171 53.9044 17.3171 53.9201 17.3171 53.9357H12.3456V48.9799H12.33Z" fill="white"/>
<path d="M61.0755 53.8889C62.2636 53.7951 63.3267 53.3574 64.2178 52.5601C65.1558 51.7159 65.7186 50.6528 65.9219 49.3865C65.9531 49.2458 65.9375 49.0894 65.9531 48.9331H65.9688H65.9844V53.9358H61.0598C61.0754 53.9202 61.0755 53.9046 61.0755 53.8889Z" fill="white"/>
<path d="M65.9531 4.94031C65.9688 4.94031 65.9844 4.94031 66 4.94031V48.9175H65.9844H65.9687C65.9687 48.7612 65.9531 48.6048 65.9531 48.4485C65.9531 34.0187 65.9531 19.5733 65.9531 5.14354C65.9531 5.08101 65.9531 5.01848 65.9531 4.94031Z" fill="#B4C5E5"/>
<path d="M61.0755 53.8889C61.0755 53.9046 61.0755 53.9202 61.0755 53.9358H17.3015C17.3015 53.9202 17.3015 53.9046 17.3015 53.8889C17.4422 53.8889 17.5985 53.8889 17.7393 53.8889C32.0283 53.8889 46.3174 53.8889 60.6065 53.8889C60.7628 53.8733 60.9191 53.8733 61.0755 53.8889Z" fill="#B4C5E5"/>
<path d="M45.6295 43.1018C46.8177 44.0398 48.1621 44.6652 49.6317 45.0248C50.9606 45.3374 52.2894 45.3843 53.6339 45.1029C54.1029 45.0091 54.525 44.8372 54.9315 44.5714C56.0258 43.8835 56.0884 42.5547 55.5256 41.6948C55.2754 41.304 54.9471 41.0069 54.5719 40.7255C54.1029 40.3816 53.587 40.0846 53.0555 39.8344C52.4145 39.553 51.7735 39.2716 51.1482 38.9902C50.0851 38.5212 49.0533 37.9897 48.1152 37.3018C47.5212 36.864 47.0053 36.3481 46.5675 35.7541C45.9578 34.9411 45.6295 34.0187 45.4888 33.0182C45.3637 32.0489 45.395 31.0953 45.6608 30.1572C46.0516 28.7502 46.8333 27.6246 48.0214 26.7804C48.9907 26.0769 50.0694 25.6392 51.242 25.389C52.8053 25.0451 54.3843 24.9669 55.9789 25.0607C57.1827 25.1232 58.3709 25.2796 59.5434 25.6079C59.7935 25.6861 60.0437 25.7642 60.2938 25.8424C60.5752 25.9362 60.5283 25.9206 60.5283 26.1707C60.5283 27.1556 60.5283 28.1561 60.5283 29.1411C60.5283 29.6101 60.5283 30.0947 60.5283 30.5637C60.5283 30.6419 60.5439 30.7357 60.5127 30.8139C60.4658 30.8295 60.4345 30.8139 60.4032 30.7826C59.4652 30.126 58.4021 29.7664 57.2921 29.5006C56.401 29.2974 55.4943 29.188 54.5719 29.2349C53.8997 29.2661 53.2587 29.3599 52.6333 29.5944C52.2269 29.7508 51.8673 29.954 51.5546 30.2667C50.8511 30.9702 50.7886 31.9864 51.3983 32.768C51.6953 33.1589 52.0705 33.4559 52.477 33.7217C52.8679 33.9875 53.3056 34.222 53.7277 34.4252C54.7595 34.9098 55.8382 35.3163 56.8544 35.8479C57.2609 36.0667 57.6673 36.2856 58.0738 36.5201C58.8711 36.9891 59.559 37.5832 60.1687 38.2554C60.8879 39.0527 61.2631 39.9907 61.435 41.0382C61.7008 42.6641 61.4663 44.2118 60.7941 45.7126C60.3407 46.6976 59.6215 47.4167 58.7148 47.9795C57.6986 48.6048 56.6043 48.9644 55.4318 49.1677C53.7902 49.4647 52.1331 49.4959 50.4759 49.3552C49.0845 49.2302 47.7088 48.9957 46.3955 48.4798C46.1923 48.4016 45.9734 48.2922 45.7702 48.214C45.6295 48.1671 45.5826 48.0733 45.5982 47.9326C45.6139 47.7919 45.5982 47.6512 45.5982 47.5105C45.5982 46.1504 45.5982 44.7746 45.5982 43.4145C45.5982 43.3207 45.5826 43.2269 45.6139 43.1331H45.6295V43.1018Z" fill="white"/>
<path d="M36.7809 39.5216C36.7809 42.617 36.7809 45.7125 36.7809 48.8079C36.7809 49.1831 36.8278 49.1362 36.4369 49.1362C34.8736 49.1362 33.3102 49.1362 31.7469 49.1362C31.3873 49.1362 31.4342 49.1831 31.4342 48.8079C31.4342 42.6171 31.4342 36.4262 31.4342 30.2353C31.4342 29.8444 31.4811 29.8757 31.0903 29.8757C29.0579 29.8757 27.0412 29.8757 25.0244 29.8757C24.7118 29.8757 24.7431 29.907 24.7431 29.5943C24.7431 28.3436 24.7431 27.1086 24.7431 25.8579C24.7431 25.811 24.7431 25.7484 24.7431 25.7015C24.7431 25.6077 24.79 25.5608 24.8838 25.5608C24.9463 25.5608 25.0088 25.5608 25.0713 25.5608C31.1059 25.5608 37.1248 25.5608 43.1594 25.5608C43.519 25.5608 43.4877 25.5139 43.4877 25.9048C43.4877 27.1086 43.4877 28.328 43.4877 29.5318C43.4877 29.5943 43.4877 29.6725 43.4877 29.735C43.4877 29.8288 43.4564 29.8601 43.3626 29.8601C43.3001 29.8601 43.2219 29.8601 43.1594 29.8601C41.1583 29.8601 39.1416 29.8601 37.1405 29.8601C37.0623 29.8601 36.9998 29.8601 36.9372 29.8601C36.8434 29.8601 36.7965 29.907 36.7965 30.0008C36.7965 30.0789 36.7965 30.1571 36.7965 30.2353V39.5216H36.7809Z" fill="white"/>
<path d="M45.5826 43.0235C45.5357 43.0235 45.5044 43.0079 45.4732 42.9766C45.4419 42.9454 45.395 42.9297 45.4263 42.8828C45.4419 42.8516 45.4732 42.8359 45.5201 42.8359C45.5826 42.8359 45.5826 42.8828 45.5982 42.9297C45.5826 42.961 45.5826 42.9923 45.5826 43.0235C45.5826 43.0392 45.5826 43.0235 45.5826 43.0235Z" fill="#B4C5E5"/>
<path d="M45.6295 43.1017H45.6138H45.5982C45.5982 43.0705 45.5982 43.0548 45.5982 43.0392C45.5982 43.0548 45.6138 43.0705 45.6295 43.1017Z" fill="#B4C5E5"/>
</svg>
