<svg width="226" height="215" viewBox="0 0 226 215" fill="none" xmlns="http://www.w3.org/2000/svg">
<g clip-path="url(#clip0)">
<path opacity="0.1" d="M165.324 134.959C130.879 140.198 89.1915 146.741 56.3244 151.934C34.6261 155.359 19.0687 131.512 30.9613 113.031L71.5894 49.9032C79.3063 37.9161 95.3688 34.6079 107.2 42.5675L175.704 88.7033C194.932 101.662 188.247 131.474 165.324 134.959Z" fill="#0087F3"/>
<path d="M48.1154 107.29C77.2765 89.3993 112.508 67.5736 140.262 50.3358C158.593 38.9473 181.763 54.5906 178.064 75.8583L165.405 148.486C163 162.285 149.729 171.408 135.989 168.714L56.389 153.109C34.0402 148.729 28.7159 119.197 48.1154 107.29Z" stroke="#F9A100" stroke-width="3" stroke-miterlimit="10" stroke-dasharray="11.89 11.89"/>
</g>
<g clip-path="url(#clip1)">
<path d="M82.9268 140.762L92.614 104.609C93.2212 102.343 95.5442 100.999 97.8053 101.605C98.6996 101.845 99.4516 102.355 99.9927 103.024C100.822 104.041 101.168 105.433 100.801 106.802L103.294 97.4931C103.598 96.3609 104.33 95.4577 105.269 94.9165C105.464 94.8039 105.67 94.7062 105.883 94.624C106.689 94.3165 107.593 94.2503 108.487 94.4899C109.372 94.7272 110.114 95.2261 110.654 95.8828C111.39 96.7771 111.751 97.9581 111.582 99.163L112.532 95.62C112.835 94.4882 113.57 93.5827 114.509 93.0407C114.708 92.925 114.919 92.8254 115.135 92.7451C115.934 92.44 116.835 92.3757 117.725 92.6142C118.619 92.8538 119.37 93.3633 119.914 94.0358C120.742 95.0533 121.088 96.4448 120.721 97.8143L119.634 101.871C120.001 100.503 120.996 99.4696 122.222 99.0027C123.026 98.694 123.929 98.627 124.826 98.8673C127.085 99.4733 128.427 101.8 127.821 104.065L121.524 127.56L121.608 127.567C122.799 127.886 123.849 128.466 124.717 129.23C126.859 131.118 127.876 134.124 127.086 137.072L124.15 148.027C123.586 150.133 122.21 151.926 120.326 153.018L115.983 155.53C113.954 156.704 112.472 158.637 111.864 160.905L111.21 163.349L83.2682 155.861L84.1046 152.739C84.6609 150.663 84.4431 148.455 83.4927 146.529C82.6105 144.739 82.4092 142.691 82.9268 140.762Z" fill="white"/>
<path d="M81.4531 155.374L113.168 163.872C114.213 164.152 114.834 165.226 114.553 166.271L111.527 177.566C111.247 178.611 110.173 179.231 109.128 178.951L77.412 170.453C76.3672 170.173 75.7474 169.099 76.0268 168.054L79.0539 156.759C79.3333 155.714 80.4076 155.094 81.4531 155.374Z" fill="#FFE1A9"/>
<path d="M108.643 162.831L113.168 163.872C114.213 164.152 114.834 165.226 114.553 166.271L111.527 177.566C111.247 178.611 110.173 179.231 109.128 178.951L104.602 177.91C103.557 177.629 106.92 177.455 107.2 176.41L110.227 165.115C110.506 164.07 107.597 162.55 108.643 162.831Z" fill="#F9A100"/>
<path d="M71.4308 120.856L107.584 130.543C109.85 131.151 112.175 129.81 112.78 127.549C113.021 126.654 112.955 125.748 112.646 124.945C112.179 123.718 111.147 122.724 109.777 122.356L119.087 124.85C120.219 125.154 121.367 124.972 122.306 124.429C122.501 124.316 122.689 124.188 122.865 124.043C123.535 123.499 124.044 122.75 124.283 121.856C124.521 120.971 124.459 120.078 124.16 119.283C123.754 118.198 122.912 117.295 121.785 116.838L125.328 117.787C126.46 118.09 127.611 117.907 128.549 117.365C128.75 117.25 128.941 117.118 129.118 116.971C129.782 116.431 130.289 115.683 130.527 114.793C130.766 113.899 130.701 112.993 130.39 112.188C129.923 110.96 128.892 109.966 127.522 109.598L123.465 108.511C124.833 108.878 126.225 108.533 127.244 107.704C127.913 107.163 128.422 106.414 128.662 105.517C129.267 103.257 127.923 100.932 125.659 100.325L102.164 94.0295L102.198 93.9536C102.517 92.763 102.54 91.5635 102.313 90.4294C101.75 87.6314 99.6536 85.2474 96.7059 84.4575L85.7508 81.5228C83.6447 80.9585 81.4036 81.2534 79.5168 82.3395L75.1691 84.8433C73.1373 86.0153 70.7236 86.3317 68.4549 85.7238L66.012 85.0685L58.525 113.01L61.6471 113.847C63.7231 114.404 65.5267 115.697 66.7197 117.483C67.8282 119.141 69.5018 120.339 71.4308 120.856Z" fill="white"/>
<path d="M58.0399 114.826L66.5381 83.1103C66.8183 82.0648 66.198 80.9905 65.1529 80.7111L53.8572 77.6844C52.8129 77.4046 51.7386 78.0249 51.458 79.0696L42.9605 110.785C42.6804 111.831 43.3002 112.904 44.3457 113.184L55.6406 116.212C56.6857 116.491 57.76 115.871 58.0399 114.826Z" fill="#C5E0FF"/>
<path d="M140.572 113.755L108.158 132.469C106.126 133.642 103.534 132.949 102.363 130.921C101.9 130.12 101.729 129.228 101.819 128.371C101.953 127.066 102.692 125.838 103.92 125.129L95.5733 129.948C94.5584 130.534 93.402 130.655 92.3553 130.374C92.1377 130.316 91.9235 130.24 91.7148 130.146C90.9271 129.794 90.2418 129.202 89.779 128.4C89.3208 127.607 89.1492 126.729 89.2313 125.882C89.343 124.73 89.9232 123.64 90.8939 122.907L87.7169 124.741C86.702 125.327 85.5427 125.446 84.4959 125.166C84.2734 125.108 84.0541 125.029 83.8445 124.933C83.063 124.583 82.3807 123.993 81.9198 123.194C81.457 122.393 81.2865 121.5 81.3773 120.641C81.5114 119.336 82.2498 118.108 83.478 117.399L87.1157 115.299C85.8899 116.006 84.4543 116.034 83.2572 115.497C82.4708 115.147 81.7851 114.555 81.3214 113.751C80.1518 111.726 80.8484 109.131 82.8782 107.959L103.944 95.7967L103.89 95.7326C103.274 94.6654 102.941 93.5119 102.868 92.3584C102.688 89.5099 104.095 86.6645 106.737 85.1388L116.559 79.468C118.447 78.3781 120.688 78.0832 122.793 78.6431L127.64 79.9371C129.906 80.5423 132.32 80.2226 134.353 79.0485L136.543 77.7841L151.007 102.836L148.208 104.452C146.347 105.527 144.94 107.243 144.249 109.277C143.608 111.166 142.301 112.756 140.572 113.755Z" fill="#FEDFC5"/>
<path d="M112.781 127.549C113.021 126.654 112.955 125.748 112.646 124.945C112.179 123.718 111.147 122.724 109.778 122.357L119.087 124.851C120.219 125.155 121.367 124.972 122.306 124.43C122.501 124.317 122.689 124.188 122.865 124.043C123.536 123.5 124.044 122.751 124.284 121.856C124.521 120.971 124.459 120.078 124.161 119.283C123.755 118.199 122.912 117.296 121.785 116.839L125.328 117.788C126.46 118.091 127.611 117.907 128.55 117.365C128.75 117.251 128.941 117.118 129.118 116.971C129.782 116.431 130.289 115.683 130.527 114.794C130.767 113.9 130.701 112.993 130.391 112.188C129.923 110.961 128.892 109.966 127.523 109.599L123.466 108.512C124.833 108.878 126.226 108.534 127.244 107.704C127.913 107.163 128.422 106.414 128.662 105.517C129.268 103.257 127.923 100.932 125.659 100.325L102.164 94.0295L102.198 93.9536C102.517 92.763 102.54 91.5635 102.313 90.4295C102.043 89.0872 101.416 87.8422 100.516 86.8207C99.6461 88.5649 99.2301 90.5398 99.3593 92.5817C99.3953 93.1476 99.4726 93.7045 99.5898 94.25L81.1199 104.914C77.4141 107.053 76.1386 111.806 78.2764 115.508C78.5332 115.953 78.8296 116.368 79.1612 116.746C78.4604 117.788 78.012 118.996 77.8813 120.27C77.7971 121.061 77.8374 121.849 77.9912 122.613L107.584 130.542C109.85 131.151 112.175 129.811 112.781 127.549Z" fill="#C3E4FF"/>
<path d="M109.914 135.511L122.877 128.027C122.475 127.84 122.05 127.684 121.606 127.566L121.523 127.558L127.819 104.062C128.426 101.799 127.084 99.4709 124.824 98.8661C123.928 98.6258 123.025 98.6915 122.221 99.0002C120.994 99.4677 119.999 100.502 119.632 101.869L120.72 97.8118C121.087 96.4424 120.741 95.0522 119.912 94.0338C119.369 93.3617 118.617 92.8519 117.723 92.6123C116.834 92.374 115.932 92.4388 115.132 92.7432C114.917 92.8242 114.706 92.9226 114.507 93.0395C113.569 93.5815 112.834 94.4857 112.531 95.6183L111.582 99.1614C111.748 97.9561 111.388 96.7751 110.652 95.8817C110.112 95.225 109.37 94.7252 108.485 94.4879C107.591 94.2483 106.688 94.314 105.882 94.6229C105.668 94.7038 105.463 94.8014 105.268 94.914C104.329 95.456 103.596 96.3589 103.293 97.4907L100.798 106.8C101.165 105.431 100.82 104.04 99.9912 103.022C99.4499 102.353 98.6986 101.843 97.8044 101.604C95.5424 100.998 93.2194 102.341 92.6122 104.608L86.1226 128.827C86.2821 129.285 86.486 129.73 86.7327 130.157C87.554 131.579 88.7803 132.686 90.2715 133.351C90.6513 133.522 91.0461 133.662 91.4438 133.768C93.4427 134.305 95.5328 134.028 97.3294 132.991L98.9842 132.036C99.0846 132.254 99.1955 132.468 99.3168 132.678C101.455 136.379 106.208 137.651 109.914 135.511Z" fill="#C3E4FF"/>
<path d="M140.572 113.755L108.158 132.469C106.126 133.642 103.534 132.949 102.363 130.921C102.332 130.866 102.298 130.808 102.267 130.746C101.878 129.994 101.736 129.17 101.82 128.377C101.818 128.375 101.821 128.374 101.819 128.371C101.953 127.066 102.692 125.838 103.92 125.129L95.5733 129.948C94.5584 130.534 93.402 130.655 92.3553 130.374C92.1377 130.316 91.9235 130.24 91.7148 130.146C90.9271 129.794 90.2418 129.202 89.779 128.4C89.3208 127.607 89.1492 126.729 89.2313 125.882C89.343 124.73 89.9232 123.64 90.8939 122.907L87.7169 124.741C86.702 125.327 85.5427 125.446 84.4959 125.166C84.2734 125.108 84.0541 125.029 83.8445 124.933C83.063 124.583 82.3807 123.993 81.9198 123.194C81.457 122.393 81.2865 121.5 81.3773 120.641C81.5114 119.336 82.2498 118.108 83.478 117.399L87.1157 115.299C85.8899 116.006 84.4543 116.034 83.2572 115.497C82.4708 115.147 81.7851 114.555 81.3214 113.751C80.1518 111.726 80.8484 109.131 82.8782 107.959L103.944 95.7967L103.89 95.7326C103.274 94.6654 102.941 93.5119 102.868 92.3584C102.688 89.5099 104.095 86.6645 106.737 85.1388L116.559 79.468C118.447 78.3781 120.688 78.0832 122.793 78.6431L127.64 79.9371C129.042 80.3107 130.499 80.3327 131.89 80.0138C132.752 79.8197 133.588 79.4902 134.353 79.0485L136.543 77.7841L151.007 102.836L148.208 104.452C147.581 104.814 146.958 105.263 146.454 105.788C145.459 106.751 144.702 107.946 144.249 109.277C143.612 111.15 142.289 112.763 140.572 113.755Z" fill="white"/>
<path d="M140.572 113.755L108.158 132.469C106.126 133.642 103.534 132.949 102.363 130.921C102.332 130.866 102.298 130.808 102.267 130.746C101.878 129.994 101.736 129.17 101.82 128.378L133.091 110.407C133.28 110.298 133.553 110.083 133.887 109.784C139.9 104.445 141.147 96.0472 137.126 89.0827L131.89 80.0138C132.752 79.8198 133.588 79.4903 134.353 79.0485L136.543 77.7842L151.007 102.836L148.208 104.452C147.581 104.814 146.958 105.263 146.454 105.788C145.459 106.751 144.702 107.946 144.249 109.277C143.612 111.15 142.289 112.763 140.572 113.755Z" fill="#C3E4FF"/>
<path d="M151.946 104.465L135.529 76.0283C134.988 75.092 135.309 73.8939 136.246 73.3528L146.373 67.5062C147.31 66.9651 148.508 67.2862 149.049 68.2226L165.466 96.6588C166.007 97.5952 165.686 98.7933 164.749 99.3344L154.622 105.181C153.685 105.722 152.487 105.401 151.946 104.465Z" fill="#83D9FF"/>
<path d="M113.264 178.007L116.297 166.727C116.555 165.768 116.424 164.766 115.928 163.906C115.431 163.046 114.629 162.431 113.669 162.175L113.408 162.105L113.606 161.365C113.853 160.45 114.27 159.611 114.831 158.881C114.913 158.798 114.988 158.707 115.051 158.609C115.571 157.998 116.198 157.474 116.914 157.061L118.939 155.892C120.876 154.773 121.256 154.541 121.639 154.32C123.748 152.978 125.258 150.927 125.911 148.499L128.853 137.557C129.513 135.102 129.177 132.538 127.907 130.338C126.923 128.634 125.471 127.31 123.725 126.493L124.04 125.33L141.451 115.278C143.55 114.066 145.135 112.135 145.914 109.842C146.467 108.211 147.594 106.838 149.088 105.975L150.364 105.239L150.424 105.344C151.449 107.118 153.726 107.728 155.501 106.703L165.628 100.857C167.403 99.8319 168.013 97.5544 166.989 95.78L150.571 67.3437C149.547 65.5693 147.269 64.9591 145.494 65.984L135.367 71.8305C133.592 72.8555 132.982 75.1329 134.006 76.9073L134.142 77.142L133.474 77.5274C131.833 78.475 129.922 78.7276 128.093 78.2389L123.246 76.9449C120.674 76.2584 117.988 76.6137 115.681 77.9458L105.859 83.6161C104.525 84.3865 103.45 85.4342 102.659 86.6425C101.377 84.6911 99.4496 83.2953 97.1743 82.687L86.2269 79.7637C83.6549 79.0772 80.9679 79.4329 78.6615 80.7646L74.3134 83.2749C72.6721 84.2225 70.7611 84.4759 68.9324 83.9872L68.2 83.7916C68.197 83.7901 68.1945 83.7895 68.192 83.7888L68.2625 83.5282C68.5203 82.5685 68.3892 81.5669 67.8926 80.7067C67.3964 79.8472 66.5941 79.2321 65.6345 78.9763L54.3494 75.9626C52.371 75.4345 50.3286 76.6137 49.7967 78.591L48.7591 82.4536C48.5065 83.3912 49.0623 84.3558 49.9995 84.6076C50.9375 84.8589 51.9018 84.3043 52.1539 83.3659L53.1928 79.5037C53.2219 79.3949 53.3337 79.3303 53.4425 79.3595L64.7276 82.3733C64.8327 82.4014 64.8962 82.5096 64.8672 82.6151L64.3398 84.5762L64.3402 84.577L57.1406 111.354L56.3334 114.354C56.3042 114.463 56.1924 114.527 56.0836 114.498L44.799 111.485C44.6927 111.457 44.63 111.348 44.6589 111.242L50.3251 90.1685C50.5777 89.2308 50.0218 88.2662 49.0847 88.0144C48.1462 87.7623 47.1824 88.3177 46.9298 89.2553L41.2641 110.33C41.0058 111.289 41.1374 112.291 41.634 113.152C42.1303 114.011 42.9321 114.625 43.8921 114.882L55.1768 117.895C57.1544 118.423 59.1968 117.244 59.7287 115.267L59.7615 115.144L61.185 115.524C62.8483 115.968 64.2901 117.001 65.2443 118.432C66.5879 120.446 68.6173 121.899 70.9579 122.524L81.3274 125.29C82.9177 126.896 85.3108 127.48 87.4734 126.765C87.5419 127.625 87.7964 128.484 88.256 129.28C89.909 132.143 93.5858 133.126 96.4528 131.471L100.067 129.384C100.147 130.211 100.398 131.035 100.841 131.801C102.494 134.664 106.17 135.647 109.037 133.992L119.723 127.822L117.721 135.221C117.594 135.691 117.67 136.168 117.896 136.559C118.12 136.948 118.492 137.251 118.96 137.377C119.896 137.631 120.861 137.077 121.115 136.139L122.784 129.97C123.637 130.486 124.35 131.209 124.862 132.095C125.662 133.481 125.874 135.097 125.457 136.644L122.516 147.586C122.068 149.251 120.999 150.643 119.504 151.506L115.156 154.016C112.702 155.433 110.946 157.719 110.211 160.452L110.011 161.198L106.524 160.267L85.435 154.635L85.7513 153.46C85.7538 153.448 85.7577 153.436 85.7602 153.424L85.8163 153.218C86.4849 150.73 86.225 148.088 85.0848 145.78C84.3914 144.376 84.2334 142.769 84.6414 141.249L86.7286 133.374C86.9774 132.436 86.4184 131.473 85.4798 131.224C84.5416 130.976 83.5788 131.535 83.3308 132.473L81.2457 140.343C80.6162 142.682 80.8601 145.166 81.933 147.337C82.6949 148.879 82.8681 150.643 82.4215 152.305L82.3903 152.422C82.368 152.487 82.3503 152.554 82.3363 152.621L82.0389 153.728L81.9155 153.696C79.9372 153.168 77.8955 154.346 77.3637 156.324L74.3307 167.603C74.0729 168.563 74.2039 169.564 74.7006 170.425C75.1968 171.284 75.9991 171.899 76.9592 172.156L108.713 180.635C110.691 181.163 112.733 179.984 113.264 178.007ZM71.8648 119.127C70.3504 118.723 69.038 117.783 68.1691 116.481C66.7398 114.339 64.5818 112.793 62.0932 112.128L60.6746 111.749L61.018 110.473C61.0223 110.456 61.0275 110.44 61.0311 110.424L67.2794 87.1848L68.0255 87.3841C70.7601 88.1142 73.6172 87.7363 76.0712 86.3196L80.4193 83.8092C81.9138 82.9463 83.6539 82.7155 85.3201 83.1606L96.2667 86.0844C97.8149 86.4972 99.1082 87.4885 99.9083 88.8744C100.421 89.7632 100.691 90.747 100.71 91.7472L94.5351 90.0981C93.5976 89.8476 92.6339 90.405 92.3834 91.3425C92.2585 91.8111 92.335 92.286 92.5597 92.6753C92.785 93.0653 93.1592 93.3694 93.6282 93.495L101.004 95.4641L81.9993 106.437C79.1323 108.092 78.1454 111.768 79.7984 114.631C80.2644 115.438 80.8912 116.095 81.6147 116.587C80.2844 117.767 79.5693 119.465 79.599 121.19L71.8648 119.127ZM107.279 130.948C106.091 131.634 104.568 131.228 103.884 130.044C103.2 128.859 103.611 127.338 104.799 126.652L121.779 116.848C122.62 116.363 122.909 115.288 122.423 114.447C121.937 113.606 120.862 113.319 120.022 113.804L94.6942 128.427C93.5064 129.112 91.9845 128.707 91.3006 127.522C90.6868 126.459 90.9559 125.127 91.8763 124.368L117.577 109.53C118.418 109.044 118.706 107.97 118.221 107.128C118.065 106.858 117.846 106.645 117.595 106.496C117.061 106.162 116.366 106.127 115.784 106.463L90.457 121.086C90.2635 121.197 90.0804 121.318 89.9044 121.447L86.8368 123.218C85.6491 123.904 84.1264 123.499 83.4425 122.314C82.7591 121.13 83.1694 119.609 84.3571 118.923L113.358 102.18C114.198 101.694 114.487 100.619 114.001 99.7784C113.516 98.9371 112.44 98.6489 111.6 99.1342L86.2373 113.777C85.0496 114.463 83.5269 114.058 82.8435 112.874C82.1596 111.689 82.5699 110.168 83.7576 109.482L112.075 93.1331C112.916 92.6474 113.204 91.5719 112.719 90.7314C112.233 89.8902 111.158 89.6028 110.317 90.0885L105.079 93.1125C104.965 93.0086 104.835 92.9183 104.693 92.8473C104.296 90.4515 105.389 87.947 107.617 86.6607L117.438 80.9904C118.933 80.1275 120.673 79.8975 122.339 80.3418L127.186 81.6358C129.921 82.3667 132.778 81.9888 135.232 80.5721L135.9 80.1866L137.667 83.2471C138.152 84.0883 139.227 84.3757 140.068 83.8905C140.909 83.4048 141.197 82.3305 140.711 81.4893L137.051 75.1495C136.996 75.0536 137.029 74.9306 137.125 74.8752L147.252 69.0286C147.348 68.9732 147.471 69.0056 147.526 69.1015L163.944 97.537C163.999 97.6338 163.966 97.7568 163.87 97.8122L153.743 103.659C153.647 103.715 153.524 103.682 153.468 103.585L144.838 88.6362C144.352 87.7958 143.278 87.5071 142.436 87.9928C141.596 88.4781 141.308 89.5536 141.793 90.394L148.606 102.194L147.33 102.931C145.097 104.22 143.412 106.272 142.584 108.712C142.08 110.197 141.053 111.448 139.694 112.233L107.279 130.948ZM109.619 177.238L77.866 168.759C77.8127 168.745 77.7727 168.714 77.7452 168.667C77.7182 168.62 77.7115 168.57 77.7259 168.516L80.7589 157.237C80.7881 157.128 80.8999 157.064 81.0087 157.093L82.8257 157.578L82.827 157.578L101.26 162.5L112.762 165.571C112.868 165.599 112.931 165.708 112.902 165.813L109.869 177.093C109.84 177.202 109.728 177.267 109.619 177.238Z" fill="#2787F5"/>
<path d="M147.561 75.5078C146.768 74.1343 145.008 73.6667 143.636 74.4587C142.263 75.2513 141.789 77.0096 142.582 78.3828C143.375 79.7566 145.134 80.2256 146.508 79.4328C147.88 78.6406 148.355 76.8819 147.561 75.5078Z" fill="white" stroke="#2787F5" stroke-width="2"/>
<path d="M108.824 168.67C108.031 167.296 106.27 166.828 104.898 167.621C103.526 168.413 103.051 170.171 103.844 171.545C104.637 172.919 106.398 173.387 107.77 172.595C109.142 171.803 109.617 170.044 108.824 168.67Z" fill="white" stroke="#2787F5" stroke-width="2"/>
<path d="M53.2691 110.313C54.6409 109.521 55.1163 107.763 54.3233 106.389C53.53 105.015 51.7694 104.547 50.3973 105.339C49.0253 106.131 48.5503 107.89 49.3436 109.264C50.1366 110.638 51.8973 111.105 53.2691 110.313Z" fill="white" stroke="#2787F5" stroke-width="2"/>
</g>
<defs>
<clipPath id="clip0">
<rect width="181.194" height="164.72" fill="white" transform="translate(0.569153 58.9111) rotate(-18.7265)"/>
</clipPath>
<clipPath id="clip1">
<rect width="120" height="120" fill="white" transform="translate(130.923 30.5) rotate(60)"/>
</clipPath>
</defs>
</svg>
