<svg width="236" height="233" viewBox="0 0 236 233" fill="none" xmlns="http://www.w3.org/2000/svg">
<g clip-path="url(#clip0)">
<path opacity="0.1" d="M151.044 50.3341C118.521 62.8311 79.0602 77.7796 47.9311 89.5352C27.3818 97.2988 25.667 125.72 45.1476 135.892L111.696 170.636C124.334 177.232 139.929 172.156 146.269 159.384L182.959 85.3892C193.252 64.6122 172.687 42.0169 151.044 50.3341Z" fill="#0087F3"/>
<path d="M179.896 168.442C145.06 168.515 102.861 168.787 69.5937 169.04C47.6202 169.21 35.7856 143.32 50.2862 126.8L99.8273 70.4008C109.239 59.6858 125.614 58.7991 136.125 68.432L197.02 124.233C214.118 139.899 203.073 168.389 179.896 168.442Z" stroke="#F9A100" stroke-width="3" stroke-miterlimit="10" stroke-dasharray="11.89 11.89"/>
<g clip-path="url(#clip1)">
<path d="M163.266 160.194C168.537 160.144 172.771 155.81 172.721 150.512C172.674 145.51 168.826 141.441 163.96 141.043C163.96 141.029 163.96 141.015 163.96 141.001C163.921 136.863 160.552 133.54 156.434 133.579C153.684 133.604 151.297 135.125 150.026 137.363C148.237 136.364 146.176 135.8 143.984 135.821C138.879 135.869 134.537 139.058 132.753 143.544C131.307 142.616 129.586 142.084 127.742 142.101C124.683 142.13 121.989 143.663 120.345 145.994C118.658 143.694 115.936 142.212 112.877 142.241C111.033 142.258 109.323 142.823 107.894 143.778C106.026 139.326 101.625 136.219 96.5197 136.267C94.3275 136.288 92.2777 136.89 90.5084 137.923C89.1951 135.708 86.7803 134.233 84.03 134.259C79.9123 134.298 76.6056 137.684 76.6445 141.822C76.6447 141.836 76.6457 141.85 76.6459 141.864C71.7881 142.353 68.0172 146.494 68.0642 151.496C68.1143 156.793 72.4284 161.048 77.7002 160.998L163.266 160.194Z" fill="#FFE1A9"/>
<path d="M172.722 150.621C172.766 155.333 169.468 159.29 165.063 160.177L165.932 159.246C166.746 158.249 167.361 157.084 167.725 155.842C168.763 152.292 168.451 147.146 164.863 145.14C164.303 144.826 163.707 144.586 163.098 144.387C162.216 144.099 161.311 143.9 160.409 143.69C159.811 143.551 159.375 143.046 159.288 142.431C158.769 138.745 155.621 135.928 151.842 135.963C151.568 135.966 151.299 135.983 151.036 136.015C152.378 134.534 154.302 133.599 156.449 133.579C160.561 133.54 163.928 136.885 163.967 141.047L163.968 141.089C168.828 141.492 172.675 145.588 172.722 150.621Z" fill="#E4BD76"/>
<path d="M174.013 147.544C173.786 146.564 172.808 145.953 171.828 146.18C170.848 146.407 170.237 147.386 170.464 148.366C170.591 148.914 170.658 149.48 170.663 150.049C170.703 154.318 167.263 157.824 162.994 157.864C161.988 157.874 161.18 158.697 161.189 159.703C161.199 160.709 162.022 161.517 163.028 161.508C169.306 161.448 174.366 156.293 174.307 150.015C174.299 149.181 174.2 148.35 174.013 147.544Z" fill="#2787F5"/>
<path d="M127.698 47.06C125.653 44.6179 123.868 43.0425 122.27 41.6831C120.471 40.1533 118.415 39.9695 116.608 41.4885C115.001 42.8383 114.035 43.8196 111.976 46.2493C110.673 47.7868 109.698 49.0462 107.773 51.6719C107.773 51.6719 106.612 52.6173 106.353 53.1165C103.761 58.1099 102.395 63.7077 102.378 69.4165L102.229 119.388L119.229 119.438L136.229 119.489L136.378 69.518C136.395 63.8092 135.062 58.2034 132.501 53.1948C132.349 52.8975 131.519 52.6686 131.359 52.3758C130.29 50.4273 129.14 48.7827 127.698 47.06Z" fill="white"/>
<path d="M81.6194 155.188C81.3445 155.191 81.065 155.13 80.803 154.996C79.4808 154.324 78.3909 153.287 77.6512 151.996C77.1404 151.105 76.8189 150.139 76.6965 149.126C76.5794 148.156 77.2704 147.275 78.24 147.158C79.2095 147.041 80.0903 147.732 80.2076 148.701C80.2728 149.242 80.4451 149.759 80.7196 150.237C81.116 150.929 81.6989 151.485 82.4054 151.844C83.276 152.286 83.6229 153.351 83.1805 154.221C82.8713 154.83 82.258 155.182 81.6194 155.188Z" fill="#F9A100"/>
<path d="M145.608 152.385C144.654 152.394 143.861 151.642 143.825 150.682C143.805 150.138 143.677 149.609 143.443 149.109C143.105 148.387 142.571 147.784 141.897 147.368C141.066 146.854 140.809 145.765 141.322 144.934C141.836 144.104 142.925 143.846 143.756 144.36C145.017 145.139 146.017 146.264 146.647 147.612C147.082 148.543 147.322 149.532 147.359 150.552C147.395 151.528 146.633 152.348 145.657 152.384C145.641 152.385 145.624 152.385 145.608 152.385Z" fill="#F9A100"/>
<path d="M119.454 86.4632C125.911 86.4025 131.114 81.0998 131.054 74.6429C130.993 68.1857 125.69 62.9818 119.233 63.0425C112.776 63.1032 107.573 68.4059 107.633 74.863C107.694 81.32 112.996 86.5239 119.454 86.4632ZM119.268 66.6856C123.716 66.6438 127.369 70.2286 127.41 74.6769C127.452 79.1249 123.867 82.7781 119.419 82.8199C114.971 82.8617 111.318 79.2769 111.277 74.8286C111.235 70.3805 114.82 66.7274 119.268 66.6856Z" fill="#F9A100"/>
<path d="M88.8736 109.36L100.586 109.25L100.654 116.42C98.8689 116.935 97.5659 118.587 97.5842 120.533L97.6201 124.35C97.6421 126.689 99.5627 128.574 101.902 128.552L105.071 128.523L107.26 133.441C107.976 135.052 109.578 136.082 111.341 136.066L128.497 135.904C130.26 135.888 131.843 134.827 132.529 133.203L134.624 128.245L137.793 128.215C140.133 128.193 142.018 126.272 141.996 123.933L141.96 120.115C141.941 118.17 140.607 116.542 138.813 116.061L138.746 108.891L150.46 108.781C152.678 108.76 154.466 106.938 154.445 104.72L154.368 96.4862C154.359 95.5226 154.004 94.5932 153.368 93.8692L138.445 76.874L138.374 69.357C138.291 60.482 135.106 51.9633 129.407 45.3702C127.568 43.2424 125.53 41.2525 123.349 39.4567C120.816 37.3705 117.168 37.4048 114.675 39.5383C112.529 41.3747 110.528 43.4026 108.729 45.5646C103.155 52.2637 100.131 60.8407 100.215 69.7158L100.286 77.2337L95.1621 83.2946C94.5127 84.0629 94.609 85.2125 95.3773 85.8619C96.1456 86.5112 97.2952 86.4149 97.9448 85.6466L100.338 82.8154L100.552 105.606L88.8396 105.716C88.6299 105.718 88.4578 105.55 88.4558 105.34L88.3784 97.1063C88.3775 97.0152 88.4094 96.9268 88.4681 96.8575L92.521 92.0628C93.1706 91.2945 93.0741 90.145 92.3058 89.4954C91.5375 88.846 90.3879 88.9423 89.7383 89.7106L85.6854 94.5052C85.0636 95.2411 84.726 96.1769 84.7351 97.1406L84.8125 105.374C84.8333 107.593 86.655 109.381 88.8736 109.36ZM150.63 96.2736C150.69 96.342 150.724 96.4299 150.724 96.5209L150.802 104.754C150.804 104.964 150.635 105.136 150.425 105.138L138.712 105.248L138.497 82.4564L150.63 96.2736ZM129.173 131.786C129.052 132.072 128.773 132.258 128.463 132.261L111.307 132.422C110.996 132.425 110.714 132.244 110.588 131.96L109.042 128.485L130.653 128.282L129.173 131.786ZM111.53 47.8954C113.198 45.8907 115.053 44.0106 117.044 42.3069C118.191 41.3261 119.868 41.3101 121.033 42.2694C123.055 43.9351 124.946 45.7801 126.651 47.7532C127.15 48.3308 129.199 51.1215 129.235 51.1761L109.011 51.3662C109.061 51.2868 110.916 48.6331 111.53 47.8954ZM103.935 77.8632L103.858 69.682C103.81 64.5607 104.907 59.5526 107.015 55.0286L131.298 54.8004C133.491 59.2839 134.683 64.2702 134.731 69.3918L135.168 115.937L104.295 116.228L103.936 77.8756C103.936 77.8712 103.935 77.8673 103.935 77.8632ZM101.227 120.499C101.224 120.169 101.49 119.897 101.821 119.894L102.491 119.888L137.712 119.557C138.042 119.554 138.313 119.82 138.316 120.15L138.352 123.967C138.355 124.297 138.089 124.569 137.759 124.572L101.868 124.909C101.538 124.912 101.266 124.646 101.263 124.316L101.227 120.499Z" fill="#2787F5"/>
<path d="M80.2922 128.6C81.2982 128.591 82.1062 127.767 82.0967 126.761L81.9953 115.978C81.9859 114.972 81.1626 114.164 80.1566 114.173C79.1505 114.183 78.3426 115.006 78.352 116.012L78.4534 126.795C78.4629 127.801 79.2859 128.609 80.2922 128.6Z" fill="#F9A100"/>
<path d="M86.1751 115.939L86.2109 119.745C86.2203 120.751 87.0436 121.559 88.0496 121.549C89.0556 121.54 89.8636 120.716 89.8542 119.71L89.8184 115.904C89.8089 114.898 88.9856 114.09 87.9796 114.1C86.9736 114.109 86.1656 114.933 86.1751 115.939Z" fill="#F9A100"/>
<path d="M159.4 127.856C160.406 127.847 161.214 127.024 161.205 126.018L161.103 115.234C161.094 114.228 160.271 113.42 159.265 113.43C158.259 113.439 157.451 114.262 157.46 115.268L157.561 126.052C157.571 127.058 158.394 127.866 159.4 127.856Z" fill="#F9A100"/>
<path d="M149.637 115.342L149.673 119.148C149.682 120.154 150.506 120.962 151.512 120.952C152.518 120.943 153.326 120.12 153.316 119.114L153.28 115.308C153.271 114.302 152.448 113.494 151.442 113.503C150.435 113.513 149.628 114.336 149.637 115.342Z" fill="#F9A100"/>
<path d="M161.885 140.593C161.886 141.541 162.614 142.33 163.559 142.407C164.527 142.486 165.458 142.741 166.326 143.168C167.23 143.611 168.321 143.238 168.764 142.335C169.207 141.432 168.834 140.34 167.931 139.897C167.117 139.497 166.267 139.2 165.389 139.006C164.617 134.613 160.753 131.284 156.15 131.327C153.435 131.353 150.878 132.581 149.148 134.617C147.419 133.907 145.555 133.546 143.676 133.564C138.621 133.611 134.074 136.323 131.614 140.618C130.302 140.093 128.878 139.812 127.403 139.826C124.627 139.852 121.98 140.94 119.983 142.807C117.951 140.978 115.284 139.94 112.508 139.966C111.033 139.98 109.615 140.287 108.313 140.837C105.773 136.589 101.176 133.963 96.1201 134.011C94.2413 134.028 92.3845 134.425 90.6694 135.167C88.9017 133.163 86.3216 131.984 83.6065 132.009C79.004 132.053 75.2039 135.452 74.5136 139.858C69.4052 141.071 65.754 145.633 65.8048 151.035C65.8638 157.313 71.0194 162.372 77.2976 162.313C78.3036 162.304 79.1115 161.48 79.1021 160.474C79.0926 159.468 78.2693 158.66 77.2633 158.67C72.9942 158.71 69.4883 155.269 69.4481 151C69.4102 146.97 72.4019 143.628 76.407 143.226C77.3505 143.131 78.0635 142.329 78.0466 141.381L78.0452 141.34C78.024 138.232 80.5312 135.682 83.6408 135.653C85.6414 135.634 87.5226 136.693 88.5495 138.416C89.0606 139.274 90.1662 139.56 91.0293 139.059C92.5821 138.157 94.3543 137.671 96.1541 137.654C99.9333 137.619 103.366 139.601 105.237 142.798C104.216 143.722 103.355 144.843 102.723 146.134C102.28 147.037 102.653 148.128 103.557 148.571C103.82 148.701 104.1 148.76 104.374 148.758C105.042 148.751 105.681 148.377 105.994 147.738C106.576 146.552 107.441 145.577 108.485 144.871C108.504 144.86 108.523 144.85 108.542 144.838C109.097 144.469 109.696 144.183 110.32 143.975C111.025 143.746 111.772 143.617 112.542 143.61C114.887 143.588 117.118 144.697 118.52 146.579C118.637 146.743 118.78 146.892 118.954 147.015C119.586 147.463 120.481 147.444 121.091 146.994C121.26 146.869 121.4 146.72 121.512 146.556C122.879 144.645 125.091 143.492 127.437 143.47C128.313 143.461 129.163 143.606 129.957 143.884C129.957 143.886 129.956 143.889 129.956 143.891C130.48 144.076 130.985 144.319 131.46 144.622C131.479 144.634 131.498 144.643 131.517 144.654C132.574 145.341 133.458 146.299 134.062 147.473C134.387 148.107 135.034 148.469 135.701 148.463C135.975 148.46 136.254 148.395 136.515 148.261C137.41 147.802 137.762 146.703 137.303 145.808C136.646 144.53 135.765 143.426 134.726 142.521C136.537 139.289 139.931 137.242 143.711 137.207C145.511 137.19 147.292 137.642 148.861 138.515C149.733 139 150.834 138.693 151.328 137.826C152.323 136.083 154.183 134.989 156.184 134.971C159.292 134.941 161.845 137.44 161.886 140.545C161.885 140.562 161.885 140.581 161.885 140.593Z" fill="#2787F5"/>
</g>
</g>
<defs>
<clipPath id="clip0">
<rect width="174.047" height="164.72" fill="white" transform="translate(0.421997 93.6445) rotate(-32.4561)"/>
</clipPath>
<clipPath id="clip1">
<rect width="124" height="124" fill="white" transform="translate(56.9999 38.4983) rotate(-0.538609)"/>
</clipPath>
</defs>
</svg>
