<svg width="206" height="209" viewBox="0 0 206 209" fill="none" xmlns="http://www.w3.org/2000/svg">
<g clip-path="url(#clip0)">
<path opacity="0.1" d="M151.324 58.1482C116.879 52.9096 75.1915 46.367 42.3244 41.1741C20.6261 37.749 5.06867 61.5961 16.9613 80.0763L57.5894 143.204C65.3064 155.192 81.3688 158.5 93.1996 150.54L161.704 104.404C180.932 91.4454 174.247 61.6335 151.324 58.1482Z" fill="#0087F3"/>
<path d="M43.2622 113.618C72.9554 95.4007 108.829 73.1768 137.09 55.6244C155.755 44.0281 179.348 59.9569 175.582 81.6126L162.692 155.566C160.243 169.616 146.73 178.906 132.739 176.163L51.6868 160.273C28.9302 155.813 23.5088 125.742 43.2622 113.618Z" stroke="#F9A100" stroke-width="3" stroke-miterlimit="10" stroke-dasharray="11.89 11.89"/>
</g>
<g clip-path="url(#clip1)">
<path d="M135.93 106.879L132.73 80.8789L126.732 81.6171L126.734 81.6129L115.107 75.0691C113.866 74.3712 112.443 74.0675 111.026 74.1984L92.6656 75.8965C90.4087 76.1051 88.3919 77.3929 87.2533 79.3528L74.3127 101.626C73.3571 103.271 74.1072 105.38 75.8867 106.052L76.4161 106.252C77.4344 106.637 78.481 106.859 79.5272 106.946L77.8875 108.375L74.607 111.233L65.2769 119.191C63.616 120.638 63.4435 123.156 64.8903 124.817L65.8368 125.901C67.6948 128.031 70.9287 128.252 73.0633 126.394L76.6292 130.484C77.7885 131.815 79.4871 132.404 81.1189 132.203C82.0996 132.083 83.0564 131.676 83.8555 130.977L87.4174 135.068C88.5809 136.403 90.2792 136.988 91.9111 136.787C92.8917 136.666 93.8488 136.263 94.6481 135.565L96.5839 137.238C98.4424 139.372 101.68 139.593 103.815 137.734L106.446 135.438L128.569 118.209L128.593 118.187L137.321 118.178L135.93 106.879Z" fill="white"/>
<path d="M126.449 111.488L126.425 111.51L104.302 128.74L101.671 131.036C99.5366 132.894 96.2988 132.673 94.4403 130.539L92.5045 128.866C91.7052 129.565 90.7479 129.968 89.7675 130.088C88.1356 130.289 86.4376 129.704 85.2738 128.369L81.7119 124.279C80.9126 124.977 79.9558 125.384 78.9753 125.505C77.3435 125.706 75.645 125.117 74.4856 123.785L70.9197 119.695C69.0922 121.287 66.461 121.349 64.5752 119.997C63.6081 121.456 63.6853 123.432 64.8909 124.816L65.8374 125.9C67.6954 128.031 70.9293 128.252 73.0639 126.394L76.6298 130.484C77.7892 131.815 79.4877 132.404 81.1195 132.203C82.1002 132.083 83.0568 131.676 83.8561 130.977L87.418 135.068C88.5816 136.403 90.2798 136.988 91.9117 136.787C92.8924 136.666 93.8494 136.263 94.6487 135.565L96.5845 137.238C98.443 139.372 101.681 139.593 103.815 137.734L106.447 135.438L128.569 118.209L128.593 118.187L137.322 118.178L136.356 110.334L126.449 111.488Z" fill="#C4E4FF"/>
<path d="M130.478 122.735L118.625 112.515L115.328 109.675L112.97 107.644L102.829 98.9025L104 88.9333C104.397 85.5615 102.274 82.4049 99.0019 81.4995L76.8966 75.3829C74.5578 74.7357 72.0858 75.8209 70.9793 77.9809L68.1995 83.4072L56.2669 82.5974L53.2105 108.615L51.882 119.922L63.4971 120.694L63.5213 120.716L87.7865 141.633L90.4308 143.914C92.5755 145.761 95.8118 145.522 97.6585 143.377L101.197 139.271C102 139.965 102.96 140.362 103.941 140.478C105.574 140.67 107.269 140.075 108.425 138.734L111.965 134.624C112.768 135.318 113.727 135.72 114.708 135.835C116.341 136.027 118.036 135.429 119.188 134.091L122.731 129.981C124.876 131.827 128.109 131.588 129.955 129.447L130.895 128.358C132.333 126.689 132.146 124.173 130.478 122.735Z" fill="#F9F9F9"/>
<path d="M130.478 122.735L126.867 119.622C128.041 121.178 128.017 123.391 126.692 124.929L125.694 126.085C123.734 128.358 120.303 128.612 118.026 126.651L114.264 131.014C113.042 132.434 111.242 133.069 109.508 132.866C108.467 132.743 107.449 132.317 106.596 131.58L102.839 135.943C101.611 137.367 99.8123 137.998 98.0788 137.795C97.0371 137.672 96.0185 137.25 95.166 136.513L91.4092 140.872C90.7014 141.695 89.8 142.249 88.8316 142.534L90.4309 143.914C92.5756 145.761 95.812 145.522 97.6587 143.377L101.198 139.271C102.001 139.965 102.96 140.363 103.941 140.478C105.574 140.67 107.269 140.075 108.426 138.734L111.965 134.624C112.768 135.318 113.727 135.72 114.708 135.835C116.341 136.027 118.036 135.429 119.188 134.091L122.731 129.981C124.876 131.828 128.109 131.588 129.955 129.447L130.896 128.358C132.333 126.689 132.147 124.172 130.478 122.735Z" fill="#E1EEF9"/>
<path d="M64.1024 120.668L62.6965 122.525C61.1656 124.546 61.5633 127.426 63.5849 128.958C65.6066 130.489 68.4866 130.091 70.0178 128.069L71.4237 126.213C72.9547 124.191 72.557 121.311 70.5353 119.78C68.5137 118.249 65.6334 118.647 64.1024 120.668Z" fill="white"/>
<path d="M72.6655 124.573L70.0178 128.069C68.4868 130.091 68.8845 132.971 70.9062 134.502C72.9278 136.033 75.8079 135.635 77.3391 133.614L79.9868 130.117C81.5177 128.096 81.12 125.216 79.0984 123.684C77.0765 122.153 74.1964 122.551 72.6655 124.573Z" fill="white"/>
<path d="M80.9473 128.849L77.3388 133.614C75.8078 135.635 76.2055 138.515 78.2272 140.046C80.2488 141.577 83.1289 141.18 84.6601 139.158L88.2685 134.393C89.7995 132.371 89.4018 129.491 87.3801 127.96C85.3585 126.429 82.4785 126.827 80.9473 128.849Z" fill="white"/>
<path d="M88.4779 134.117L84.66 139.158C83.1291 141.18 83.5268 144.06 85.5484 145.591C87.5701 147.122 90.4501 146.724 91.9813 144.702L95.7992 139.661C97.3302 137.64 96.9325 134.76 94.9108 133.228C92.8889 131.697 90.0089 132.095 88.4779 134.117Z" fill="white"/>
<path d="M126.735 81.613L115.107 75.0691C113.866 74.3712 112.443 74.0675 111.026 74.1984L92.6657 75.8965C90.4087 76.1052 88.392 77.393 87.2533 79.3529L74.3127 101.626C73.3572 103.271 74.1072 105.38 75.8868 106.052L76.4161 106.252C81.1596 108.044 86.5165 106.519 89.6057 102.499L94.5638 96.0461C94.5638 96.0461 106.482 109.845 119.604 93.7304" fill="white"/>
<path d="M151.072 72.4768L157.154 121.88L142.933 123.631C140.245 123.962 137.798 122.051 137.467 119.364L132.584 79.693C132.253 77.0052 134.163 74.5583 136.851 74.2273L151.072 72.4768Z" fill="#FFE1A9"/>
<path d="M142.695 118.056C139.929 118.396 137.396 116.571 136.796 113.909L137.467 119.363C137.798 122.051 140.245 123.962 142.933 123.631L157.154 121.88L156.474 116.359L142.695 118.056Z" fill="#F9A100"/>
<path d="M40.9277 72.4773L34.846 121.881L49.0672 123.632C51.7551 123.963 54.202 122.052 54.533 119.364L59.4165 79.6937C59.7472 77.0059 57.8368 74.559 55.1489 74.228L40.9277 72.4773Z" fill="#C5E0FF"/>
<path d="M49.4019 117.933L35.5419 116.227L34.8459 121.88L49.0672 123.631C51.755 123.962 54.202 122.051 54.533 119.364L55.0488 115.173C53.9135 117.068 51.7356 118.22 49.4019 117.933Z" fill="#75B2F9"/>
<path d="M147.188 117.312C149.158 117.312 150.756 115.715 150.756 113.744C150.756 111.774 149.158 110.176 147.188 110.176C145.217 110.176 143.62 111.774 143.62 113.744C143.62 115.715 145.217 117.312 147.188 117.312Z" fill="#EBEEF2"/>
<path d="M44.6134 117.312C46.5839 117.312 48.1813 115.715 48.1813 113.744C48.1813 111.774 46.5839 110.176 44.6134 110.176C42.6429 110.176 41.0455 111.774 41.0455 113.744C41.0455 115.715 42.6429 117.312 44.6134 117.312Z" fill="#EBEEF2"/>
<path d="M96.0249 131.757C94.5225 130.619 92.6773 130.243 90.9561 130.564C90.6856 128.933 89.8174 127.491 88.4944 126.489C87.1234 125.451 85.4308 125.009 83.7271 125.244C83.3051 125.302 82.8951 125.4 82.5008 125.536C82.1273 124.255 81.3553 123.079 80.2122 122.213C78.3293 120.787 75.9087 120.559 73.8681 121.398C73.4618 120.175 72.6987 119.103 71.6494 118.308C70.2786 117.27 68.585 116.828 66.8821 117.063C65.5007 117.254 64.2471 117.871 63.2687 118.829L56.5129 118.38L60.6537 84.7432L68.0734 85.2474C68.1155 85.2501 68.1573 85.2516 68.1989 85.2516C68.8875 85.2516 69.5236 84.8667 69.8408 84.2476L72.6214 78.8219C73.326 77.4485 74.9165 76.7503 76.4036 77.162L80.5331 78.3039C81.5147 78.5749 82.5321 77.9993 82.804 77.0169C83.0757 76.0344 82.4994 75.0176 81.517 74.7459L77.3883 73.6043C74.2235 72.7282 70.8373 74.2136 69.3373 77.1374L67.1109 81.4817L61.1058 81.0737L61.248 79.918C61.7028 76.2244 59.0679 72.8498 55.3743 72.395L41.1531 70.6453C40.1396 70.5212 39.2202 71.2401 39.0957 72.2515C38.9712 73.2632 39.6905 74.1843 40.702 74.3088L54.9232 76.0596C55.7338 76.1592 56.4571 76.5687 56.9596 77.2125C57.4621 77.8563 57.6841 78.6573 57.5842 79.4679L52.7007 119.138C52.4947 120.811 50.9655 122.004 49.2923 121.799L35.0711 120.049C34.0582 119.925 33.1383 120.643 33.0138 121.655C32.8893 122.667 33.6086 123.588 34.62 123.712L48.8412 125.463C49.1198 125.497 49.3967 125.514 49.6706 125.514C52.1635 125.514 54.4125 124.129 55.5778 122.018L60.6318 122.354C60.0276 123.523 59.7961 124.847 59.9797 126.177C60.2149 127.881 61.0994 129.391 62.4701 130.429C63.6004 131.285 64.9495 131.735 66.3434 131.735C66.6399 131.735 66.9384 131.715 67.2374 131.674C67.2566 131.671 67.2753 131.667 67.2943 131.664C67.2967 131.684 67.2982 131.703 67.3007 131.722C67.5359 133.425 68.4204 134.935 69.7911 135.973C70.9515 136.852 72.3158 137.276 73.67 137.276C73.9875 137.276 74.3042 137.25 74.6177 137.204C74.8304 138.86 75.6796 140.433 77.1124 141.518C78.2727 142.396 79.6371 142.821 80.9913 142.821C81.3078 142.821 81.6235 142.795 81.9361 142.749C81.9388 142.769 81.9402 142.79 81.9429 142.81C82.1782 144.514 83.0627 146.024 84.4336 147.062C85.564 147.918 86.913 148.368 88.3067 148.368C88.6034 148.368 88.902 148.348 89.2007 148.307C90.9042 148.072 92.4139 147.187 93.452 145.817L97.2699 140.775C99.4133 137.946 98.8547 133.9 96.0249 131.757ZM66.7327 128.017C66.0065 128.118 65.2839 127.929 64.6992 127.486C64.1145 127.043 63.7372 126.399 63.6368 125.673C63.5364 124.946 63.7252 124.224 64.1681 123.639L65.5741 121.782C66.0168 121.198 66.6611 120.82 67.3875 120.72C68.1142 120.62 68.8363 120.808 69.4212 121.251C70.006 121.694 70.3832 122.338 70.4836 123.065C70.584 123.791 70.3953 124.513 69.9526 125.098L68.5464 126.955C68.1034 127.539 67.4594 127.917 66.7327 128.017ZM72.0202 133.031C71.4355 132.588 71.0583 131.944 70.9579 131.217C70.8574 130.49 71.0462 129.768 71.4892 129.183L72.8951 127.327C72.8951 127.327 72.8953 127.327 72.8953 127.327L74.1369 125.687C74.6763 124.975 75.498 124.6 76.3293 124.6C76.9069 124.6 77.4889 124.781 77.9838 125.156C79.1909 126.07 79.4294 127.796 78.5151 129.003L75.8674 132.499C74.9532 133.707 73.2273 133.945 72.0202 133.031ZM79.3415 138.575C78.7568 138.132 78.3795 137.488 78.2791 136.761C78.1787 136.035 78.3672 135.313 78.8097 134.729C78.8099 134.728 78.8099 134.728 78.8102 134.728L81.4579 131.231L82.4186 129.963C82.8614 129.378 83.5056 129.001 84.2323 128.9C84.9593 128.8 85.6811 128.989 86.2661 129.432C87.4726 130.345 87.7111 132.07 86.7981 133.277L83.1887 138.043C83.1884 138.044 83.1882 138.044 83.1882 138.044C82.2737 139.251 80.5488 139.489 79.3415 138.575ZM94.3276 138.547L90.5097 143.588C90.067 144.173 89.4227 144.55 88.6962 144.651C87.969 144.751 87.2472 144.562 86.6625 144.119C86.0778 143.677 85.7005 143.032 85.6001 142.306C85.4997 141.579 85.6885 140.857 86.1314 140.272L89.7401 135.507C89.7409 135.507 89.7414 135.506 89.7421 135.505L89.9496 135.231C90.3923 134.646 91.0366 134.269 91.7633 134.169C92.49 134.069 93.212 134.257 93.797 134.7C95.0033 135.614 95.2418 137.34 94.3276 138.547Z" fill="#2787F5"/>
<path d="M158.986 121.655C158.862 120.643 157.941 119.925 156.929 120.049L142.708 121.799C141.032 122.005 139.505 120.811 139.299 119.138L139.154 117.954L139.12 117.68L134.416 79.4678C134.316 78.6572 134.538 77.8564 135.041 77.2124C135.543 76.5686 136.267 76.1591 137.077 76.0595L151.298 74.3088C152.31 74.1842 153.029 73.2631 152.905 72.2514C152.78 71.24 151.86 70.5216 150.847 70.6452L136.626 72.3959C133.151 72.8238 130.613 75.8372 130.705 79.269L127.118 79.7105L116.013 73.461C114.441 72.575 112.658 72.1946 110.858 72.3599C110.854 72.3602 110.85 72.3612 110.847 72.3614L107.504 72.6705C106.489 72.7643 105.742 73.6633 105.836 74.6784C105.93 75.6933 106.827 76.4387 107.844 76.3462L111.196 76.0361C112.245 75.9391 113.284 76.1611 114.202 76.6774L125.716 83.157C126.076 83.3947 126.515 83.5035 126.958 83.4491L131.124 82.9365L134.179 107.753L135.235 116.335L128.591 116.341C128.148 116.341 127.721 116.501 127.386 116.79L126.872 117.19L110.193 102.814C114.004 101.719 117.638 99.0679 121.035 94.8959C121.679 94.1054 121.56 92.9429 120.769 92.2991C119.979 91.6556 118.816 91.7744 118.173 92.5649C114.375 97.2284 110.383 99.6287 106.306 99.6991C100.366 99.8109 96.0011 94.8855 95.961 94.8395C95.598 94.4197 95.066 94.1874 94.5113 94.2009C93.9566 94.2167 93.4386 94.4815 93.1004 94.9212L88.1424 101.374C85.5301 104.774 81.08 106.041 77.0685 104.525L76.5391 104.325C76.0743 104.149 75.8848 103.786 75.8134 103.585C75.742 103.384 75.6594 102.983 75.9089 102.553L88.8494 80.2799C89.6864 78.8393 91.1767 77.8877 92.8359 77.7341L100.498 77.0256C101.513 76.9316 102.259 76.0326 102.165 75.0177C102.071 74.0029 101.172 73.2565 100.157 73.35L92.4958 74.0585C89.6497 74.3218 87.0933 75.9544 85.6574 78.4256L72.7168 100.699C71.9884 101.953 71.8491 103.456 72.3351 104.822C72.8212 106.189 73.8781 107.266 75.2346 107.779L75.7639 107.979C77.3252 108.568 78.9339 108.853 80.5212 108.853C84.5701 108.853 88.4756 106.999 91.0694 103.623L94.7685 98.809C96.7507 100.517 100.449 103.048 105.169 103.359L129.273 124.133C129.706 124.506 129.968 125.026 130.011 125.596C130.053 126.167 129.871 126.72 129.498 127.152L128.559 128.242C127.379 129.609 125.304 129.761 123.935 128.581C123.859 128.515 123.777 128.459 123.694 128.407L117.437 123.012C116.665 122.347 115.499 122.433 114.833 123.205C114.168 123.977 114.254 125.142 115.026 125.808L120.111 130.192L117.791 132.884C117.079 133.711 116.006 134.128 114.924 134.001C114.276 133.925 113.669 133.657 113.17 133.226C113.161 133.218 113.151 133.212 113.142 133.204L107.328 128.192C106.556 127.526 105.391 127.612 104.725 128.384C104.059 129.156 104.146 130.322 104.918 130.987L109.361 134.818L107.028 137.528C106.315 138.355 105.24 138.773 104.157 138.645C103.144 138.525 102.227 139.25 102.108 140.263C101.99 141.275 102.714 142.192 103.726 142.311C103.999 142.343 104.272 142.359 104.544 142.359C106.559 142.359 108.488 141.486 109.824 139.938L112.319 137.041C113 137.366 113.733 137.578 114.493 137.667C116.796 137.938 119.073 137.051 120.588 135.294L123.086 132.395C125.849 133.705 129.262 133.076 131.354 130.653L132.294 129.562C133.311 128.382 133.808 126.876 133.692 125.322C133.577 123.768 132.863 122.353 131.683 121.337L130.168 120.031L135.705 120.026C136.311 123.216 139.117 125.514 142.329 125.514C142.603 125.514 142.88 125.497 143.158 125.463L157.38 123.712C158.391 123.588 159.111 122.667 158.986 121.655Z" fill="#2787F5"/>
<path d="M147.188 108.331C144.203 108.331 141.774 110.759 141.774 113.744C141.774 116.729 144.203 119.158 147.188 119.158C150.173 119.158 152.601 116.729 152.601 113.744C152.601 110.759 150.173 108.331 147.188 108.331ZM147.188 115.467C146.238 115.467 145.465 114.694 145.465 113.744C145.465 112.794 146.238 112.022 147.188 112.022C148.138 112.022 148.91 112.794 148.91 113.744C148.91 114.694 148.138 115.467 147.188 115.467Z" fill="#2787F5"/>
<path d="M50.027 113.744C50.027 110.759 47.5985 108.331 44.6134 108.331C41.6283 108.331 39.1998 110.759 39.1998 113.744C39.1998 116.73 41.6283 119.158 44.6134 119.158C47.5985 119.158 50.027 116.73 50.027 113.744ZM42.8913 113.744C42.8913 112.795 43.6637 112.022 44.6134 112.022C45.5631 112.022 46.3356 112.795 46.3356 113.744C46.3356 114.694 45.5631 115.467 44.6134 115.467C43.6637 115.467 42.8913 114.694 42.8913 113.744Z" fill="#2787F5"/>
</g>
<defs>
<clipPath id="clip0">
<rect width="161.58" height="164.72" fill="white" transform="translate(0 52.3752) rotate(-18.7265)"/>
</clipPath>
<clipPath id="clip1">
<rect width="126" height="126" fill="white" transform="translate(33 46.5)"/>
</clipPath>
</defs>
</svg>
