<svg width="15" height="22" viewBox="0 0 15 22" fill="none" xmlns="http://www.w3.org/2000/svg">
<path d="M7.5 0.84375C3.62732 0.84375 0.46875 4.00232 0.46875 7.875C0.46875 8.97363 0.914307 10.234 1.51855 11.6104C2.1228 12.9867 2.901 14.4485 3.69141 15.8096C5.27222 18.5348 6.86523 20.8145 6.86523 20.8145L7.5 21.7422L8.13477 20.8145C8.13477 20.8145 9.72778 18.5348 11.3086 15.8096C12.099 14.4485 12.8772 12.9867 13.4814 11.6104C14.0857 10.234 14.5312 8.97363 14.5312 7.875C14.5312 4.00232 11.3727 0.84375 7.5 0.84375ZM7.5 2.40625C10.5304 2.40625 12.9688 4.8446 12.9688 7.875C12.9688 8.50061 12.6331 9.68469 12.0654 10.9756C11.4978 12.2665 10.7135 13.6978 9.94141 15.0283C8.7146 17.1462 7.95166 18.2662 7.5 18.9346C7.04834 18.2662 6.2854 17.1462 5.05859 15.0283C4.2865 13.6978 3.5022 12.2665 2.93457 10.9756C2.36694 9.68469 2.03125 8.50061 2.03125 7.875C2.03125 4.8446 4.4696 2.40625 7.5 2.40625ZM7.5 6.3125C6.63635 6.3125 5.9375 7.01135 5.9375 7.875C5.9375 8.73865 6.63635 9.4375 7.5 9.4375C8.36365 9.4375 9.0625 8.73865 9.0625 7.875C9.0625 7.01135 8.36365 6.3125 7.5 6.3125Z" fill="#2787F5"/>
</svg>
