<svg width="25" height="26" viewBox="0 0 25 26" fill="none" xmlns="http://www.w3.org/2000/svg">
<path d="M18.9583 4.25H5.20833C4.71105 4.25 4.23413 4.44754 3.8825 4.79917C3.53087 5.15081 3.33333 5.62772 3.33333 6.125L3.33333 19.875C3.33333 20.3723 3.53087 20.8492 3.8825 21.2008C4.23413 21.5525 4.71105 21.75 5.20833 21.75H10.5697V15.8004H8.10872V13H10.5697V10.8656C10.5697 8.43789 12.015 7.09687 14.2286 7.09687C15.2888 7.09687 16.3974 7.28594 16.3974 7.28594V9.66875H15.1759C13.9724 9.66875 13.597 10.4156 13.597 11.1816V13H16.2837L15.854 15.8004H13.597V21.75H18.9583C19.4556 21.75 19.9325 21.5525 20.2842 21.2008C20.6358 20.8492 20.8333 20.3723 20.8333 19.875V6.125C20.8333 5.62772 20.6358 5.15081 20.2842 4.79917C19.9325 4.44754 19.4556 4.25 18.9583 4.25Z" fill="#2787F5"/>
</svg>
