<svg width="25" height="26" viewBox="0 0 25 26" fill="none" xmlns="http://www.w3.org/2000/svg">
<path d="M8.98047 18.5234C8.98047 18.6016 8.89062 18.6641 8.77734 18.6641C8.64844 18.6758 8.55859 18.6133 8.55859 18.5234C8.55859 18.4453 8.64844 18.3828 8.76172 18.3828C8.87891 18.3711 8.98047 18.4336 8.98047 18.5234ZM7.76563 18.3477C7.73828 18.4258 7.81641 18.5156 7.93359 18.5391C8.03516 18.5781 8.15234 18.5391 8.17578 18.4609C8.19922 18.3828 8.125 18.293 8.00781 18.2578C7.90625 18.2305 7.79297 18.2695 7.76563 18.3477ZM9.49219 18.2813C9.37891 18.3086 9.30078 18.3828 9.3125 18.4727C9.32422 18.5508 9.42578 18.6016 9.54297 18.5742C9.65625 18.5469 9.73437 18.4727 9.72266 18.3945C9.71094 18.3203 9.60547 18.2695 9.49219 18.2813ZM12.0625 3.3125C6.64453 3.3125 2.5 7.42578 2.5 12.8438C2.5 17.1758 5.22656 20.8828 9.12109 22.1875C9.62109 22.2773 9.79688 21.9688 9.79688 21.7148C9.79688 21.4727 9.78516 20.1367 9.78516 19.3164C9.78516 19.3164 7.05078 19.9023 6.47656 18.1523C6.47656 18.1523 6.03125 17.0156 5.39062 16.7227C5.39062 16.7227 4.49609 16.1094 5.45312 16.1211C5.45312 16.1211 6.42578 16.1992 6.96094 17.1289C7.81641 18.6367 9.25 18.2031 9.80859 17.9453C9.89844 17.3203 10.1523 16.8867 10.4336 16.6289C8.25 16.3867 6.04688 16.0703 6.04688 12.3125C6.04688 11.2383 6.34375 10.6992 6.96875 10.0117C6.86719 9.75781 6.53516 8.71094 7.07031 7.35937C7.88672 7.10547 9.76562 8.41406 9.76562 8.41406C10.5469 8.19531 11.3867 8.08203 12.2188 8.08203C13.0508 8.08203 13.8906 8.19531 14.6719 8.41406C14.6719 8.41406 16.5508 7.10156 17.3672 7.35937C17.9023 8.71484 17.5703 9.75781 17.4688 10.0117C18.0938 10.7031 18.4766 11.2422 18.4766 12.3125C18.4766 16.082 16.1758 16.3828 13.9922 16.6289C14.3516 16.9375 14.6563 17.5234 14.6563 18.4414C14.6563 19.7578 14.6445 21.3867 14.6445 21.707C14.6445 21.9609 14.8242 22.2695 15.3203 22.1797C19.2266 20.8828 21.875 17.1758 21.875 12.8438C21.875 7.42578 17.4805 3.3125 12.0625 3.3125ZM6.29687 16.7852C6.24609 16.8242 6.25781 16.9141 6.32422 16.9883C6.38672 17.0508 6.47656 17.0781 6.52734 17.0273C6.57812 16.9883 6.56641 16.8984 6.5 16.8242C6.4375 16.7617 6.34766 16.7344 6.29687 16.7852ZM5.875 16.4687C5.84766 16.5195 5.88672 16.582 5.96484 16.6211C6.02734 16.6602 6.10547 16.6484 6.13281 16.5938C6.16016 16.543 6.12109 16.4805 6.04297 16.4414C5.96484 16.418 5.90234 16.4297 5.875 16.4687ZM7.14063 17.8594C7.07813 17.9102 7.10156 18.0273 7.19141 18.1016C7.28125 18.1914 7.39453 18.2031 7.44531 18.1406C7.49609 18.0898 7.47266 17.9727 7.39453 17.8984C7.30859 17.8086 7.19141 17.7969 7.14063 17.8594ZM6.69531 17.2852C6.63281 17.3242 6.63281 17.4258 6.69531 17.5156C6.75781 17.6055 6.86328 17.6445 6.91406 17.6055C6.97656 17.5547 6.97656 17.4531 6.91406 17.3633C6.85938 17.2734 6.75781 17.2344 6.69531 17.2852Z" fill="#2787F5"/>
</svg>
