<svg width="25" height="26" viewBox="0 0 25 26" fill="none" xmlns="http://www.w3.org/2000/svg">
<path d="M19.5833 4.25H4.57942C3.89192 4.25 3.33333 4.81641 3.33333 5.51172V20.4883C3.33333 21.1836 3.89192 21.75 4.57942 21.75H19.5833C20.2708 21.75 20.8333 21.1836 20.8333 20.4883V5.51172C20.8333 4.81641 20.2708 4.25 19.5833 4.25ZM8.62239 19.25H6.02864V10.8984H8.6263V19.25H8.62239ZM7.32552 9.75781C6.49348 9.75781 5.82161 9.08203 5.82161 8.25391C5.82161 7.42578 6.49348 6.75 7.32552 6.75C8.15364 6.75 8.82942 7.42578 8.82942 8.25391C8.82942 9.08594 8.15755 9.75781 7.32552 9.75781ZM18.345 19.25H15.7513V15.1875C15.7513 14.2188 15.7318 12.9727 14.4036 12.9727C13.0521 12.9727 12.845 14.0273 12.845 15.1172V19.25H10.2513V10.8984H12.7396V12.0391H12.7747C13.1224 11.3828 13.97 10.6914 15.2318 10.6914C17.8568 10.6914 18.345 12.4219 18.345 14.6719V19.25Z" fill="#2787F5"/>
</svg>
