<svg width="25" height="26" viewBox="0 0 25 26" fill="none" xmlns="http://www.w3.org/2000/svg">
<path d="M6.76271 2.84375C6.35378 2.84375 5.95095 2.99023 5.61525 3.25879L5.56643 3.2832L5.54201 3.30762L3.10061 5.82227L3.12502 5.84668C2.37124 6.54248 2.1393 7.58313 2.46584 8.4834C2.46889 8.4895 2.46279 8.50171 2.46584 8.50781C3.12807 10.403 4.8218 14.062 8.1299 17.3701C11.4502 20.6904 15.1581 22.317 16.9922 23.0342H17.0166C17.9657 23.3516 18.9942 23.1257 19.7266 22.4971L22.1924 20.0312C22.8394 19.3843 22.8394 18.2612 22.1924 17.6143L19.0186 14.4404L18.9942 14.3916C18.3472 13.7446 17.1997 13.7446 16.5528 14.3916L14.9903 15.9541C14.4257 15.6825 13.0799 14.9867 11.792 13.7568C10.5133 12.5361 9.86025 11.1323 9.61916 10.583L11.1817 9.02051C11.8378 8.36438 11.85 7.27185 11.1572 6.62793L11.1817 6.60352L11.1084 6.53027L7.98342 3.30762L7.959 3.2832L7.91018 3.25879C7.57448 2.99023 7.17165 2.84375 6.76271 2.84375ZM6.76271 4.40625C6.8207 4.40625 6.87868 4.43372 6.93361 4.47949L10.0586 7.67773L10.1319 7.75098C10.1258 7.74487 10.1776 7.82727 10.083 7.92188L8.1299 9.875L7.76369 10.2168L7.93459 10.7051C7.93459 10.7051 8.83181 13.1068 10.7178 14.9043L10.8887 15.0508C12.7045 16.7079 14.8438 17.6143 14.8438 17.6143L15.3321 17.834L17.6514 15.5146C17.7857 15.3804 17.7612 15.3804 17.8955 15.5146L21.0938 18.7129C21.228 18.8472 21.228 18.7983 21.0938 18.9326L18.7012 21.3252C18.3411 21.6334 17.9596 21.6975 17.5049 21.5449C15.7349 20.8491 12.2956 19.3385 9.22853 16.2715C6.1371 13.1801 4.52272 9.67358 3.93068 7.9707C3.81166 7.65332 3.89711 7.18335 4.17482 6.94531L4.22365 6.89648L6.59182 4.47949C6.64675 4.43372 6.70473 4.40625 6.76271 4.40625Z" fill="#2787F5"/>
</svg>
