<svg width="25" height="26" viewBox="0 0 25 26" fill="none" xmlns="http://www.w3.org/2000/svg">
<path d="M20.4441 8.92662C20.4568 9.10428 20.4568 9.28197 20.4568 9.45963C20.4568 14.8784 16.3325 21.122 8.79441 21.122C6.47207 21.122 4.31473 20.4494 2.5 19.282C2.82996 19.32 3.14719 19.3327 3.48984 19.3327C5.40605 19.3327 7.17004 18.6855 8.57867 17.5815C6.77664 17.5434 5.26648 16.3632 4.74617 14.7388C5 14.7769 5.25379 14.8022 5.52031 14.8022C5.88832 14.8022 6.25637 14.7515 6.59898 14.6627C4.72082 14.2819 3.31215 12.6322 3.31215 10.6398V10.5891C3.85781 10.8937 4.49238 11.084 5.16492 11.1094C4.06086 10.3733 3.33754 9.11697 3.33754 7.69564C3.33754 6.93424 3.54055 6.23627 3.8959 5.62713C5.91367 8.11443 8.94668 9.73877 12.3477 9.91646C12.2842 9.61189 12.2461 9.29467 12.2461 8.9774C12.2461 6.7185 14.0736 4.87842 16.3451 4.87842C17.5253 4.87842 18.5913 5.37334 19.34 6.17283C20.2664 5.99518 21.1547 5.65252 21.9416 5.18299C21.637 6.13479 20.9898 6.93428 20.1395 7.44186C20.9644 7.35307 21.7639 7.12459 22.4999 6.80736C21.9416 7.61951 21.2436 8.34283 20.4441 8.92662V8.92662Z" fill="#2787F5"/>
</svg>
