<svg xmlns="http://www.w3.org/2000/svg" width="215" viewBox="0 0 1728 341" fill="none" class="injected-svg svg-injector">
  <path d="M288.695 21.763V299.761C288.695 302.221 286.727 304.681 283.775 304.681H238.509C236.048 304.681 233.588 302.713 233.588 299.761V21.763C233.588 18.8108 235.556 16.8427 238.509 16.8427H283.775C286.235 16.8427 288.695 18.8108 288.695 21.763Z" fill="#00154F"></path>
  <path d="M556.849 22.7471L484.521 300.745C484.029 302.713 482.061 304.189 479.601 304.189H428.922C426.462 304.189 424.494 302.713 424.002 300.745L351.674 22.7471C350.69 19.7949 353.15 16.8427 356.595 16.8427H401.369C403.829 16.8427 405.797 18.3188 406.289 20.2869L453.524 202.339C453.524 202.831 454.508 202.831 455 202.339L502.234 20.2869C502.726 18.3188 504.694 16.8427 507.154 16.8427H551.929C555.373 16.8427 557.341 19.7949 556.849 22.7471Z" fill="#00154F"></path>
  <path d="M170.117 21.7631V67.03C170.117 69.4901 167.657 71.9503 165.197 71.9503H78.6005C76.1404 71.9503 73.6802 74.4105 73.6802 76.8706V127.058C73.6802 129.518 76.1404 131.978 78.6005 131.978H146.008C148.468 131.978 150.928 134.438 150.928 136.899V182.165C150.928 184.626 148.468 187.086 146.008 187.086H79.0925C76.6324 187.086 74.1722 189.546 74.1722 192.006V300.745C74.1722 303.205 71.7121 305.666 69.252 305.666H23.9857C21.5256 305.666 19.0654 303.205 19.0654 300.745V22.7471C19.0654 20.2869 21.5256 17.8268 23.9857 17.8268H165.197C167.657 16.8427 170.117 18.8109 170.117 21.7631Z" fill="#00154F"></path>
  <path d="M1413.96 21.763V299.761C1413.96 302.221 1411.99 304.681 1409.04 304.681H1363.77C1361.31 304.681 1358.85 302.713 1358.85 299.761V21.763C1358.85 19.3029 1360.82 16.8427 1363.77 16.8427H1409.04C1411.99 16.8427 1413.96 18.8108 1413.96 21.763Z" fill="#00154F"></path>
  <path d="M1282.59 163.96V90.6475C1282.59 49.8089 1249.62 16.8427 1208.78 16.8427H1119.73C1117.27 16.8427 1114.81 18.8108 1114.81 21.763V299.761C1114.81 302.221 1116.77 304.681 1119.73 304.681H1164.99C1167.45 304.681 1169.91 302.713 1169.91 299.761V231.369C1169.91 228.908 1171.88 226.448 1174.83 226.448H1191.07C1193.04 226.448 1194.51 227.432 1195.5 229.401L1227.48 301.729C1227.97 303.697 1229.94 304.681 1231.91 304.681H1278.65C1282.09 304.681 1284.55 301.237 1283.08 298.285L1249.13 217.592C1249.13 217.1 1249.13 216.116 1249.62 216.116C1268.81 206.767 1282.59 187.086 1282.59 163.96ZM1169.91 75.3945H1200.42C1214.69 75.3945 1226.49 86.7112 1226.49 101.472V145.755C1226.49 160.024 1215.18 171.833 1200.42 171.833H1169.91V75.3945Z" fill="#00154F"></path>
  <path d="M675.427 76.8706V126.074C675.427 129.026 677.887 130.994 680.347 130.994H747.755C750.215 130.994 752.675 133.454 752.675 135.914V180.689C752.675 183.15 750.215 185.61 747.755 185.61H680.347C677.887 185.61 675.427 188.07 675.427 190.53V244.654C675.427 247.114 677.887 249.574 680.347 249.574H766.452C768.912 249.574 771.372 252.034 771.372 254.494V299.269C771.372 301.729 768.912 304.189 766.452 304.189H625.733C623.273 304.189 620.812 301.729 620.812 299.269V21.271C620.812 18.3188 623.273 16.3506 625.733 16.3506H766.452C768.912 16.3506 771.372 18.3188 771.372 21.271V66.0459C771.372 68.9981 768.912 70.9662 766.452 70.9662H680.347C677.887 71.9503 675.427 73.9184 675.427 76.8706Z" fill="#00154F"></path>
  <path d="M981.959 110.821V104.424C981.959 86.2192 967.198 71.4582 948.993 71.4582H933.248C915.043 71.4582 900.282 86.2192 900.282 104.424V217.1C900.282 235.305 915.043 250.066 933.248 250.066H949.485C967.69 250.066 982.451 235.305 982.451 217.1V205.291C982.451 202.831 980.483 200.371 977.53 200.371H938.66C935.708 200.371 933.74 197.91 933.74 195.45V150.675C933.74 148.215 935.708 145.755 938.66 145.755H1032.64C1035.1 145.755 1037.56 148.215 1037.56 150.675V230.385C1037.56 273.683 1002.13 309.11 958.833 309.11H921.932C878.633 309.11 843.208 273.683 843.208 230.385V93.5997C843.208 49.8088 879.125 13.8905 922.916 13.8905H960.31C1003.12 13.8905 1037.56 48.3327 1037.56 91.1395V110.821C1037.56 113.281 1035.59 115.741 1032.64 115.741H987.371C984.419 115.741 981.959 113.773 981.959 110.821Z" fill="#00154F"></path>
  <path d="M1614.21 16.8427H1501.05C1498.59 16.8427 1496.62 18.8108 1496.62 21.271V299.761C1496.62 302.221 1498.59 304.189 1501.05 304.189H1614.21C1657.51 304.189 1692.94 268.763 1692.94 225.464V94.5838C1692.94 51.777 1658 16.8427 1614.21 16.8427ZM1637.83 209.227C1637.83 231.369 1620.12 249.082 1597.97 249.082H1556.15C1553.69 249.082 1551.23 247.114 1551.23 244.162V76.3785C1551.23 73.9184 1553.2 71.4582 1556.15 71.4582H1597.97C1600.93 71.4582 1603.39 71.9503 1605.85 72.4423C1616.18 74.4105 1625.04 80.8069 1630.45 89.1714C1630.94 90.1555 1631.92 91.1395 1632.42 92.6156C1632.91 93.1077 1632.91 93.5997 1633.4 94.5838C1633.89 95.5679 1634.38 97.0439 1634.88 98.028C1635.37 99.0121 1635.86 99.9961 1635.86 101.472C1636.84 104.916 1637.34 108.361 1637.34 111.805V209.227H1637.83Z" fill="#00154F"></path>
  <path d="M266.062 39.4763H256.221V284.016H266.062V39.4763Z" fill="white"></path>
  <path d="M455 261.875L388.576 38.9842H378.244L450.571 281.556H458.936L531.264 38.9842H520.931L455 261.875Z" fill="white"></path>
  <path d="M41.6985 39.4768V284.017H51.539V163.469H135.675V153.628H51.539V49.3174H152.896V39.4768H46.1267H41.6985Z" fill="white"></path>
  <path d="M1391.82 39.4763H1381.98V284.016H1391.82V39.4763Z" fill="white"></path>
  <path d="M1207.8 39.4763H1137.44V284.016H1147.28V207.259H1207.31L1243.22 285H1254.05L1217.64 206.275C1242.24 201.355 1260.44 179.705 1260.44 154.612V92.1237C1260.94 63.0939 1236.83 39.4763 1207.8 39.4763ZM1251.1 154.612C1251.1 178.229 1231.91 197.419 1208.29 197.419H1147.77V49.3169H1208.29C1231.91 49.3169 1251.1 68.5062 1251.1 92.1237V154.612Z" fill="white"></path>
  <path d="M642.953 284.016H650.333H754.151V274.176H652.794V163.468H735.946V153.628H652.794V49.3169H754.151V39.4763H642.953V284.016Z" fill="white"></path>
  <path d="M948.501 178.229H1005.08V224.48C1005.08 252.034 982.451 274.667 954.897 274.667H926.852C899.299 274.667 876.665 252.034 876.665 224.48V98.028C876.665 71.4583 898.314 49.8088 924.884 49.8088H953.421C979.991 49.8088 1001.64 71.4583 1001.64 98.028V100.488H1011.48V98.028C1011.48 66.0459 985.403 39.9682 953.421 39.9682H924.884C892.902 39.9682 866.825 66.0459 866.825 98.028V224.48C866.825 257.446 893.886 284.508 926.852 284.508H954.897C987.863 284.508 1014.92 257.446 1014.92 224.48V168.389H948.501V178.229Z" fill="white"></path>
<path d="M1605.35 39.4763H1521.22V284.016H1605.35C1641.27 284.016 1670.3 254.986 1670.3 219.068V103.932C1670.3 68.5062 1641.27 39.4763 1605.35 39.4763ZM1660.46 219.56C1660.46 250.066 1635.86 274.668 1605.35 274.668H1531.06V49.809H1605.35C1635.86 49.809 1660.46 74.4105 1660.46 104.917V219.56Z" fill="white"></path>
</svg>