<svg xmlns="http://www.w3.org/2000/svg" xmlns:xlink="http://www.w3.org/1999/xlink" width="80px" height="38px" viewBox="0 0 80 38" version="1.1">
   <!--Generator: Sketch 48.2 (47327) - http://www.bohemiancoding.com/sketch-->
   <title>logo-nav/red</title>
   <desc>Created with Sketch.</desc>
   <g id="layout/navbar" stroke="none" stroke-width="1" fill="none" fill-rule="evenodd" transform="translate(-170.000000, -21.000000)">
      <path d="M204.45614,30.0145985 C204.877193,30.0145985 205.22807,29.5985401 205.22807,29.1131387 C205.22807,28.6277372 204.877193,28.2116788 204.45614,28.2116788 L195.614035,28.2116788 C195.192982,28.2116788 194.842105,28.6277372 194.842105,29.1131387 C194.842105,29.5985401 195.192982,30.0145985 195.614035,30.0145985 L204.45614,30.0145985 Z M184.526316,31.540146 C183.333333,30.7773723 181.929825,30.3613139 180.385965,30.3613139 C178.842105,30.3613139 177.438596,30.7080292 176.175439,31.4014599 C174.912281,32.0948905 173.719298,33.1350365 172.666667,34.5218978 L172.666667,30.9160584 L170,30.9160584 L170,51.1642336 L172.666667,51.1642336 L172.666667,43.6751825 C172.666667,40.9708029 172.807018,39.1678832 173.017544,38.1970803 C173.438596,36.6715328 174.280702,35.3540146 175.54386,34.3138686 C176.807018,33.2737226 178.280702,32.7189781 179.894737,32.7189781 C181.298246,32.7189781 182.421053,33.0656934 183.333333,33.7591241 C184.175439,34.3832117 184.807018,35.4233577 185.087719,36.7408759 C185.22807,37.5036496 185.368421,39.0985401 185.368421,41.3868613 L185.368421,51.0948905 L188.035088,51.0948905 L188.035088,40.7627737 C188.035088,37.9890511 187.754386,35.9781022 187.192982,34.6605839 C186.631579,33.3430657 185.719298,32.3029197 184.526316,31.540146 Z M228.807018,34.3832117 C227.684211,32.9270073 226.561404,31.8868613 225.368421,31.3321168 C224.175439,30.7080292 222.912281,30.4306569 221.508772,30.4306569 C219.824561,30.4306569 218.280702,30.8467153 216.736842,31.8175182 C215.263158,32.7189781 214.070175,34.0364964 213.22807,35.6313869 C212.385965,37.2262774 211.964912,38.959854 211.964912,40.8321168 C211.964912,42.7043796 212.385965,44.3686131 213.157895,45.9635036 C213.929825,47.5583942 215.122807,48.8065693 216.596491,49.7080292 C218.070175,50.6094891 219.684211,51.0948905 221.368421,51.0948905 C222.842105,51.0948905 224.175439,50.7481752 225.508772,50.1240876 C226.77193,49.5 227.894737,48.5291971 228.807018,47.2810219 L228.807018,48.3211679 C228.807018,50.6094891 228.596491,52.2043796 228.105263,53.1751825 C227.614035,54.1459854 226.842105,55.0474453 225.719298,55.6715328 C224.596491,56.2956204 223.192982,56.6423358 221.578947,56.6423358 C219.894737,56.6423358 218.561404,56.3649635 217.438596,55.6715328 C216.315789,55.0474453 215.403509,54.0072993 214.701754,52.689781 L212.105263,52.689781 C212.736842,54.2846715 213.508772,55.4635036 214.280702,56.2956204 C215.052632,57.1277372 216.105263,57.8211679 217.368421,58.3065693 C218.631579,58.7919708 220.035088,59 221.649123,59 C223.824561,59 225.649123,58.5145985 227.192982,57.4744526 C228.736842,56.5036496 229.789474,55.0474453 230.421053,53.1751825 C230.842105,51.8576642 231.052632,49.7773723 231.052632,46.9343066 L231.052632,30.9160584 L228.736842,30.9160584 L228.807018,34.3832117 Z M226.77193,46.5182482 C225.438596,47.9744526 223.684211,48.6678832 221.508772,48.6678832 C219.333333,48.6678832 217.578947,47.9051095 216.245614,46.4489051 C214.912281,44.9927007 214.210526,43.189781 214.210526,40.9708029 C214.210526,39.5145985 214.561404,38.1970803 215.192982,36.879562 C215.824561,35.6313869 216.736842,34.6605839 217.929825,33.9671533 C219.122807,33.2737226 220.315789,32.9270073 221.719298,32.9270073 C222.982456,32.9270073 224.245614,33.2737226 225.298246,33.9671533 C226.421053,34.6605839 227.263158,35.6313869 227.894737,36.810219 C228.45614,37.9890511 228.807018,39.3759124 228.807018,40.9014599 C228.807018,43.189781 228.105263,45.0620438 226.77193,46.5182482 Z M235.54386,23.3576642 C234.982456,23.3576642 234.421053,23.5656934 234,23.9817518 C233.578947,24.3978102 233.368421,24.9525547 233.368421,25.5072993 C233.368421,26.0620438 233.578947,26.6167883 234,27.0328467 C234.421053,27.4489051 234.912281,27.6569343 235.54386,27.6569343 C236.105263,27.6569343 236.666667,27.4489051 237.087719,27.0328467 C237.508772,26.6167883 237.719298,26.1313869 237.719298,25.5072993 C237.719298,24.8832117 237.508772,24.3978102 237.087719,23.9817518 C236.666667,23.5656934 236.175439,23.3576642 235.54386,23.3576642 Z M234.210526,30.9160584 L236.877193,30.9160584 L236.877193,51.1642336 L234.210526,51.1642336 L234.210526,30.9160584 Z M245.789474,30.8467153 L245.789474,23.3576642 L243.122807,23.3576642 L243.122807,30.8467153 L239.473684,30.8467153 L239.473684,33.1350365 L243.122807,33.1350365 L243.122807,51.0948905 L245.789474,51.0948905 L245.789474,33.1350365 L250,33.1350365 L250,30.8467153 L245.789474,30.8467153 Z M204.385965,27.2408759 C204.385965,27.2408759 204.526316,24.8138686 202.77193,24.8138686 L200.315789,24.8138686 L200.315789,21 L199.754386,21 L199.754386,24.8138686 L197.368421,24.8138686 C195.614035,24.8138686 195.754386,27.2408759 195.754386,27.2408759 L204.385965,27.2408759 Z M205.789474,31.4014599 C205.719298,31.3321168 205.719298,31.2627737 205.719298,31.1240876 L205.719298,30.9854015 L202.77193,30.9854015 C202.912281,31.1934307 202.912281,31.540146 202.982456,31.7481752 C203.052632,31.8868613 203.052632,31.9562044 203.052632,32.0948905 C203.403509,33.4124088 203.614035,34.1751825 205.508772,37.2262774 L205.719298,37.4343066 C206.701754,38.6824818 207.192982,40.1386861 207.192982,41.6642336 C207.192982,45.5474453 203.964912,48.6678832 199.964912,48.6678832 C195.964912,48.6678832 192.736842,45.6167883 192.736842,41.7335766 C192.736842,40.1386861 193.298246,38.6131387 194.350877,37.3649635 C195.403509,36.1167883 196.105263,34.4525547 196.947368,32.7189781 C197.22807,32.1642336 197.438596,31.540146 197.789474,30.9160584 L194.701754,30.9160584 C194.561404,31.1240876 194.491228,31.3321168 194.350877,31.6094891 C193.649123,33.1350365 193.017544,34.5912409 192.175439,35.5620438 C190.701754,37.2956204 189.929825,39.4452555 189.929825,41.6642336 C189.929825,47.0036496 194.421053,51.4416058 200.035088,51.4416058 C205.649123,51.4416058 210.140351,47.0729927 210.140351,41.6642336 C210.070175,39.4452555 209.368421,37.3649635 207.964912,35.6313869 C206.210526,32.9963504 206.070175,32.4416058 205.789474,31.4014599 Z M201.789474,45.270073 C201.789474,45.270073 200.877193,45.5474453 201.087719,46.2408759 C201.298246,47.0036496 202.210526,46.7956204 202.210526,46.7956204 C204.947368,46.0328467 206.631579,43.0510949 205.929825,40.1386861 C205.929825,40.1386861 205.789474,39.4452555 205.017544,39.5839416 C204.45614,39.7226277 204.526316,40.4854015 204.526316,40.6934307 C205.017544,42.8430657 203.754386,44.7153285 201.789474,45.270073 Z" id="logo-nav/red" fill="#353C45" fill-rule="nonzero"/>
   </g>
</svg>